<svg width="677" height="692" viewBox="0 0 677 692" fill="none" xmlns="http://www.w3.org/2000/svg">
<g id="animal_rescue">
<g id="all">
<path id="path14" d="M311.262 624.989C167.883 602.413 73.2274 468.905 53.2683 335.071C19.2173 209.54 127.217 30.8439 271.442 109.677C317.932 138.827 346.089 194.063 398.96 213.818C460.71 232.661 535.706 199.227 583.201 256.953C613.176 289.668 622.168 330.374 622.597 372.251C624.284 537.499 458.703 648.854 311.262 624.989Z" fill="url(#paint0_linear_14_407)"/>
<path id="path16" d="M549.886 343.79C549.886 343.79 544.644 323.71 552.74 295.738C560.836 267.768 580.811 265.042 588.034 275.165C595.258 285.286 586.791 297.176 581.104 304.085C575.416 310.993 557.326 325.17 549.886 343.79Z" fill="#7EA78B"/>
<path id="path18" d="M556.13 352.466C556.13 352.466 574.374 325.062 595.148 313.072C615.924 301.082 632.818 323.492 622.274 337.066C611.73 350.641 577.512 339.816 556.13 352.466Z" fill="#7EA78B"/>
<path id="path20" d="M544.466 380.268C544.463 380.268 544.46 380.268 544.456 380.268C543.908 380.262 543.466 379.816 543.466 379.268C543.466 346.12 563.539 299.838 563.74 299.375C563.963 298.869 564.556 298.638 565.059 298.86C565.563 299.081 565.795 299.67 565.574 300.175C565.396 300.582 549.8 336.545 546.202 367.493C550.882 355.226 563.543 336.694 597.762 328.706C598.3 328.582 598.838 328.916 598.963 329.453C599.088 329.99 598.755 330.529 598.218 330.654C546.711 342.677 545.472 378.92 545.466 379.285C545.455 379.83 545.01 380.268 544.466 380.268Z" fill="#473220"/>
<path id="path22" d="M611.51 620.78H285.238V349.984H611.51V620.78Z" fill="#8DA6BC"/>
<path id="path24" d="M426.124 492.952H306.582V367.294H426.124V492.952Z" fill="#7A93A5"/>
<path id="path26" d="M315.629 371.833H320.201V488.413H315.629V371.833Z" fill="#B7CCDA"/>
<path id="path28" d="M339.528 371.833H344.1V488.413H339.528V371.833Z" fill="#B7CCDA"/>
<path id="path30" d="M363.429 371.833H368.002V488.413H363.429V371.833Z" fill="#B7CCDA"/>
<path id="path32" d="M387.33 371.833H391.902V488.413H387.33V371.833Z" fill="#B7CCDA"/>
<path id="path34" d="M411.23 371.833H415.802V488.413H411.23V371.833Z" fill="#B7CCDA"/>
<path id="path36" d="M310.534 488.413H422.173V371.833H310.534V488.413ZM430.077 497.49H302.629V362.756H430.077V497.49Z" fill="#B7CCDA"/>
<path id="path38" d="M347.408 381.613H297.479V358.4H347.408V381.613Z" fill="#F8E6E1"/>
<path id="path40" d="M565.04 492.952H445.496V367.294H565.04V492.952Z" fill="#7A93A5"/>
<path id="path42" d="M454.545 371.833H459.117V488.413H454.545V371.833Z" fill="#B7CCDA"/>
<path id="path44" d="M478.444 371.833H483.016V488.413H478.444V371.833Z" fill="#B7CCDA"/>
<path id="path46" d="M502.344 371.833H506.916V488.413H502.344V371.833Z" fill="#B7CCDA"/>
<path id="path48" d="M526.245 371.833H530.818V488.413H526.245V371.833Z" fill="#B7CCDA"/>
<path id="path50" d="M550.146 371.833H554.718V488.413H550.146V371.833Z" fill="#B7CCDA"/>
<path id="path52" d="M449.45 488.413H561.087V371.833H449.45V488.413ZM568.993 497.49H441.545V362.756H568.993V497.49Z" fill="#B7CCDA"/>
<path id="path54" d="M486.325 381.613H436.394V358.4H486.325V381.613Z" fill="#F8E6E1"/>
<path id="path56" d="M577.282 620.78H611.51V349.984H577.282V620.78Z" fill="#B7CCDA"/>
<path id="path58" d="M564.083 609.034H308.518V514.766H564.083V609.034Z" fill="#7A93A5"/>
<path id="path60" d="M317.566 519.305H322.138V604.495H317.566V519.305Z" fill="#B7CCDA"/>
<path id="path62" d="M338.622 519.305H343.194V604.495H338.622V519.305Z" fill="#B7CCDA"/>
<path id="path64" d="M359.678 519.305H364.251V604.495H359.678V519.305Z" fill="#B7CCDA"/>
<path id="path66" d="M380.735 519.305H385.307V604.495H380.735V519.305Z" fill="#B7CCDA"/>
<path id="path68" d="M401.791 519.305H406.363V604.495H401.791V519.305Z" fill="#B7CCDA"/>
<path id="path70" d="M422.849 519.305H427.421V604.495H422.849V519.305Z" fill="#B7CCDA"/>
<path id="path72" d="M443.904 519.305H448.476V604.495H443.904V519.305Z" fill="#B7CCDA"/>
<path id="path74" d="M464.961 519.305H469.534V604.495H464.961V519.305Z" fill="#B7CCDA"/>
<path id="path76" d="M486.018 519.305H490.59V604.495H486.018V519.305Z" fill="#B7CCDA"/>
<path id="path78" d="M507.074 519.305H511.647V604.495H507.074V519.305Z" fill="#B7CCDA"/>
<path id="path80" d="M528.131 519.305H532.703V604.495H528.131V519.305Z" fill="#B7CCDA"/>
<path id="path82" d="M549.187 519.305H553.759V604.495H549.187V519.305Z" fill="#B7CCDA"/>
<path id="path84" d="M312.471 604.495H560.13V519.305H312.471V604.495ZM568.035 613.571H304.566V510.227H568.035V613.571Z" fill="#B7CCDA"/>
<path id="path86" d="M349.346 529.085H299.417V505.872H349.346V529.085Z" fill="#F8E6E1"/>
<path id="path88" d="M213.766 612.847C223.269 592.773 251.966 481.981 222.818 475.9C208.898 478.494 201.189 507.862 196.173 519.956C196.357 499.838 183.015 408.529 153.763 417.769C140.642 423.858 150.699 470.658 149.378 485.4C140.734 469.949 106.189 428.034 87.2973 443.113C77.3396 453.202 109.112 499.056 113.943 513.532C66.0838 465.482 -5.0839 501.554 98.5682 558.798C82.7073 553.552 56.9177 552.386 52.515 572.712C52.7073 601.631 73.5942 616.658 97.7188 620.233H211.471L213.766 612.847Z" fill="#BDC892"/>
<path id="path90" d="M156.551 490.737C156.551 490.737 162.683 467.244 153.211 434.518C143.74 401.794 120.371 398.605 111.92 410.448C103.469 422.29 113.374 436.2 120.028 444.282C126.682 452.365 147.846 468.952 156.551 490.737Z" fill="#7EA78B"/>
<path id="path92" d="M126.528 511.709C126.528 511.709 119.872 473.773 103.255 451.158C86.6369 428.545 57.9999 444.606 62.9114 464.106C67.8234 483.606 109.571 488.101 126.528 511.709Z" fill="#7EA78B"/>
<path id="path94" d="M174.958 642.238C174.475 642.238 174.056 641.892 173.974 641.41C167.366 603.456 156.479 569.274 141.618 539.817C124.784 506.45 101.962 477.749 75.6171 456.817C75.1849 456.473 75.1135 455.845 75.4562 455.412C75.801 454.98 76.4297 454.906 76.8619 455.252C103.43 476.361 126.44 505.293 143.403 538.916C157.224 566.309 167.624 597.752 174.364 632.486C176.968 560.693 161.354 489.092 129.012 424.864C128.764 424.372 128.963 423.77 129.456 423.521C129.951 423.272 130.551 423.473 130.799 423.965C164.603 491.098 180.219 566.25 175.956 641.295C175.927 641.802 175.523 642.207 175.016 642.238C174.996 642.238 174.978 642.238 174.958 642.238Z" fill="#473220"/>
<path id="path96" d="M97.7188 620.233H616.684C616.684 620.233 564.347 684.482 357.202 684.482C150.056 684.482 97.7188 620.233 97.7188 620.233Z" fill="#F0C8B2"/>
<path id="path128" d="M581.66 622.728C581.703 623.829 579.587 625.888 577.958 627.302C568.436 618.582 553.067 606.902 542.416 599.053L542.774 598.553C542.774 598.553 544.875 596.165 547.506 592.062C556.684 599.882 581.603 621.269 581.66 622.728Z" fill="#F0C8B8"/>
<path id="path130" d="M577.958 627.302C581.017 630.076 583.462 632.564 584.977 634.522C584.977 634.522 585.491 640.141 578.701 641.685C576.942 638.797 575.699 634.265 575.699 634.265C575.699 634.265 569.137 628.504 553.839 616.252C538.543 603.999 524.747 592.792 524.747 592.792C527.993 591.418 530.522 590.404 530.522 590.404C530.522 590.404 535.469 593.921 542.417 599.053C553.067 606.902 568.437 618.582 577.958 627.302Z" fill="#F5DED0"/>
<path id="path132" d="M575.699 634.265C575.699 634.265 576.942 638.797 578.7 641.685C577.828 641.898 576.828 642.028 575.699 642.07C565.763 642.47 558.014 635.522 544.175 635.194C533.424 634.922 518.914 635.309 512.967 635.494C512.88 629.261 512.094 613.578 506.419 608.689C506.419 608.689 509.335 599.81 515.154 597.037C517.984 595.68 521.687 594.078 524.747 592.792C524.747 592.792 538.543 603.999 553.839 616.252C569.136 628.504 575.699 634.265 575.699 634.265Z" fill="#B23F21"/>
<path id="path134" d="M556.684 569.545C554.968 578.923 550.838 586.873 547.506 592.062C544.875 596.165 542.774 598.553 542.774 598.553L542.416 599.053C535.468 593.921 530.522 590.404 530.522 590.404C530.522 590.404 527.992 591.418 524.747 592.792C521.687 594.078 517.984 595.68 515.154 597.037C509.335 599.81 506.419 608.689 506.419 608.689C512.094 613.578 512.88 629.261 512.967 635.494C512.995 637.11 512.967 638.095 512.967 638.095C511.88 638.597 485.36 639.754 485.36 639.754C485.36 639.754 425.931 645.158 403.828 641.083C381.727 637.009 384.3 612.462 384.3 612.462C378.939 600.74 383.314 595.48 390.762 586.244C398.21 576.994 464.531 547.486 464.531 547.486C464.531 551.504 464.488 556.822 464.488 556.822C464.488 556.822 504.016 552.333 516.212 551.332C516.226 551.246 516.255 551.146 516.268 551.061L517.14 551.261C517.14 551.261 538.756 544.428 548.964 536.378C551.295 540.31 559.33 555.149 556.684 569.545Z" fill="#5E85A9"/>
<path id="path136" d="M419.14 418.192C419.468 420.922 420.183 431.586 412.65 438.162C409.062 434.746 405.259 432.173 405.058 432.043C411.448 429.142 419.612 423.824 419.14 418.192Z" fill="#473220"/>
<path id="path138" d="M412.65 438.162C414.065 439.493 415.451 440.965 416.567 442.481L415.895 442.624C414.309 443.81 412.106 443.724 410.177 443.296C408.233 442.852 406.331 442.124 404.358 442.166C399.741 442.252 396.009 446.484 391.406 446.698C389.018 446.812 386.731 445.826 384.629 444.725C382.513 443.61 380.441 442.352 378.11 441.837C375.794 441.308 373.093 441.68 371.491 443.438C369.703 441.38 369.69 438.349 370.061 435.646C370.433 432.96 371.062 430.172 370.262 427.569C369.39 424.696 366.802 422.222 367.174 419.249C367.545 416.189 370.862 414.26 371.605 411.286C371.891 410.142 371.762 408.928 371.477 407.798C370.547 404.052 367.902 400.564 368.446 396.746C368.975 393.086 372.206 390.542 374.75 387.869C378.367 384.066 380.926 379.292 382.113 374.173C382.642 371.9 383.057 369.284 384.986 367.954C386.173 367.14 387.703 367.01 389.147 366.91C391.934 366.71 394.694 366.51 397.467 366.31C401.013 365.496 404.573 364.666 408.118 363.852C409.947 363.45 411.849 363.036 413.694 363.437C415.981 363.937 417.811 365.609 419.855 366.768C422.229 368.112 424.959 368.784 427.675 368.697C429.962 368.626 432.35 368.04 434.494 368.841C437.111 369.813 438.611 372.529 439.685 375.117C440.77 377.69 441.786 380.506 444.045 382.15C446.589 384.024 450.391 384.109 452.265 386.653C453.851 388.826 453.337 391.829 453.109 394.517C452.879 397.076 452.979 399.677 453.409 402.222C453.566 403.18 453.794 404.166 454.338 404.981C455.367 406.497 457.311 407.082 458.613 408.369C462.173 411.844 459.699 418.392 461.871 422.652H461.886C461.871 422.666 461.886 422.666 461.886 422.666C457.926 424.41 454.623 427.884 450.321 428.213C448.434 428.356 446.618 427.87 444.817 427.241C442.429 426.397 440.055 425.297 437.554 425.068C433.465 424.71 429.619 426.712 426.074 428.885C425.387 427.684 424.83 426.44 424.659 425.068C424.502 423.624 424.787 422.18 424.845 420.736C424.93 418.449 424.415 416.146 423.343 414.13C426.074 411.457 428.89 407.397 427.618 402.794C425.487 395.102 419.126 393.086 415.294 397.461C413.179 397.218 411.234 396.118 409.662 394.674C408.09 393.23 406.846 391.457 405.645 389.698C405.087 388.884 404.515 388.04 403.658 387.554C402.857 387.082 401.899 386.982 400.97 387.01C398.067 387.097 395.009 388.284 392.349 387.097C391.049 386.51 390.047 385.41 389.075 384.352C388.218 383.394 387.346 382.436 386.487 381.478C386.23 381.978 382.042 390.085 382.085 393.201C382.127 396.418 382.77 399.464 382.642 400.378C382.513 401.293 376.251 410.357 376.451 411.157C376.638 411.972 379.439 415.032 382.427 414.274C382.427 414.274 384.271 430.729 385.945 433.517C387.603 436.318 396.281 435.589 403.029 432.902C403.671 432.645 404.358 432.358 405.058 432.044C405.259 432.173 409.062 434.746 412.65 438.162Z" fill="#473220"/>
<path id="path140" d="M492.323 558.166C494.295 540.31 496.183 522.854 496.083 521.853C495.926 520.181 475.052 498.75 466.804 490.33C471.736 488 486.99 480.365 494.367 471.802C500.743 480.309 523.474 510.83 523.903 514.505C524.118 516.392 520.443 533.033 516.268 551.061C510.951 573.977 504.818 599.153 504.818 599.153C505.075 602.141 504.531 605.201 503.546 608.145C500.6 616.923 493.667 624.658 491.708 626.373C489.078 628.661 486.747 631.792 486.347 635.823C486.232 636.923 485.86 638.31 485.36 639.754C484.074 643.571 481.972 647.732 481.972 647.732C479.742 648.361 478.684 645.658 478.684 645.658C478.684 645.658 477.198 648.232 475.71 647.646C474.223 647.045 473.723 636.909 473.723 636.909C473.723 636.909 472.736 640.783 471.736 644.058C470.75 647.346 467.218 647.546 466.675 646.245C466.132 644.958 466.675 641.283 466.675 641.283C464.688 643.571 460.556 643.671 461.4 640.483C462.243 637.31 466.032 620.569 466.475 617.938C466.918 615.293 487.934 597.166 487.934 597.166C487.934 597.166 490.178 577.437 492.323 558.166Z" fill="#D5826D"/>
<path id="path144" d="M426.074 428.885C429.619 426.712 433.464 424.71 437.554 425.068C440.055 425.297 442.428 426.397 444.816 427.241C432.222 437.234 436.667 453.302 436.667 453.302C436.51 463.925 425.831 469.601 425.831 469.601C425.831 469.601 422.428 457.877 419.97 450.172C419.498 448.67 419.054 447.326 418.683 446.241C418.254 444.997 417.51 443.724 416.567 442.481C415.451 440.965 414.064 439.493 412.65 438.162C420.183 431.586 419.468 420.922 419.14 418.192C419.14 418.177 419.14 418.162 419.14 418.148C419.14 418.034 419.126 417.934 419.098 417.82C419.068 417.633 419.054 417.533 419.054 417.533C419.054 417.533 421.17 416.261 423.343 414.13C424.415 416.146 424.93 418.449 424.844 420.736C424.787 422.18 424.502 423.624 424.659 425.068C424.83 426.44 425.387 427.684 426.074 428.885Z" fill="#D5826D"/>
<path id="path146" d="M423.343 414.13C421.17 416.261 419.054 417.533 419.054 417.533C419.054 417.533 419.068 417.633 419.098 417.82C419.111 417.905 419.126 418.02 419.14 418.148C419.14 418.162 419.14 418.177 419.14 418.192C419.612 423.824 411.448 429.142 405.058 432.044C404.358 432.358 403.671 432.645 403.028 432.902C396.28 435.589 387.603 436.318 385.944 433.517C384.271 430.729 382.427 414.274 382.427 414.274L382.642 400.378C382.77 399.464 382.127 396.418 382.084 393.201C382.042 390.085 386.23 381.978 386.487 381.478C387.346 382.436 388.218 383.394 389.075 384.352C390.047 385.41 391.048 386.51 392.348 387.097C395.008 388.284 398.067 387.097 400.97 387.01C401.899 386.982 402.856 387.082 403.658 387.554C404.515 388.04 405.087 388.884 405.644 389.698C406.846 391.457 408.09 393.23 409.662 394.674C411.234 396.118 413.179 397.218 415.294 397.461C419.126 393.086 425.487 395.102 427.618 402.794C428.89 407.397 426.074 411.457 423.343 414.13Z" fill="#D5826D"/>
<path id="path148" d="M410.304 507.429C406.344 505.783 396.738 501.438 392.65 496.52C389.432 492.661 387.002 486.913 385.63 483.068C384.758 480.68 384.3 479.036 384.3 479.036L415.895 442.624L416.567 442.481C417.51 443.724 418.254 444.997 418.683 446.241C419.054 447.326 419.498 448.67 419.97 450.172C419.97 450.172 418.783 482.953 421.112 497.793L412.05 508.143C412.05 508.143 411.391 507.899 410.304 507.429Z" fill="#8A59A8"/>
<path id="path150" d="M421.113 497.793C418.783 482.953 419.97 450.172 419.97 450.172C422.429 457.877 425.831 469.601 425.831 469.601C425.831 469.601 436.51 463.925 436.667 453.302C436.667 453.302 432.222 437.234 444.817 427.241C446.618 427.87 448.434 428.356 450.321 428.213C454.623 427.884 457.926 424.41 461.886 422.666C461.886 422.666 461.901 422.652 461.915 422.652H461.929C465.217 422.652 486.862 434.446 505.618 454.689C524.503 475.061 552.91 532.389 552.91 532.389C551.995 533.733 550.638 535.077 548.964 536.378C538.756 544.428 517.14 551.261 517.14 551.261L516.269 551.061C520.443 533.033 524.118 516.392 523.903 514.505C523.474 510.83 500.743 480.309 494.367 471.802C486.99 480.365 471.737 488 466.805 490.33C475.053 498.75 495.926 520.181 496.083 521.853C496.183 522.854 494.295 540.31 492.323 558.166C481.358 558.994 464.489 556.822 464.489 556.822C464.489 556.822 464.531 551.504 464.531 547.486C464.531 545.513 464.517 543.869 464.489 543.312C464.387 541.625 459.712 527.029 459.712 527.029C459.712 527.029 426.531 512.518 422.471 503.182C421.929 501.938 421.485 500.08 421.113 497.793Z" fill="#8A59A8"/>
<path id="path152" d="M393.002 402.946C393.002 404.745 391.732 406.204 390.167 406.204C388.602 406.204 387.332 404.745 387.332 402.946C387.332 401.146 388.602 399.688 390.167 399.688C391.732 399.688 393.002 401.146 393.002 402.946Z" fill="#473220"/>
<path id="path154" d="M387.141 392.814C389.595 393.02 391.913 393.642 394.141 394.688C394.543 394.876 394.886 395.392 394.999 395.804C395.123 396.25 395.067 396.846 394.811 397.242C394.554 397.641 394.171 397.993 393.695 398.101C393.181 398.218 392.733 398.136 392.255 397.913C392.135 397.857 392.014 397.805 391.894 397.752C390.537 397.197 389.121 396.814 387.67 396.606C387.494 396.586 387.318 396.565 387.141 396.55C386.638 396.508 386.187 396.37 385.821 396.002C385.497 395.678 385.253 395.148 385.274 394.682C385.315 393.74 386.099 392.726 387.141 392.814Z" fill="#473220"/>
<path id="path156" d="M406.859 410.889C406.859 412.825 404.146 414.393 400.798 414.393C397.451 414.393 394.738 412.825 394.738 410.889C394.738 408.954 397.451 407.386 400.798 407.386C404.146 407.386 406.859 408.954 406.859 410.889Z" fill="#BE4E36"/>
<path id="path158" d="M382.427 414.274C379.439 415.032 376.638 411.972 376.451 411.157C376.251 410.357 382.512 401.293 382.642 400.378L382.427 414.274Z" fill="#BE4E36"/>
<path id="girl_smile" d="M384.9 421.114C384.354 421.114 383.91 420.676 383.902 420.128C383.895 419.576 384.336 419.124 384.888 419.114C384.926 419.114 388.779 419.025 390.488 416.564C390.803 416.109 391.428 415.997 391.88 416.312C392.335 416.628 392.447 417.25 392.131 417.704C389.827 421.02 385.112 421.112 384.912 421.114C384.908 421.114 384.904 421.114 384.9 421.114Z" fill="#473220"/>
<path id="path162" d="M419.667 409.986C419.128 409.986 418.684 409.561 418.667 409.02C418.504 404.188 421.028 398.032 421.135 397.772C421.347 397.261 421.928 397.024 422.443 397.23C422.952 397.442 423.195 398.026 422.984 398.537C422.959 398.596 420.518 404.558 420.667 408.953C420.684 409.505 420.252 409.966 419.7 409.986C419.688 409.986 419.676 409.986 419.667 409.986Z" fill="#473220"/>
<path id="path164" d="M417.707 423.841C417.474 423.841 417.24 423.76 417.052 423.596C416.634 423.234 416.59 422.602 416.952 422.185C418.808 420.044 418.114 417.872 418.107 417.849C417.938 417.346 418.192 416.798 418.687 416.604C420.779 415.777 422.536 413.54 422.554 413.517C422.894 413.08 423.52 413.002 423.956 413.342C424.392 413.68 424.472 414.306 424.134 414.742C424.059 414.842 422.416 416.941 420.186 418.112C420.328 419.284 420.256 421.428 418.462 423.496C418.264 423.724 417.987 423.841 417.707 423.841Z" fill="#473220"/>
<path id="path166" d="M421.112 498.793C420.618 498.793 420.187 498.425 420.12 497.921C417.995 481.618 418.959 450.453 418.968 450.14C418.987 449.588 419.454 449.185 420 449.172C420.552 449.189 420.986 449.652 420.968 450.202C420.958 450.516 419.999 481.52 422.106 497.664C422.175 498.21 421.79 498.713 421.242 498.785C421.199 498.79 421.155 498.793 421.112 498.793Z" fill="#473220"/>
<path id="path168" d="M419.738 491.504C419.341 491.504 418.963 491.264 418.809 490.87L411.721 472.941C411.517 472.428 411.769 471.848 412.283 471.644C412.794 471.44 413.377 471.692 413.579 472.206L420.669 490.136C420.871 490.649 420.619 491.23 420.106 491.433C419.986 491.481 419.861 491.504 419.738 491.504Z" fill="#473220"/>
<path id="path170" d="M353.208 519.874C353.187 519.874 353.168 519.874 353.147 519.873C352.596 519.84 352.176 519.366 352.208 518.814C352.367 516.158 353.451 513.953 353.496 513.86C353.742 513.366 354.343 513.169 354.836 513.409C355.33 513.654 355.532 514.254 355.287 514.749C355.279 514.769 354.339 516.696 354.206 518.934C354.174 519.465 353.732 519.874 353.208 519.874Z" fill="#473220"/>
<path id="path172" d="M463.493 492.584C463.279 492.584 463.066 492.516 462.891 492.384C462.602 492.165 455.707 486.908 447.298 474.545C438.913 462.214 435.855 453.99 435.73 453.646C435.539 453.128 435.805 452.554 436.325 452.364C436.839 452.176 437.417 452.441 437.607 452.96C437.637 453.041 440.721 461.316 448.953 473.42C455.99 483.768 462.021 489.084 463.658 490.436C467.251 488.936 487.891 479.977 494.269 469.581L479.439 442.344C479.174 441.858 479.353 441.25 479.839 440.988C480.323 440.722 480.931 440.904 481.195 441.388L496.295 469.124C496.462 469.426 496.458 469.794 496.287 470.096C489.371 482.256 464.899 492.1 463.862 492.514C463.742 492.561 463.618 492.584 463.493 492.584Z" fill="#473220"/>
<path id="path174" d="M461.287 526.63C460.745 526.63 460.299 526.197 460.287 525.653C460.277 525.101 460.714 524.642 461.266 524.63L485.594 524.101C485.602 524.101 485.61 524.101 485.617 524.101C486.159 524.101 486.605 524.534 486.617 525.078C486.627 525.63 486.19 526.089 485.638 526.101L461.31 526.63C461.302 526.63 461.294 526.63 461.287 526.63Z" fill="#473220"/>
<path id="path176" d="M467.07 543.586C466.742 543.586 466.422 543.426 466.23 543.13C465.93 542.667 466.062 542.049 466.524 541.747L484.276 530.223C484.739 529.921 485.359 530.054 485.659 530.517C485.959 530.981 485.828 531.599 485.364 531.901L467.614 543.425C467.446 543.534 467.256 543.586 467.07 543.586Z" fill="#473220"/>
<path id="path178" d="M384.299 613.459C384.181 613.459 384.062 613.438 383.945 613.393C383.431 613.197 383.173 612.628 383.365 612.113C383.483 611.795 386.49 604.213 406.109 591.229C425.481 578.406 463.602 556.182 463.985 555.958C464.466 555.684 465.074 555.845 465.353 556.318C465.63 556.796 465.469 557.408 464.993 557.686C464.61 557.909 426.537 580.106 407.213 592.895C388.301 605.411 385.263 612.747 385.234 612.821C385.079 613.216 384.701 613.459 384.299 613.459Z" fill="#473220"/>
<path id="path180" d="M416.195 610.682C415.887 610.682 415.583 610.54 415.387 610.271C415.062 609.826 415.158 609.201 415.603 608.876C416.103 608.509 427.986 599.932 442.511 601.138C456.711 602.322 476.585 606.259 476.785 606.299C477.326 606.407 477.677 606.934 477.569 607.476C477.461 608.017 476.938 608.369 476.394 608.261C476.195 608.222 456.431 604.305 442.345 603.13C428.589 601.989 416.901 610.405 416.786 610.489C416.607 610.62 416.399 610.682 416.195 610.682Z" fill="#473220"/>
<path id="path182" d="M506.42 609.688C506.359 609.688 506.296 609.682 506.232 609.671L503.359 609.127C502.818 609.025 502.46 608.502 502.563 607.959C502.666 607.417 503.174 607.059 503.731 607.162L506.606 607.705C507.147 607.807 507.504 608.332 507.402 608.874C507.311 609.353 506.892 609.688 506.42 609.688Z" fill="#473220"/>
<path id="path184" d="M478.683 646.658C478.142 646.658 477.698 646.228 477.683 645.682C477.675 645.369 477.498 637.964 477.797 634.762C478.11 631.438 481.717 624.064 481.87 623.75C482.113 623.258 482.711 623.047 483.208 623.294C483.703 623.538 483.907 624.137 483.665 624.633C482.665 626.67 480.019 632.493 479.788 634.95C479.499 638.034 479.68 645.558 479.683 645.633C479.696 646.185 479.26 646.644 478.708 646.658C478.7 646.658 478.691 646.658 478.683 646.658Z" fill="#473220"/>
<path id="path186" d="M473.725 637.909C473.667 637.909 473.61 637.905 473.553 637.895C473.007 637.799 472.643 637.283 472.737 636.738C472.742 636.71 473.23 633.885 473.358 632.07C473.498 630.077 476.53 622.721 476.876 621.889C477.087 621.378 477.674 621.135 478.182 621.349C478.692 621.559 478.935 622.145 478.723 622.654C477.466 625.682 475.441 630.954 475.353 632.209C475.219 634.128 474.73 636.961 474.708 637.08C474.623 637.568 474.201 637.909 473.725 637.909Z" fill="#473220"/>
<path id="path188" d="M466.676 642.285C466.659 642.285 466.64 642.285 466.623 642.283C466.071 642.254 465.648 641.783 465.676 641.233C465.68 641.17 466.005 634.985 466.069 632.249C466.141 629.277 471.396 622.617 472.451 621.311C472.798 620.881 473.428 620.817 473.856 621.161C474.286 621.509 474.354 622.137 474.007 622.568C471.734 625.385 468.111 630.518 468.069 632.295C468.003 635.062 467.676 641.274 467.674 641.337C467.646 641.87 467.204 642.285 466.676 642.285Z" fill="#473220"/>
<path id="path190" d="M577.955 628.302C577.738 628.302 577.518 628.233 577.335 628.085L541.794 599.835C541.362 599.492 541.29 598.862 541.634 598.43C541.975 597.998 542.606 597.922 543.039 598.27L578.579 626.519C579.011 626.864 579.083 627.493 578.739 627.925C578.543 628.174 578.251 628.302 577.955 628.302Z" fill="#473220"/>
<path id="path192" d="M324.769 230.486C324.769 230.486 324.504 231.349 323.628 232.693C321.934 235.308 311.559 247.173 290.255 252.214C293.455 279.392 301.316 355.386 301.316 355.386C301.316 355.386 300.338 355.781 298.57 356.438C288.59 360.165 253.711 372.629 232.466 372.453C211.718 372.278 183.254 363.993 174.195 361.188C172.339 360.618 171.302 360.268 171.302 360.268C171.302 360.268 174.676 344.326 174.078 337.005C173.683 332.358 180.828 280.253 184.35 256.67C175.978 258.701 167.532 259.534 163.148 259.841C161.204 259.988 160.066 260.032 160.066 260.032C160.066 260.032 155.346 231.494 155.9 216.166C156.456 200.84 156.91 194.337 159.451 187.777C161.994 181.216 192.664 171.28 196.316 170.812C199.808 170.345 202.351 170.768 202.571 170.812C201.446 171.164 200.642 171.382 200.642 171.382C200.642 171.382 216.963 187.426 229.339 187.762C231.75 187.82 234.248 187.236 236.703 186.213C246.771 182.078 256.094 171.046 256.094 171.046C256.094 171.046 254.778 170.797 253.186 170.36V170.345C253.186 170.345 258.416 167.773 262.318 167.729C265.079 167.685 279.267 169.892 289.554 172.96C293.85 174.246 297.474 175.678 299.286 177.168C305.422 182.194 321.978 224.7 324.769 230.486Z" fill="#CA5353"/>
<path id="path194" d="M274.731 253.174C271.734 247.97 263.666 252.666 266.673 257.885C274.173 270.906 277.219 286.198 274.534 301.069C273.31 307.85 271.173 315.365 266.446 320.59C261.001 326.61 250.843 328.896 246.739 320.266C244.161 314.845 236.111 319.576 238.68 324.977C242.606 333.232 252.047 337.088 260.801 334.776C270.233 332.284 276.486 324.332 280.025 315.666C288.279 295.45 285.495 271.862 274.731 253.174Z" fill="#F0C8B2"/>
<path id="path196" d="M211.367 152.986C209.935 151.101 208.839 149.289 208.445 147.785C208.167 146.746 207.919 142.494 207.699 140.755C206.968 140.434 205.975 139.982 205.654 139.821C204.938 139.485 204.251 139.061 203.623 138.563C201.255 136.738 199.605 134.005 199.078 131.054C198.727 129.066 198.903 126.933 199.78 125.091C199.78 125.078 199.794 125.064 199.794 125.049C200.189 124.216 200.73 123.47 201.402 122.827C201.621 122.506 201.899 122.287 202.191 122.155C202.819 121.673 203.535 121.307 204.295 121.089C204.967 120.899 205.683 120.825 206.37 120.854H206.384C206.384 120.854 213.705 114.149 214.391 109.238C214.391 109.238 215.092 111.27 214.084 113.899C214.084 113.899 223.729 111.197 226.036 106.521C228.331 101.86 233.65 94.6128 239.027 95.4888C244.418 96.3661 248.978 101.378 250.234 107.31C251.695 112.438 252.149 118.692 252.294 120.854C252.397 120.854 252.499 120.854 252.586 120.854C253.201 120.854 253.799 120.927 254.368 121.089C255.128 121.307 255.845 121.673 256.487 122.155C256.78 122.287 257.043 122.506 257.277 122.827C257.934 123.47 258.475 124.216 258.87 125.049C259.775 126.904 259.951 129.052 259.586 131.054C259.074 134.005 257.423 136.738 255.055 138.563C254.413 139.061 253.741 139.485 253.01 139.821C252.718 139.982 251.754 140.376 250.979 140.682C250.761 142.452 250.511 146.733 250.234 147.785C249.679 149.888 247.735 152.621 245.427 155.25C241.862 159.313 237.419 163.126 235.973 164.018C233.591 165.494 229.339 165.61 229.339 165.61C229.339 165.61 225.087 165.494 222.691 164.018C220.982 162.952 215.063 157.793 211.367 152.986Z" fill="#E1977C"/>
<path id="path198" d="M231.287 121.188C231.287 121.188 229.154 128.496 229.336 133.472C229.519 138.448 230.306 140.174 230.306 140.174C230.306 140.174 237.076 138.042 236.448 135.644C235.819 133.245 231.287 121.188 231.287 121.188Z" fill="#D1684A"/>
<path id="path200" d="M318.587 628.551C318.587 628.551 311.515 633.33 300.294 633.534C289.071 633.738 279.443 629.034 279.443 629.034C279.559 628.026 279.706 626.974 279.866 625.907C279.866 625.907 298.276 612.961 317.871 625.322C318.163 626.433 318.412 627.514 318.602 628.551H318.587Z" fill="#F5DED0"/>
<path id="path202" d="M318.602 628.552C319.303 632.453 319.186 635.609 317.155 636.471C311.368 638.911 279.691 639.321 279.179 635.054C279.019 633.681 279.15 631.504 279.443 629.034C279.443 629.034 289.071 633.738 300.294 633.534C311.515 633.33 318.587 628.552 318.587 628.552H318.602Z" fill="#F5DED0"/>
<path id="path204" d="M173.639 638.37C164.624 638.37 151.562 638.37 151.562 638.37C151.562 638.37 150.304 636.471 149.311 633.914C149.311 633.914 157.552 634.981 173.362 633.271C173.362 633.271 176.226 632.686 180.566 631.737C190.267 629.604 207.348 625.557 216.115 621.83C215.984 623.978 215.882 625.366 215.882 625.366C209.102 629.91 173.639 638.37 173.639 638.37Z" fill="#F5DED0"/>
<path id="path206" d="M180.566 631.737C176.226 632.686 173.362 633.271 173.362 633.271C157.553 634.981 149.311 633.914 149.311 633.914C148.771 632.497 148.303 630.889 148.186 629.297C147.923 625.965 156.837 622.985 164.975 619.682C167.97 619.945 177.717 621.626 180.566 631.737Z" fill="#F5DED0"/>
<path id="path208" d="M313.094 609.059C313.151 611.252 316.177 618.704 317.871 625.322C298.277 612.961 279.866 625.907 279.866 625.907C280.553 621.435 281.562 616.73 282.219 614.334C283.008 611.514 283.212 606.502 283.242 603.302C289.306 604.092 298.686 604.734 304.355 602.353C307.847 600.877 310.566 599.197 312.582 597.692C312.743 600.688 313.021 606.254 313.094 609.059Z" fill="#B23F21"/>
<path id="path210" d="M216.218 603.595C216.73 608.65 216.379 617.068 216.115 621.83C207.348 625.557 190.267 629.604 180.566 631.737C177.716 621.626 167.97 619.945 164.975 619.682C167.766 618.557 170.468 617.389 172.69 616.161C178.227 613.093 183.108 606.634 185.899 602.382C189.23 604.004 194.943 606.152 202.206 606.21C207.699 606.254 212.579 604.983 216.218 603.595Z" fill="#B23F21"/>
<path id="path212" d="M283.242 603.302C279.75 602.85 277.352 602.353 277.352 602.353L260.287 492.473L237.536 389.914L224.912 494.417L222.924 600.322C222.924 600.322 220.382 602.032 216.218 603.595C212.579 604.983 207.699 606.254 202.206 606.21C194.943 606.152 189.23 604.004 185.899 602.382C183.839 601.345 182.699 600.526 182.699 600.526C181.282 587.318 174.384 491.874 174.384 491.874C174.384 491.874 171.331 455.813 171.302 426.064C171.272 400.756 173.523 369.853 174.195 361.188C183.254 363.993 211.718 372.278 232.466 372.453C253.711 372.629 288.59 360.165 298.57 356.438C300.03 371.752 308.359 460.168 308.827 470.644C309.323 482.129 317.155 593.41 317.155 593.41C317.155 593.41 315.723 595.34 312.582 597.692C310.566 599.197 307.847 600.877 304.355 602.353C298.686 604.734 289.306 604.092 283.242 603.302Z" fill="#4A618D"/>
<path id="path214" d="M245.631 156.449C245.631 156.449 241.116 175.882 227.951 171.893C217.912 168.839 212.886 160.218 211.075 156.302C211.191 155.09 211.294 153.95 211.367 152.986C215.063 157.793 220.982 162.951 222.691 164.018C225.087 165.494 229.339 165.61 229.339 165.61C229.339 165.61 233.591 165.494 235.972 164.018C237.419 163.126 241.862 159.313 245.427 155.25C245.484 155.557 245.558 155.966 245.631 156.449Z" fill="#473220"/>
<path id="path216" d="M259.206 112.468C258.84 116.106 257.276 122.827 257.276 122.827C257.043 122.506 256.78 122.287 256.487 122.155C255.844 121.673 255.128 121.307 254.368 121.089C253.799 120.927 253.2 120.854 252.586 120.854C252.499 120.854 252.396 120.854 252.294 120.854C252.148 118.692 251.695 112.438 250.234 107.31C248.978 101.378 244.418 96.3662 239.027 95.4888C233.65 94.6128 228.331 101.86 226.036 106.521C223.728 111.197 214.084 113.899 214.084 113.899C215.092 111.27 214.391 109.238 214.391 109.238C213.704 114.149 206.384 120.854 206.384 120.854H206.37C205.683 120.825 204.967 120.899 204.295 121.089C203.535 121.307 202.819 121.673 202.191 122.155C201.899 122.287 201.62 122.506 201.402 122.827C200.73 123.47 200.188 124.216 199.794 125.049C199.794 125.064 199.78 125.078 199.78 125.091C198.45 122.243 196.463 117.406 196.858 114.645C197.427 110.554 198.552 99.4195 204.85 92.3768C211.132 85.3342 223.802 82.3089 229.616 82.3089C235.447 82.3089 246.303 87.9062 246.303 87.9062C246.303 87.9062 252.294 88.6942 255.684 91.6315C259.074 94.5835 259.571 108.816 259.206 112.468Z" fill="#473220"/>
<path id="path218" d="M253.186 170.36C254.778 170.797 256.094 171.046 256.094 171.046C256.094 171.046 246.771 182.078 236.703 186.213C234.249 187.236 231.75 187.82 229.339 187.762C216.963 187.426 200.642 171.382 200.642 171.382C200.642 171.382 201.446 171.164 202.571 170.812C202.586 170.812 202.586 170.812 202.586 170.812C204.997 170.052 208.883 168.737 209.453 167.861C209.95 167.101 210.607 161.125 211.075 156.302C212.886 160.218 217.913 168.84 227.951 171.893C241.117 175.882 245.631 156.449 245.631 156.449C246.173 159.693 247.326 166.194 247.897 167.657C248.349 168.796 251.023 169.745 253.186 170.36Z" fill="#E1977C"/>
<path id="path220" d="M298.6 258.28C299.26 255.272 299.32 256.953 300.471 249.017C313.626 243.77 321.347 235.617 323.628 232.693C323.628 232.693 329.415 267.172 329.263 269.741C329.096 272.308 326.796 277.621 321.875 282.557C318.576 285.89 303.735 289.033 287.55 290.621C279.722 291.401 271.575 291.801 264.264 291.702C241.867 291.365 235.827 289.824 231.395 289.845C226.98 289.854 212.239 289.852 210.624 288.024C209.026 286.182 207.134 279.826 207.134 279.826L203.896 276.433C210.727 270.974 219.604 263.568 228.636 255.926C230.666 257.704 234.203 260.845 235.44 262.464C235.44 262.464 239.862 264.568 244.116 266.232C246.143 267.04 248.15 267.729 249.616 268.064L298.6 258.28Z" fill="#E1977C"/>
<path id="path222" d="M303.67 252.365C306.568 247.282 306.759 241.629 306.61 235.925C306.595 235.373 303.547 215.3 297.524 206.945C297.29 206.618 297.242 206.298 297.31 206.013C297.14 205.836 296.979 205.662 296.828 205.49C296.028 207.037 294.482 208.984 292.362 210.904C291.615 211.584 290.815 212.237 289.935 212.877C285.135 216.397 272.575 226.93 270.028 229.264C269.135 230.104 252.938 246.486 241.311 258.353C241.738 259.46 242.218 260.673 242.724 261.913C245.631 268.966 259.242 266.89 266.842 267.344C270.362 267.544 274.442 267.597 278.762 267.25C286.036 266.673 292.214 263.786 296.212 261.392C298.763 258.429 301.72 255.784 303.67 252.365Z" fill="#F0C8B2"/>
<path id="path226" d="M251.347 181.021L270.606 186.617C270.123 187.289 269.802 187.961 269.7 188.605C269.086 192.608 263.943 207.146 262.526 209.12C262.028 209.806 255.395 214.438 246.979 220.209C246.979 220.209 241.806 212.406 241.396 202.69C241.032 193.865 249.535 183.198 251.099 181.313C251.26 181.124 251.347 181.021 251.347 181.021Z" fill="#F0C8B2"/>
<path id="path228" d="M228.318 141.837C227.823 141.837 227.394 141.469 227.328 140.965C227.258 140.417 227.644 139.916 228.191 139.845C230.612 139.532 232.932 138.572 234.9 137.068C235.61 136.525 235.808 135.493 235.372 134.613C233.008 129.833 231.146 124.791 229.836 119.633C229.7 119.098 230.024 118.554 230.559 118.418C231.096 118.284 231.638 118.606 231.775 119.141C233.05 124.163 234.863 129.072 237.166 133.726C238.023 135.461 237.582 137.534 236.115 138.655C233.868 140.373 231.218 141.47 228.448 141.827C228.404 141.834 228.362 141.837 228.318 141.837Z" fill="#473220"/>
<path id="path230" d="M223.326 124.17C223.326 126.249 221.859 127.934 220.051 127.934C218.243 127.934 216.778 126.249 216.778 124.17C216.778 122.092 218.243 120.408 220.051 120.408C221.859 120.408 223.326 122.092 223.326 124.17Z" fill="#473220"/>
<path id="path232" d="M243.928 124.17C243.928 126.249 242.462 127.934 240.654 127.934C238.846 127.934 237.379 126.249 237.379 124.17C237.379 122.092 238.846 120.408 240.654 120.408C242.462 120.408 243.928 122.092 243.928 124.17Z" fill="#473220"/>
<path id="path234" d="M221.514 112.468C218.679 112.706 216.003 113.425 213.428 114.632C212.964 114.849 212.568 115.445 212.436 115.921C212.295 116.437 212.359 117.125 212.654 117.582C212.951 118.044 213.394 118.449 213.943 118.574C214.539 118.71 215.055 118.616 215.606 118.357C215.744 118.292 215.886 118.233 216.024 118.17C217.592 117.53 219.228 117.089 220.903 116.848C221.107 116.825 221.31 116.8 221.514 116.782C222.095 116.734 222.615 116.576 223.039 116.152C223.414 115.777 223.695 115.164 223.671 114.625C223.622 113.537 222.718 112.366 221.514 112.468Z" fill="#473220"/>
<path id="path236" d="M237.158 112.468C239.993 112.706 242.67 113.425 245.243 114.632C245.707 114.849 246.103 115.445 246.235 115.921C246.378 116.437 246.313 117.125 246.018 117.582C245.721 118.044 245.278 118.449 244.729 118.574C244.134 118.71 243.617 118.616 243.066 118.357C242.927 118.292 242.787 118.233 242.647 118.17C241.079 117.53 239.445 117.089 237.769 116.848C237.565 116.825 237.362 116.8 237.158 116.782C236.578 116.734 236.057 116.576 235.633 116.152C235.259 115.777 234.977 115.164 235.001 114.625C235.05 113.537 235.954 112.366 237.158 112.468Z" fill="#473220"/>
<path id="path238" d="M236.339 148.877C235.39 150.637 232.991 153.797 228.245 153.002C223.913 152.294 222.842 148.29 222.601 146.219C222.514 145.581 223.083 145.064 223.705 145.184L235.683 147.549C236.305 147.669 236.633 148.342 236.339 148.877Z" fill="white"/>
<path id="path240" d="M205.731 137.774C205.718 137.774 205.706 137.774 205.693 137.773C205.141 137.753 204.71 137.289 204.731 136.735C204.924 131.63 201.755 126.279 201.723 126.226C201.438 125.751 201.593 125.138 202.066 124.854C202.538 124.567 203.153 124.723 203.438 125.197C203.582 125.435 206.946 131.118 206.73 136.811C206.71 137.351 206.266 137.774 205.731 137.774Z" fill="#473220"/>
<path id="path242" d="M252.936 136.643C252.402 136.643 251.958 136.221 251.938 135.682C251.722 129.987 255.086 124.305 255.23 124.066C255.513 123.591 256.124 123.437 256.6 123.724C257.074 124.006 257.229 124.621 256.946 125.094C256.914 125.147 253.743 130.514 253.936 135.606C253.956 136.157 253.527 136.622 252.975 136.643C252.962 136.643 252.95 136.643 252.936 136.643Z" fill="#473220"/>
<path id="path244" d="M285.906 183.12C285.766 183.372 285.582 183.629 285.355 183.884C285.294 183.952 285.231 184.02 285.16 184.086C285.062 184.196 284.943 184.308 284.82 184.41C284.678 184.55 284.514 184.676 284.347 184.809C284.326 184.821 284.317 184.826 284.305 184.84C284.107 184.99 283.902 185.138 283.688 185.285C283.542 185.381 283.384 185.482 283.228 185.576C283.031 185.7 282.827 185.814 282.612 185.934C282.439 186.03 282.268 186.12 282.084 186.222C281.964 186.284 281.834 186.349 281.698 186.405C279.695 187.385 277.163 188.233 274.405 188.786C274.086 188.85 273.77 188.906 273.443 188.969C273.119 189.023 272.794 189.078 272.464 189.122C272.131 189.174 271.803 189.21 271.474 189.254L269.691 189.421C269.324 189.446 268.956 189.472 268.584 189.478C268.556 189.488 268.539 189.49 268.515 189.484C268.186 189.494 267.848 189.502 267.522 189.503C267.511 189.51 267.495 189.505 267.479 189.501C267.307 189.504 267.126 189.504 266.956 189.498C266.392 189.486 265.83 189.473 265.276 189.428C265.184 189.42 265.09 189.418 264.998 189.41C264.294 189.348 263.596 189.264 262.908 189.146C262.868 189.134 262.818 189.129 262.779 189.118C262.426 189.061 262.076 188.989 261.73 188.908C261.366 188.83 261.006 188.737 260.655 188.638C260.306 188.539 259.95 188.43 259.599 188.306C259.262 188.193 258.926 188.073 258.595 187.937C258.555 187.925 258.518 187.906 258.47 187.893C257.823 187.633 257.183 187.341 256.551 187.025C256.471 186.976 256.388 186.936 256.304 186.894C255.811 186.636 255.323 186.36 254.835 186.077C254.688 185.992 254.534 185.897 254.388 185.803C254.095 185.627 253.804 185.442 253.515 185.249C253.494 185.234 253.48 185.221 253.458 185.206C253.146 185.006 252.846 184.793 252.544 184.58L251.114 183.505C250.855 183.295 250.595 183.093 250.339 182.874C250.08 182.664 249.832 182.448 249.584 182.232C249.338 182.008 249.098 181.794 248.86 181.573C246.806 179.662 245.09 177.622 243.89 175.729C243.803 175.61 243.726 175.486 243.655 175.371C243.551 175.195 243.454 175.022 243.356 174.849C243.236 174.634 243.122 174.43 243.019 174.221C242.935 174.061 242.854 173.892 242.779 173.733C242.662 173.477 242.559 173.233 242.466 172.984C242.394 172.782 242.32 172.59 242.271 172.396C242.22 172.244 242.179 172.086 242.151 171.941C242.126 171.848 242.108 171.757 242.091 171.666C242.031 171.332 242.008 171.016 242.022 170.728C242.24 166.153 249.887 152.572 249.887 152.572C249.887 152.572 250.035 151.866 250.286 150.796C250.332 150.602 250.382 150.393 250.435 150.176C250.508 149.854 250.592 149.5 250.684 149.14C251.194 147.093 251.896 144.544 252.638 142.709L252.63 142.706C252.688 142.561 252.747 142.413 252.808 142.285C252.823 142.237 252.844 142.192 252.863 142.154C252.939 141.978 253.02 141.813 253.099 141.654C253.099 141.654 253.099 141.654 253.102 141.646C253.178 141.497 253.255 141.346 253.335 141.214C253.356 141.169 253.375 141.132 253.404 141.088C253.502 140.926 253.6 140.792 253.694 140.672L253.704 140.666C253.812 140.525 253.92 140.418 254.035 140.346L254.043 140.349C255.879 139.228 264.576 148.57 264.576 148.57C264.576 148.57 268.628 149.397 271.507 150.21C274.386 151.024 278.271 152.437 278.271 152.437C278.271 152.437 290.6 149.006 291.548 150.94L291.556 150.942C291.618 151.062 291.654 151.21 291.672 151.388C291.672 151.388 291.67 151.394 291.678 151.397C291.695 151.547 291.708 151.716 291.706 151.904C291.703 151.945 291.706 151.997 291.7 152.048C291.699 152.202 291.686 152.37 291.674 152.538C291.671 152.546 291.671 152.546 291.671 152.546C291.655 152.722 291.638 152.906 291.61 153.096C291.607 153.137 291.594 153.185 291.588 153.236C291.574 153.377 291.547 153.533 291.52 153.689L291.512 153.686C291.184 155.637 290.45 158.178 289.814 160.188C289.704 160.544 289.592 160.881 289.484 161.202C289.415 161.415 289.35 161.62 289.287 161.809C288.94 162.853 288.698 163.53 288.698 163.53C288.698 163.53 288.104 179.104 285.906 183.12Z" fill="#F0C8B2"/>
<path id="path246" d="M264.234 175.485C266.15 176.025 268.474 173.501 268.474 173.501C266.328 171.41 261.658 171.576 261.658 171.576C261.658 171.576 262.319 174.944 264.234 175.485ZM276.596 180.598C278.703 184.184 271.591 188.824 271.591 188.824L271.643 189.242C270.994 189.324 270.351 189.386 269.694 189.424C266.608 189.644 263.475 189.438 260.656 188.642C257.288 187.69 253.984 185.793 251.116 183.52C251.116 183.52 247.486 175.834 251.155 173.881C254.815 171.924 259.872 169.789 260.563 169.221C261.263 168.654 264.028 157.325 269.095 158.756C274.163 160.188 270.719 170.846 271.019 171.696C271.308 172.552 274.502 177.016 276.596 180.598Z" fill="#F5DED0"/>
<path id="path248" d="M277.358 167.09C278.487 167.409 279.046 168.882 278.624 170.375C278.203 171.867 276.959 172.821 275.828 172.502C274.71 172.186 274.147 170.723 274.568 169.23C274.99 167.737 276.238 166.774 277.358 167.09Z" fill="#473220"/>
<path id="path250" d="M268.474 173.501C268.474 173.501 266.15 176.025 264.234 175.485C262.319 174.944 261.658 171.576 261.658 171.576C261.658 171.576 266.329 171.41 268.474 173.501Z" fill="#473220"/>
<path id="path252" d="M257.003 160.909C258.123 161.225 258.686 162.687 258.26 164.19C257.839 165.683 256.595 166.637 255.475 166.321C254.346 166.001 253.783 164.538 254.204 163.045C254.628 161.542 255.874 160.59 257.003 160.909Z" fill="#473220"/>
<path id="path254" d="M258.875 149.773C255.148 149.865 251.594 152.012 251.594 152.012C251.594 152.012 253.946 142.368 255.018 142.554C256.088 142.74 258.875 149.773 258.875 149.773Z" fill="#D1684A"/>
<path id="path256" d="M266.278 181.39C266.128 181.39 265.991 181.372 265.867 181.334C265.148 181.116 264.442 180.202 263.759 178.613C262.884 179.309 261.708 179.964 260.686 179.573C259.375 179.073 257.698 176.72 257.215 176.012C256.904 175.554 257.022 174.933 257.479 174.622C257.935 174.313 258.558 174.43 258.868 174.885C259.676 176.07 260.914 177.518 261.398 177.704C261.399 177.704 261.4 177.704 261.402 177.704C261.707 177.704 262.707 176.977 263.424 176.192C263.663 175.93 264.02 175.814 264.367 175.888C264.712 175.958 264.995 176.208 265.11 176.542C265.512 177.716 266.114 178.968 266.454 179.369C266.998 179.208 268.307 178.414 269.44 177.549C269.878 177.213 270.507 177.297 270.842 177.736C271.176 178.174 271.094 178.801 270.655 179.137C268.698 180.634 267.23 181.39 266.278 181.39Z" fill="#473220"/>
<path id="path258" d="M282.554 156.458C285.683 158.487 287.59 162.175 287.59 162.175C287.59 162.175 290.628 152.725 289.618 152.323C288.607 151.922 282.554 156.458 282.554 156.458Z" fill="#D1684A"/>
<path id="path260" d="M220.051 134.31C220.051 136.005 217.87 137.378 215.178 137.378C212.485 137.378 210.303 136.005 210.303 134.31C210.303 132.616 212.485 131.242 215.178 131.242C217.87 131.242 220.051 132.616 220.051 134.31Z" fill="#D1684A"/>
<path id="path262" d="M248.802 134.31C248.802 136.005 246.621 137.378 243.929 137.378C241.237 137.378 239.054 136.005 239.054 134.31C239.054 132.616 241.237 131.242 243.929 131.242C246.621 131.242 248.802 132.616 248.802 134.31Z" fill="#D1684A"/>
<path id="path264" d="M234.971 388.071C234.907 388.071 234.843 388.066 234.779 388.053L191.452 379.658C190.91 379.553 190.555 379.027 190.66 378.486C190.764 377.943 191.284 377.581 191.832 377.694L235.159 386.089C235.702 386.194 236.056 386.719 235.951 387.261C235.859 387.738 235.44 388.071 234.971 388.071Z" fill="#473220"/>
<path id="path266" d="M226.982 389.966H206.536C205.983 389.966 205.536 389.518 205.536 388.966C205.536 388.414 205.983 387.966 206.536 387.966H226.982C227.534 387.966 227.982 388.414 227.982 388.966C227.982 389.518 227.534 389.966 226.982 389.966Z" fill="#473220"/>
<path id="path268" d="M240.311 388.071C239.878 388.071 239.478 387.787 239.351 387.349C239.198 386.818 239.503 386.263 240.034 386.11L276.53 375.549C277.058 375.401 277.614 375.7 277.767 376.233C277.922 376.762 277.616 377.317 277.086 377.47L240.59 388.031C240.496 388.058 240.403 388.071 240.311 388.071Z" fill="#473220"/>
<path id="path270" d="M206.615 247.11C206.138 247.11 205.715 246.768 205.631 246.282L201.595 223.141C201.501 222.597 201.865 222.08 202.409 221.985C202.953 221.889 203.471 222.253 203.564 222.797L207.6 245.938C207.696 246.482 207.333 247 206.787 247.096C206.73 247.105 206.672 247.11 206.615 247.11Z" fill="#473220"/>
<path id="path280" d="M244.782 204.706C244.782 204.706 236.557 212.505 236.455 215.009C236.354 217.514 237.311 223 240.167 224.844C243.022 226.688 246.001 227.805 248.979 226.857C251.958 225.909 254.903 219.038 253.515 215.704C253.515 215.704 253.718 198.533 244.782 204.706Z" fill="#F0C8B2"/>
<path id="path282" d="M273.554 207.934C273.554 212.814 269.856 216.769 265.295 216.769C260.734 216.769 257.035 212.814 257.035 207.934C257.035 203.056 260.734 199.1 265.295 199.1C269.856 199.1 273.554 203.056 273.554 207.934Z" fill="#F0C8B2"/>
<path id="path284" d="M236.454 216.009C235.938 216.009 235.499 215.612 235.458 215.088C235.21 211.926 240.02 207.802 241.199 206.844C242.672 203.364 244.162 195.705 244.176 195.628C244.282 195.084 244.808 194.73 245.347 194.834C245.89 194.94 246.244 195.464 246.14 196.006C246.075 196.344 244.528 204.3 242.93 207.876C242.864 208.024 242.764 208.153 242.638 208.253C240.404 210.018 237.32 213.258 237.452 214.932C237.495 215.481 237.084 215.962 236.534 216.006C236.507 216.008 236.48 216.009 236.454 216.009Z" fill="#473220"/>
<path id="path286" d="M253.515 216.702C253.138 216.702 252.776 216.488 252.607 216.124C252.594 216.096 251.267 213.292 248.494 211.754C248.011 211.486 247.836 210.878 248.104 210.394C248.372 209.91 248.982 209.737 249.464 210.005C252.827 211.869 254.36 215.148 254.424 215.286C254.654 215.788 254.434 216.38 253.934 216.61C253.798 216.673 253.655 216.702 253.515 216.702Z" fill="#473220"/>
<path id="path288" d="M258.04 213.16C257.568 213.16 257.148 212.825 257.059 212.345C256.982 211.938 255.251 202.376 260.196 199.733C264.767 197.292 266.675 197.97 267.012 198.13C267.51 198.369 267.722 198.966 267.483 199.464C267.246 199.962 266.648 200.172 266.15 199.934C266.16 199.945 266.055 199.912 265.82 199.912C265.22 199.912 263.76 200.097 261.139 201.497C258.104 203.12 258.584 209.612 259.024 211.977C259.126 212.518 258.768 213.042 258.226 213.142C258.163 213.154 258.102 213.16 258.04 213.16Z" fill="#473220"/>
<path id="path290" d="M270.605 268.501C270.522 268.501 270.438 268.49 270.354 268.469C270.042 268.388 262.717 266.298 260.857 250.125C258.997 233.941 276.659 224.853 276.838 224.764C277.33 224.516 277.931 224.713 278.179 225.206C278.429 225.7 278.23 226.3 277.737 226.549C277.571 226.633 261.143 235.109 262.843 249.897C264.529 264.545 270.807 266.518 270.87 266.537C271.397 266.689 271.709 267.237 271.565 267.765C271.442 268.208 271.043 268.501 270.605 268.501Z" fill="#473220"/>
<path id="path292" d="M159.897 635.516C153.874 635.516 149.531 634.953 149.178 634.905C148.631 634.833 148.247 634.33 148.321 633.782C148.394 633.234 148.898 632.844 149.445 632.923C149.613 632.944 166.524 635.133 180.264 630.785C180.79 630.611 181.352 630.909 181.519 631.435C181.686 631.962 181.394 632.523 180.867 632.69C173.751 634.944 165.97 635.516 159.897 635.516Z" fill="#473220"/>
<path id="path294" d="M300.294 634.534C288.753 634.534 279.403 630.125 279.011 629.937C278.513 629.698 278.303 629.101 278.541 628.604C278.778 628.106 279.375 627.894 279.874 628.131C279.966 628.177 289.223 632.534 300.294 632.534C311.245 632.534 317.949 627.79 318.015 627.741C318.462 627.418 319.087 627.518 319.411 627.965C319.734 628.411 319.635 629.035 319.19 629.359C318.898 629.571 311.93 634.534 300.294 634.534Z" fill="#473220"/>
<path id="path296" d="M182.948 618.19C182.552 617.453 182.132 616.721 181.534 616.125C181.012 615.605 180.386 615.182 179.722 614.865C178.379 614.219 176.92 613.919 175.463 613.661C175.075 613.592 174.676 613.765 174.564 614.17C174.467 614.523 174.684 614.999 175.075 615.069C176.359 615.297 177.698 615.529 178.89 616.081C179.447 616.34 179.98 616.658 180.426 617.085C180.974 617.61 181.331 618.265 181.687 618.928C182.132 619.757 183.394 619.019 182.948 618.19Z" fill="#F5DED0"/>
<path id="path298" d="M187.824 614.566C185.991 612.134 183.572 610.293 180.59 609.537C179.678 609.305 179.288 610.714 180.2 610.945C182.794 611.604 184.96 613.178 186.562 615.304C186.799 615.618 187.194 615.781 187.562 615.566C187.872 615.385 188.063 614.883 187.824 614.566Z" fill="#F5DED0"/>
<path id="path300" d="M195.972 606.815C195.224 607.522 194.107 607.771 193.136 607.999C190.895 608.525 188.6 608.657 186.311 608.481C187.38 606.869 188.876 605.601 190.636 604.793C192.102 604.12 194.459 603.398 195.978 604.29C196.987 604.885 196.716 606.113 195.972 606.815ZM181.723 604.309C181.087 603.604 180.51 602.847 180.034 602.025C179.627 601.323 179.082 600.419 179.164 599.571C179.267 598.498 180.771 599.35 181.307 599.698C182.079 600.201 182.711 600.911 183.195 601.692C184.214 603.339 184.571 605.286 184.827 607.193C183.74 606.287 182.672 605.359 181.723 604.309ZM197.396 603.562C195.775 601.865 192.786 602.411 190.846 603.135C189.031 603.814 187.44 604.905 186.162 606.32C185.834 604.171 185.316 602.041 183.987 600.274C182.982 598.939 180.058 596.422 178.336 598.009C176.699 599.519 178.432 602.371 179.395 603.73C180.904 605.865 182.922 607.545 184.936 609.182C185.047 609.273 185.166 609.314 185.284 609.335C185.356 609.627 185.574 609.887 185.95 609.922C188.967 610.198 192.308 610.018 195.167 608.932C196.331 608.49 197.383 607.765 197.871 606.581C198.288 605.566 198.174 604.375 197.396 603.562Z" fill="#F5DED0"/>
<path id="path302" d="M305.21 614.844C301.496 613.066 297.279 612.622 293.282 613.622C292.37 613.85 292.756 615.259 293.67 615.032C297.268 614.131 301.123 614.502 304.472 616.105C305.316 616.509 306.059 615.249 305.21 614.844Z" fill="#F5DED0"/>
<path id="path304" d="M303.97 608.592C300.664 607.799 297.184 607.929 293.955 608.994C293.067 609.288 293.447 610.699 294.344 610.404C297.33 609.418 300.52 609.268 303.582 610.001C304.495 610.219 304.886 608.811 303.97 608.592Z" fill="#F5DED0"/>
<path id="path306" d="M305.483 602.13C304.462 602.634 303.387 603.025 302.285 603.313C301.743 603.454 301.178 603.605 300.621 603.665C301.803 601.899 303.238 600.32 304.903 598.998C305.698 598.368 306.547 597.804 307.43 597.302C307.863 597.056 308.501 596.607 309.022 596.678C309.535 596.747 309.843 597.318 309.911 597.781C310.211 599.823 306.953 601.405 305.483 602.13ZM291.394 605.873C290.319 605.93 289.243 605.844 288.199 605.575C287.317 605.349 285.609 604.854 285.082 604.011C284.086 602.422 288.989 601.322 289.926 601.235C291.791 601.064 293.711 601.365 295.414 602.156C296.242 602.541 297.029 603.035 297.713 603.639C297.79 603.706 297.861 603.783 297.935 603.856C295.901 604.917 293.705 605.753 291.394 605.873ZM309.822 595.407C308.833 594.966 307.83 595.414 306.949 595.897C305.949 596.444 305.001 597.082 304.102 597.783C302.197 599.27 300.575 601.062 299.25 603.08C299.206 603.037 299.169 603.001 299.121 602.954C296.579 600.464 292.85 599.368 289.351 599.841C287.638 600.071 285.706 600.666 284.394 601.841C283.777 602.394 283.313 603.186 283.502 604.042C283.705 604.958 284.55 605.546 285.314 605.981C289.689 608.474 294.883 607.181 299.05 604.93C299.075 604.917 299.086 604.895 299.11 604.88C299.371 605.042 299.651 605.17 299.994 605.185C300.925 605.223 301.935 604.922 302.825 604.682C303.945 604.38 305.035 603.962 306.079 603.459C307.826 602.618 309.963 601.417 310.933 599.658C311.719 598.229 311.445 596.133 309.822 595.407Z" fill="#F5DED0"/>
<path id="path310" d="M251.416 274.361C250.95 274.361 250.533 274.032 250.437 273.557C249.655 269.646 248.955 268.818 248.926 268.784C248.487 268.45 248.445 267.86 248.778 267.421C249.113 266.981 249.783 266.933 250.222 267.268C250.575 267.536 251.495 268.648 252.398 273.165C252.507 273.706 252.155 274.233 251.614 274.341C251.547 274.354 251.482 274.361 251.416 274.361Z" fill="#473220"/>
<path id="path312" d="M253.515 268.502C253.248 268.502 252.982 268.397 252.786 268.186C242.647 257.381 247.263 251.175 247.466 250.915C247.804 250.479 248.432 250.403 248.87 250.741C249.302 251.078 249.382 251.701 249.05 252.137C248.883 252.363 245.383 257.374 254.244 266.818C254.622 267.221 254.602 267.854 254.199 268.231C254.007 268.413 253.76 268.502 253.515 268.502Z" fill="#473220"/>
<path id="path314" d="M312.235 649.693C312.135 650.157 311.695 650.634 310.842 651.123C303.51 655.242 289.638 652.48 287.666 651.123C286.084 650.032 285.658 643.817 285.556 638.846C285.532 637.628 285.519 636.473 285.519 635.494C285.519 630.547 279.38 627.697 278.866 625.576C278.351 623.454 283.511 606.028 283.774 596.813C283.812 595.005 281.942 584.986 280.698 578.721L289.21 573.989C290.352 573.498 291.444 572.946 292.475 572.344C302.807 566.18 307.566 553.6 309.65 540.63L309.662 540.618C304.339 573.134 299.128 589.154 298.827 597.152C298.438 607.483 298.35 615.758 298.776 622.676C299.066 627.685 299.631 631.978 300.51 635.833C302.33 643.717 312.888 646.868 312.235 649.693Z" fill="#AC5F43"/>
<path id="path318" d="M259.046 559.28C259.363 563.388 259.834 567.49 260.259 571.553C260.762 576.374 261.339 581.194 262.18 585.965C262.619 588.426 263.071 590.95 263.799 593.359C264.063 594.968 264.402 596.562 264.918 598.093C265.996 601.307 268.143 604.257 271.596 605.123C275.111 606.002 278.903 604.634 281.59 602.337C284.691 599.701 286.372 595.758 287.578 591.966C288.996 587.497 290.102 582.902 291.182 578.332C292.299 573.574 293.315 568.79 294.27 563.994C294.894 560.874 295.487 557.748 296.07 554.621C283.535 552.877 270.77 555.281 259.046 559.28Z" fill="#F5DED0"/>
<path id="path320" d="M296.07 554.621C296.402 552.841 296.734 551.061 297.056 549.281C297.848 544.999 299.128 540.555 297.22 536.399C295.526 532.709 292.098 530.222 288.419 528.729C284.176 527.021 279.406 526.381 274.848 526.67C272.626 526.821 270.391 527.159 268.244 527.774C266.374 528.314 264.528 529.143 263.184 530.587C261.828 532.055 261.05 533.939 260.51 535.834C259.883 538.045 259.468 540.305 259.179 542.577C258.471 548.107 258.614 553.699 259.046 559.279C270.77 555.281 283.535 552.877 296.07 554.621Z" fill="#AC5F43"/>
<path id="path324" d="M219.038 637.416C218.696 639.74 227.947 640.665 236.942 642.174C242.443 642.223 246.727 642.283 248.163 642.478C252.983 643.111 255.271 642.089 255.271 642.089C264.326 643.781 264.411 639.376 264.411 639.376C265.396 632.061 240.471 631.416 232.487 628.774V628.762C226.048 633.192 219.379 635.116 219.038 637.416Z" fill="#AC5F43"/>
<path id="path326" d="M244.426 603.045C244.499 603.775 244.548 604.518 244.584 605.271C244.828 611.211 243.49 615.897 241.311 619.646C248.418 615.313 256.183 608.316 255.611 594.719C255.599 594.306 255.575 593.905 255.526 593.516C251.766 596.205 247.774 599.442 244.426 603.045Z" fill="#AC5F43"/>
<path id="path330" d="M292.475 573.343C292.357 573.343 292.235 573.322 292.119 573.278C291.602 573.081 291.343 572.503 291.541 571.986C294.747 563.571 295.757 556.329 297.033 547.158L297.394 544.569C299.942 526.498 282.955 521.843 282.231 521.653C282.139 521.627 275.491 519.774 269.803 523.199C265.969 525.509 263.391 529.682 262.146 535.609C262.031 536.15 261.501 536.494 260.961 536.382C260.421 536.267 260.074 535.738 260.189 535.197C261.555 528.695 264.45 524.078 268.791 521.473C275.241 517.605 282.457 519.635 282.762 519.726C282.927 519.767 302.174 524.991 299.374 544.847L299.013 547.434C297.719 556.73 296.698 564.071 293.409 572.699C293.258 573.098 292.878 573.343 292.475 573.343Z" fill="#473220"/>
<path id="path334" d="M244.251 653.638C243.87 653.638 243.508 653.421 243.34 653.054C243.314 652.998 241.747 649.683 238.79 649.546C238.238 649.519 237.811 649.053 237.838 648.501C237.863 647.95 238.346 647.499 238.882 647.549C243.083 647.744 245.078 652.044 245.16 652.226C245.388 652.729 245.166 653.322 244.663 653.55C244.528 653.61 244.388 653.638 244.251 653.638Z" fill="#473220"/>
<path id="path336" d="M252.258 652.877C251.762 652.877 251.331 652.507 251.267 652.004C251.262 651.961 250.684 647.932 248.399 647.794C247.848 647.761 247.428 647.288 247.462 646.737C247.495 646.185 247.987 645.78 248.519 645.797C252.499 646.038 253.223 651.522 253.251 651.756C253.319 652.302 252.931 652.801 252.383 652.869C252.342 652.874 252.299 652.877 252.258 652.877Z" fill="#473220"/>
<path id="path338" d="M304.535 653.638C304.443 653.638 304.35 653.627 304.259 653.599C303.729 653.449 303.422 652.897 303.571 652.366C303.665 652.029 304.367 649.09 301.334 647.706C300.831 647.477 300.61 646.883 300.839 646.381C301.069 645.88 301.663 645.658 302.165 645.886C305.902 647.593 305.978 651.23 305.495 652.914C305.37 653.353 304.97 653.638 304.535 653.638Z" fill="#473220"/>
<path id="path340" d="M310.832 652.116C310.796 652.116 310.759 652.114 310.723 652.109C310.174 652.049 309.778 651.556 309.838 651.006C310.144 648.21 307.618 647.823 307.328 647.789C306.78 647.723 306.388 647.225 306.455 646.677C306.52 646.128 307.031 645.73 307.567 645.804C309.224 646.004 312.246 647.394 311.826 651.225C311.77 651.737 311.336 652.116 310.832 652.116Z" fill="#473220"/>
<path id="path350" d="M260.6 574.622C260.184 574.622 259.796 574.361 259.654 573.948C259.475 573.425 259.752 572.856 260.275 572.677C267.759 570.104 275.53 568.294 283.374 567.294C286.524 566.894 290.182 566.542 293.738 567.461C294.274 567.6 294.594 568.145 294.456 568.68C294.318 569.213 293.77 569.53 293.238 569.398C290.348 568.649 287.307 568.81 283.627 569.278C275.918 570.26 268.28 572.04 260.926 574.568C260.818 574.605 260.707 574.622 260.6 574.622Z" fill="#473220"/>
<path id="path352" d="M288.45 589.683C288.295 589.683 288.139 589.649 287.992 589.573C281.691 586.323 273.03 585.365 265.388 584.518C263.895 584.353 262.438 584.192 261.043 584.018C260.495 583.952 260.106 583.452 260.175 582.904C260.242 582.356 260.738 581.961 261.29 582.034C262.676 582.206 264.123 582.366 265.608 582.53C273.423 583.397 282.279 584.377 288.908 587.794C289.399 588.049 289.592 588.652 289.339 589.142C289.162 589.486 288.812 589.683 288.45 589.683Z" fill="#473220"/>
<path id="path354" d="M264.663 598.309C264.143 598.309 263.703 597.905 263.667 597.378C263.63 596.826 264.046 596.349 264.596 596.311C271.486 595.84 278.498 595.599 285.434 595.599C286.031 595.609 286.491 596.029 286.491 596.599C286.491 597.152 286.043 597.599 285.491 597.599C285.472 597.599 285.454 597.599 285.435 597.599C278.542 597.599 271.578 597.838 264.732 598.306C264.71 598.307 264.687 598.309 264.663 598.309Z" fill="#473220"/>
<path id="path356" d="M259.589 560.649C259.073 560.649 258.634 560.252 258.593 559.728C258.273 555.662 258.078 551.528 258.013 547.442C258.005 546.89 258.446 546.436 258.998 546.426C259.517 546.441 260.005 546.857 260.013 547.41C260.077 551.456 260.27 555.546 260.587 559.572C260.63 560.122 260.219 560.602 259.669 560.646C259.642 560.648 259.615 560.649 259.589 560.649Z" fill="#473220"/>
</g>
<g id="rightpaws">
<g id="paw2">
<path id="path358" d="M458.957 275.113C458.561 278.302 460.992 280.641 461.694 281.094C462.39 281.548 465.674 281.886 467.846 283.66C470.014 285.429 471.002 288.58 471.586 289.17C472.172 289.768 474.949 291.682 477.994 290.656C481.036 289.626 483.954 287.474 482.49 282.912C481.025 278.349 481.57 277.714 482.781 273.612C483.992 269.508 481.209 267.293 481.209 267.293C481.209 267.293 478.477 265.005 474.7 267.013C470.921 269.02 470.412 269.684 465.645 269.158C460.882 268.637 459.357 271.928 458.957 275.113Z" fill="#473220"/>
<path id="path360" d="M487.325 274.989C484.174 276.504 483.222 279.045 484.226 281.134C485.23 283.225 487.809 284.07 490.96 282.557C494.112 281.044 495.853 278.122 494.849 276.033C493.845 273.944 490.477 273.476 487.325 274.989Z" fill="#473220"/>
<path id="path362" d="M487.163 262.04C483.923 264.344 483.347 267.376 484.875 269.524C486.402 271.672 489.455 272.124 492.695 269.82C495.935 267.516 497.323 263.906 495.795 261.758C494.267 259.609 490.403 259.736 487.163 262.04Z" fill="#473220"/>
<path id="path364" d="M472.791 263.124C471.939 266.514 469.639 267.954 467.39 267.389C465.142 266.824 463.797 264.466 464.65 261.076C465.502 257.685 468.015 255.396 470.265 255.961C472.513 256.526 473.643 259.733 472.791 263.124Z" fill="#473220"/>
<path id="path366" d="M485.513 260.692C483.904 264.326 481.048 265.498 478.637 264.43C476.226 263.364 475.174 260.462 476.784 256.828C478.392 253.192 481.65 251.11 484.061 252.177C486.472 253.244 487.121 257.056 485.513 260.692Z" fill="#473220"/>
</g>
<g id="paw1">
<path id="path368" d="M420.947 255.769C423.314 257.03 425.861 255.834 426.425 255.422C426.986 255.017 428.23 252.56 430.259 251.397C432.286 250.237 435.034 250.408 435.669 250.129C436.31 249.852 438.63 248.26 438.739 245.581C438.846 242.905 438.041 239.989 434.05 239.766C430.058 239.545 429.727 238.93 426.893 236.762C424.057 234.594 421.501 236.101 421.501 236.101C421.501 236.101 418.903 237.545 419.339 241.088C419.774 244.63 420.139 245.225 418.307 248.781C416.478 252.336 418.586 254.506 420.947 255.769Z" fill="#473220"/>
<path id="path370" d="M429.323 233.634C429.561 236.541 431.257 238.041 433.185 237.884C435.111 237.725 436.541 235.969 436.303 233.062C436.065 230.156 434.31 227.928 432.382 228.085C430.454 228.242 429.085 230.728 429.323 233.634Z" fill="#473220"/>
<path id="path372" d="M419.187 229.893C420.014 233.105 422.203 234.46 424.333 233.91C426.463 233.362 427.726 231.118 426.899 227.908C426.071 224.696 423.674 222.537 421.545 223.085C419.415 223.634 418.359 226.682 419.187 229.893Z" fill="#473220"/>
<path id="path374" d="M415.739 241.412C418.126 243.089 418.562 245.31 417.45 246.893C416.338 248.476 414.101 248.82 411.714 247.144C409.327 245.466 408.294 242.825 409.406 241.242C410.517 239.66 413.353 239.736 415.739 241.412Z" fill="#473220"/>
<path id="path376" d="M417.643 230.777C419.995 233.116 420.054 235.69 418.503 237.249C416.953 238.808 414.378 238.762 412.027 236.424C409.677 234.084 409.027 230.924 410.578 229.365C412.129 227.806 415.293 228.438 417.643 230.777Z" fill="#473220"/>
</g>
<g id="paw3">
<path id="path378" d="M409.382 310C410.254 312.291 412.727 312.999 413.363 313.054C413.994 313.112 416.329 312.167 418.426 312.587C420.521 313.006 422.311 314.776 422.915 314.966C423.523 315.16 426.079 315.459 427.766 313.679C429.449 311.9 430.647 309.407 428.031 306.854C425.415 304.3 425.555 303.678 424.906 300.48C424.257 297.282 421.59 296.782 421.59 296.782C421.59 296.782 418.933 296.216 417.102 298.918C415.271 301.619 415.166 302.25 411.765 303.598C408.367 304.947 408.514 307.71 409.382 310Z" fill="#473220"/>
<path id="path380" d="M428.462 299.787C426.878 301.932 427.145 303.986 428.567 305.035C429.99 306.086 432.03 305.735 433.614 303.59C435.198 301.444 435.329 298.854 433.906 297.803C432.483 296.752 430.046 297.64 428.462 299.787Z" fill="#473220"/>
<path id="path382" d="M423.729 291.115C422.367 293.824 423.061 296.074 424.858 296.976C426.655 297.879 428.874 297.094 430.235 294.383C431.597 291.674 431.243 288.744 429.447 287.842C427.65 286.939 425.09 288.404 423.729 291.115Z" fill="#473220"/>
<path id="path384" d="M414.427 296.978C415.063 299.567 414.027 301.36 412.31 301.782C410.593 302.203 408.843 301.095 408.207 298.504C407.571 295.915 408.449 293.472 410.166 293.051C411.883 292.63 413.791 294.387 414.427 296.978Z" fill="#473220"/>
<path id="path386" d="M422.134 290.795C422.347 293.82 420.841 295.63 418.834 295.771C416.829 295.912 415.083 294.332 414.87 291.307C414.657 288.283 416.11 285.715 418.115 285.574C420.122 285.432 421.921 287.77 422.134 290.795Z" fill="#473220"/>
</g>
</g>
<g id="leftpaws">
<g id="paw6">
<path id="path98" d="M106.837 330.631C107.226 333.763 104.839 336.059 104.149 336.505C103.466 336.95 100.242 337.282 98.1091 339.023C95.9805 340.761 95.0106 343.854 94.4373 344.434C93.8627 345.021 91.1357 346.899 88.1455 345.893C85.1601 344.882 82.2939 342.769 83.7319 338.289C85.1695 333.81 84.6341 333.186 83.4455 329.158C82.257 325.129 84.9893 322.954 84.9893 322.954C84.9893 322.954 87.671 320.709 91.3805 322.679C95.0898 324.649 95.5893 325.302 100.27 324.786C104.947 324.274 106.444 327.505 106.837 330.631Z" fill="#473220"/>
<path id="path100" d="M78.9835 330.511C82.0778 331.997 83.0122 334.493 82.0267 336.545C81.0414 338.595 78.5095 339.427 75.4152 337.941C72.321 336.455 70.6116 333.587 71.5971 331.535C72.5824 329.483 75.8898 329.025 78.9835 330.511Z" fill="#473220"/>
<path id="path102" d="M79.1428 317.797C82.3241 320.058 82.8897 323.035 81.3897 325.145C79.8897 327.254 76.8924 327.697 73.7116 325.434C70.5304 323.173 69.1679 319.629 70.6679 317.519C72.1674 315.41 75.9621 315.534 79.1428 317.797Z" fill="#473220"/>
<path id="path104" d="M93.2534 318.861C94.0908 322.189 96.3486 323.603 98.5559 323.049C100.764 322.494 102.084 320.179 101.247 316.85C100.41 313.522 97.9419 311.273 95.7346 311.827C93.5272 312.383 92.4163 315.531 93.2534 318.861Z" fill="#473220"/>
<path id="path106" d="M80.7643 316.473C82.3439 320.042 85.1476 321.191 87.5143 320.145C89.881 319.097 90.9143 316.249 89.3346 312.679C87.7548 309.11 84.5554 307.066 82.1887 308.114C79.822 309.161 79.184 312.903 80.7643 316.473Z" fill="#473220"/>
</g>
<g id="paw5">
<path id="path108" d="M144.154 311.641C141.831 312.878 139.33 311.705 138.778 311.299C138.226 310.901 137.006 308.489 135.012 307.347C133.022 306.207 130.324 306.377 129.701 306.102C129.072 305.83 126.793 304.267 126.686 301.637C126.581 299.01 127.372 296.146 131.291 295.929C135.21 295.711 135.535 295.107 138.318 292.979C141.102 290.85 143.611 292.329 143.611 292.329C143.611 292.329 146.162 293.747 145.734 297.226C145.307 300.703 144.947 301.287 146.747 304.779C148.543 308.269 146.474 310.401 144.154 311.641Z" fill="#473220"/>
<path id="path110" d="M135.931 289.907C135.697 292.762 134.032 294.234 132.14 294.079C130.248 293.925 128.844 292.201 129.078 289.346C129.312 286.493 131.035 284.305 132.928 284.459C134.82 284.614 136.165 287.054 135.931 289.907Z" fill="#473220"/>
<path id="path112" d="M145.883 286.235C145.071 289.389 142.922 290.718 140.83 290.179C138.739 289.641 137.499 287.438 138.311 284.285C139.123 281.131 141.476 279.013 143.568 279.55C145.659 280.089 146.695 283.082 145.883 286.235Z" fill="#473220"/>
<path id="path114" d="M149.268 297.545C146.924 299.19 146.497 301.371 147.588 302.926C148.68 304.479 150.877 304.817 153.22 303.171C155.563 301.525 156.577 298.931 155.487 297.377C154.395 295.823 151.611 295.898 149.268 297.545Z" fill="#473220"/>
<path id="path116" d="M147.397 287.103C145.089 289.399 145.031 291.926 146.554 293.457C148.076 294.987 150.604 294.942 152.912 292.646C155.22 290.35 155.858 287.247 154.335 285.717C152.812 284.186 149.707 284.806 147.397 287.103Z" fill="#473220"/>
</g>
<g id="paw4">
<path id="path118" d="M91.0476 271.987C90.1919 274.237 87.7627 274.933 87.1382 274.986C86.519 275.043 84.2272 274.115 82.1679 274.527C80.1116 274.939 78.3539 276.677 77.76 276.863C77.1632 277.054 74.6539 277.347 72.9982 275.601C71.346 273.853 70.169 271.405 72.7376 268.898C75.3064 266.393 75.1679 265.781 75.8054 262.641C76.4428 259.501 79.0616 259.01 79.0616 259.01C79.0616 259.01 81.671 258.454 83.4684 261.107C85.2652 263.759 85.369 264.378 88.7086 265.702C92.0439 267.026 91.8996 269.739 91.0476 271.987Z" fill="#473220"/>
<path id="path120" d="M72.3149 261.959C73.8695 264.066 73.608 266.082 72.2111 267.114C70.8143 268.145 68.8111 267.801 67.2559 265.694C65.7007 263.587 65.572 261.043 66.9695 260.013C68.3663 258.981 70.7595 259.853 72.3149 261.959Z" fill="#473220"/>
<path id="path122" d="M76.9621 253.446C78.2985 256.106 77.6168 258.315 75.8528 259.201C74.0881 260.087 71.9095 259.315 70.5731 256.655C69.2367 253.994 69.5829 251.119 71.3476 250.233C73.1116 249.346 75.6257 250.785 76.9621 253.446Z" fill="#473220"/>
<path id="path124" d="M86.0945 259.202C85.4701 261.745 86.4872 263.505 88.1731 263.918C89.8595 264.333 91.5762 263.243 92.2007 260.701C92.8253 258.158 91.9643 255.761 90.2783 255.347C88.5919 254.933 86.719 256.658 86.0945 259.202Z" fill="#473220"/>
<path id="path126" d="M78.5278 253.133C78.3179 256.102 79.7976 257.878 81.7668 258.017C83.7367 258.157 85.4502 256.606 85.6595 253.635C85.8695 250.665 84.4424 248.145 82.4731 248.006C80.5034 247.866 78.7372 250.162 78.5278 253.133Z" fill="#473220"/>
</g>
</g>
<g id="manHand">
<path id="manHand_2" d="M298.307 193.358C298.013 195.825 297.293 197.158 297.293 197.158C297.293 197.158 298.107 201.412 298.307 203.185C298.36 203.705 298.147 204.452 297.68 205.332C296.88 206.878 295.333 208.825 293.213 210.745C292.467 211.425 291.667 212.078 290.787 212.718C285.987 216.238 273.427 226.772 270.88 229.105C269.987 229.945 260.733 239.505 249.107 251.372C247.453 253.065 245.733 254.798 244 256.572C240.32 260.345 236.48 264.225 232.68 268.065C224.347 276.465 216.147 284.625 209.827 290.665C203.507 296.692 199.053 300.625 198.173 300.598C194.96 300.505 184.84 300.425 180.507 296.945C179.907 296.478 179.427 295.932 179.093 295.318C176.707 291.065 167.067 267.292 164 259.678C170.973 259.185 188.213 257.385 199.093 251.545C199.093 251.545 220.987 236.958 236.667 226.252C245.08 220.478 251.72 215.852 252.213 215.158C253.627 213.185 258.773 198.652 259.387 194.652C259.493 193.998 259.813 193.332 260.293 192.665C262.76 189.225 269.547 185.772 272.373 184.825C275.76 183.718 278 184.158 278 184.158C278 184.158 283.92 179.625 284.893 178.198C285.547 177.292 288.067 176.892 290.173 177.025C291.36 177.092 292.413 177.358 292.893 177.785C294.253 178.985 292.627 182.198 292.627 182.198C292.627 182.198 296.853 183.985 297.56 186.118C298.267 188.252 297.027 188.825 297.027 188.825C297.027 188.825 298.613 190.892 298.307 193.358Z" fill="#E1977C"/>
<path id="path272" d="M185.724 261.722C185.423 261.722 185.124 261.586 184.927 261.328C184.593 260.886 184.68 260.26 185.119 259.925L195.1 252.35C195.54 252.018 196.167 252.102 196.501 252.542C196.835 252.982 196.749 253.61 196.309 253.944L186.329 261.52C186.148 261.656 185.936 261.722 185.724 261.722Z" fill="#473220"/>
<path id="path274" d="M291.197 186.441C291.064 186.441 290.927 186.414 290.796 186.357C290.291 186.134 290.06 185.544 290.283 185.038L291.711 181.794C291.933 181.289 292.519 181.06 293.029 181.281C293.535 181.504 293.764 182.094 293.541 182.6L292.113 185.844C291.949 186.218 291.583 186.441 291.197 186.441Z" fill="#473220"/>
<path id="path276" d="M295.463 192.941C295.312 192.941 295.159 192.906 295.015 192.834C294.521 192.586 294.323 191.985 294.569 191.492L296.131 188.382C296.38 187.888 296.981 187.689 297.473 187.937C297.967 188.185 298.167 188.785 297.919 189.278L296.357 192.389C296.181 192.738 295.829 192.941 295.463 192.941Z" fill="#473220"/>
<path id="path278" d="M294.651 201.877C294.449 201.877 294.248 201.817 294.072 201.692C293.621 201.373 293.516 200.748 293.835 200.298L296.472 196.581C296.793 196.13 297.416 196.025 297.867 196.344C298.317 196.664 298.423 197.288 298.104 197.738L295.467 201.456C295.272 201.73 294.964 201.877 294.651 201.877Z" fill="#473220"/>
<path id="path308" d="M211.476 288.865C211.212 288.865 210.947 288.761 210.751 288.553C210.371 288.153 210.387 287.52 210.787 287.14L237.097 262.154C237.497 261.773 238.129 261.789 238.511 262.19C238.891 262.59 238.875 263.224 238.475 263.605L212.165 288.59C211.971 288.774 211.723 288.865 211.476 288.865Z" fill="#473220"/>
</g>
<path id="girl_hand" d="M259.616 502.35C261.36 502.294 275.658 503.351 275.658 503.351C275.658 503.351 258.674 500.178 256.943 498.677C255.199 497.175 256.2 495.731 257.33 495.402C258.472 495.074 274.756 497.018 274.756 497.018C274.756 497.018 260.318 494.687 258.402 493.215C256.471 491.743 256.958 489.555 258.559 489.07C260.174 488.598 269.924 491.027 274.156 490.899C278.402 490.757 285.951 490.442 285.951 490.442C285.951 490.442 280.56 485.681 279.688 483.737C278.816 481.807 278.344 478.719 279.988 477.433C281.632 476.146 283.091 477.905 285.45 480.406C287.808 482.922 293.37 483.894 295.143 485.523C296.902 487.167 305.422 495.961 305.422 495.961C307.51 498.047 352.314 512.158 352.314 512.158L383.551 480.921C384.923 484.766 387.354 490.514 390.571 494.373C394.659 499.291 404.266 503.637 408.226 505.282C399.176 511.901 357.79 542.037 354.702 541.766C351.227 541.465 340.204 534.517 334.63 531.429C329.068 528.355 308.41 517.319 308.41 517.319C308.41 517.319 306.294 515.689 303.592 515.389C300.876 515.089 290.896 516.933 282.819 514.989C274.742 513.045 264.806 513.13 263.863 512.887C262.919 512.643 258.53 509.657 265.807 509.142C273.098 508.627 276.015 508.283 276.015 508.283C264.62 507.269 258.244 506.239 257.872 504.91C257.487 503.566 257.887 502.422 259.616 502.35Z" fill="#D5826D"/>
<g id="dogBody">
<path id="dogBody_2" d="M354.566 459.265C354.566 459.265 355.583 465.353 349.48 466.534C343.404 467.726 328.84 467.475 324.108 470.438C319.375 473.389 311.34 493.187 310.912 500.883C310.675 505.114 312.658 523.218 309.834 540.618C307.75 553.587 302.991 566.167 292.659 572.331C291.628 572.934 290.536 573.486 289.394 573.977L280.882 578.709L267.072 586.381C264.724 587.661 260.38 590.159 255.71 593.511C255.76 593.901 255.786 594.302 255.798 594.717C256.363 608.301 248.604 615.306 241.498 619.637C239.188 623.58 235.962 626.505 232.672 628.753V628.765C240.494 631.363 264.624 632.029 264.624 638.946C264.624 639.085 264.624 639.223 264.599 639.361C264.599 639.361 264.511 643.768 255.459 642.085C255.459 642.085 253.162 643.102 248.34 642.474C246.91 642.274 242.628 642.21 237.13 642.161C245.754 643.617 254.154 645.613 253.563 649.92C253.563 649.92 253.488 654.326 244.423 652.632C244.423 652.632 242.151 653.661 237.33 653.021C232.51 652.38 195.623 653.221 188.103 650.937C180.571 648.651 191.216 642.474 192.548 637.803C186.17 635.895 177.607 632.82 175.75 629.618C175.21 628.702 174.871 626.493 174.683 623.403C165.668 613.749 159.466 601.495 157.106 588.502C154.482 574.127 156.566 558.923 162.956 545.791C164.739 542.138 166.886 538.585 169.762 535.697C172.648 532.822 176.339 530.625 180.37 530.047C172.648 537.279 166.936 546.657 164.074 556.865C161.224 567.046 161.224 578.019 164.099 588.226C165.191 592.156 166.735 595.997 169.108 599.323C170.69 601.559 172.686 603.556 175.008 605.037C175.184 602.225 175.423 599.323 175.699 596.449C176.93 583.97 179.064 571.754 181.839 567.359C182.767 565.891 184.487 563.706 186.81 561.007C189.12 558.295 192.032 555.082 195.372 551.541C210.463 535.497 234.04 512.81 248.83 501.523C254.267 497.381 258.962 492.095 262.954 486.533C274.643 470.225 280.292 451.418 280.292 451.418C278.132 446.571 276.4 441.663 276.35 439.817C276.236 435.586 291.014 426.158 294.855 428.317C294.855 428.317 297.504 429.309 299.79 431.355C300.166 431.355 303.054 431.33 306.732 431.305C312.407 431.267 319.964 431.255 323.103 431.355C326.694 431.469 329.607 434.117 332.771 436.439C334.315 437.57 335.91 438.65 337.642 439.302C341.056 440.609 349.318 439.126 354.967 438.625C354.666 438.775 350.51 441.098 352.255 442.29C354.051 443.534 361.232 444.538 361.232 444.538C361.471 449.999 360.655 457.682 354.566 459.265Z" fill="#AC5F43"/>
<path id="path328" d="M351.517 438.32C351.225 438.477 347.063 440.803 348.803 441.995C350.605 443.236 357.785 444.235 357.785 444.235C357.675 441.812 357.359 439.829 357.213 439.001C357.031 438.028 354.682 438.015 351.517 438.32Z" fill="#473220"/>
<path id="path332" d="M216.627 640.472C216.382 640.472 216.137 640.383 215.943 640.202C215.045 639.362 214.247 638.523 214.366 637.474C214.509 636.204 215.73 635.492 218.681 633.774C220.25 632.861 222.402 631.608 225.101 629.855C235.667 622.986 245.531 613.524 238.581 595.405C231.467 576.868 216.507 572.471 216.358 572.429C215.827 572.279 215.517 571.727 215.665 571.196C215.814 570.664 216.366 570.356 216.895 570.501C217.547 570.683 232.958 575.169 240.447 594.69C247.954 614.253 236.771 624.655 226.191 631.532C223.45 633.313 221.274 634.579 219.686 635.502C218.051 636.455 216.507 637.353 216.345 637.733C216.386 637.726 216.497 637.981 217.31 638.741C217.713 639.117 217.735 639.75 217.358 640.153C217.161 640.365 216.894 640.472 216.627 640.472Z" fill="#473220"/>
<path id="path342" d="M189.098 638.514C188.994 638.514 188.889 638.498 188.785 638.464C188.259 638.292 187.976 637.725 188.148 637.201C190.349 630.529 189.105 627.6 186.098 620.526C185.192 618.395 184.165 615.98 183.039 613C178.046 599.792 182.441 591.36 182.63 591.007C182.892 590.52 183.501 590.337 183.984 590.6C184.469 590.861 184.653 591.465 184.393 591.952C184.351 592.031 180.259 599.989 184.91 612.292C186.022 615.235 187.041 617.631 187.939 619.744C190.965 626.867 192.484 630.44 190.048 637.828C189.909 638.248 189.518 638.514 189.098 638.514Z" fill="#473220"/>
<path id="path344" d="M284.579 464.02C281.099 464.021 276.826 454.241 274.509 448.168C274.312 447.652 274.57 447.075 275.086 446.876C275.602 446.683 276.179 446.939 276.377 447.455C279.333 455.199 283.201 462.163 284.521 462.031C286.471 461.316 286.942 459.961 288.134 455.792C288.436 454.736 288.777 453.54 289.206 452.181C290.268 448.819 292.317 447.067 294.125 445.521C296.107 443.824 297.821 442.361 298.441 439.023C299.568 432.944 294.621 430.852 294.41 430.765C293.901 430.559 293.653 429.977 293.858 429.467C294.063 428.955 294.642 428.703 295.154 428.911C295.221 428.936 301.838 431.667 300.406 439.387C299.658 443.421 297.506 445.261 295.423 447.04C293.663 448.545 292.002 449.967 291.113 452.783C290.691 454.121 290.354 455.301 290.057 456.341C288.865 460.512 288.209 462.809 285.202 463.909C284.998 463.985 284.79 464.02 284.579 464.02Z" fill="#473220"/>
<path id="path346" d="M313.618 442.225C313.618 444.551 314.956 446.435 316.606 446.435C318.257 446.435 319.596 444.551 319.596 442.225C319.596 439.9 318.257 438.015 316.606 438.015C314.956 438.015 313.618 439.9 313.618 442.225Z" fill="#473220"/>
<path id="path348" d="M344.543 461.48C343.53 461.48 342.445 461.38 341.31 461.135C339.859 461.297 330.767 462.092 329.747 456.364C329.651 455.819 330.013 455.3 330.557 455.204C331.095 455.109 331.621 455.468 331.717 456.012C332.457 460.167 341.143 459.143 341.23 459.131C341.35 459.113 341.469 459.12 341.583 459.147C346.538 460.283 350.593 458.107 350.634 458.085C351.121 457.82 351.725 457.997 351.99 458.48C352.255 458.963 352.081 459.569 351.599 459.836C351.449 459.92 348.571 461.48 344.543 461.48Z" fill="#473220"/>
</g>
<path id="dogTail" d="M162.957 544.749C156.566 557.883 154.485 573.084 157.102 587.457C159.463 600.444 165.67 612.7 174.689 622.351C174.421 617.715 174.555 611.093 175.005 603.985C172.693 602.513 170.697 600.517 169.114 598.277C166.741 594.955 165.195 591.108 164.101 587.177C161.227 576.979 161.227 566 164.075 555.813C166.935 545.613 172.645 536.231 180.373 529C176.345 529.572 172.645 531.776 169.759 534.648C166.887 537.532 164.745 541.087 162.957 544.749Z" fill="#AC5F43"/>
<g id="rightpaws_2">
<g id="paw2_2">
<path id="path358_2" d="M458.957 275.113C458.561 278.302 460.992 280.641 461.694 281.094C462.39 281.548 465.674 281.886 467.846 283.66C470.014 285.429 471.002 288.58 471.586 289.17C472.172 289.768 474.949 291.682 477.994 290.656C481.036 289.626 483.954 287.474 482.49 282.912C481.025 278.349 481.57 277.714 482.781 273.612C483.992 269.508 481.209 267.293 481.209 267.293C481.209 267.293 478.477 265.005 474.7 267.013C470.921 269.02 470.412 269.684 465.645 269.158C460.882 268.637 459.357 271.928 458.957 275.113Z" fill="#473220"/>
<path id="path360_2" d="M487.325 274.989C484.174 276.504 483.222 279.045 484.226 281.134C485.23 283.225 487.809 284.07 490.96 282.557C494.112 281.044 495.853 278.122 494.849 276.033C493.845 273.944 490.477 273.476 487.325 274.989Z" fill="#473220"/>
<path id="path362_2" d="M487.163 262.04C483.923 264.344 483.347 267.376 484.875 269.524C486.402 271.672 489.455 272.124 492.695 269.82C495.935 267.516 497.323 263.906 495.795 261.758C494.267 259.609 490.403 259.736 487.163 262.04Z" fill="#473220"/>
<path id="path364_2" d="M472.791 263.124C471.939 266.514 469.639 267.954 467.39 267.389C465.142 266.824 463.797 264.466 464.65 261.076C465.502 257.685 468.015 255.396 470.265 255.961C472.513 256.526 473.643 259.733 472.791 263.124Z" fill="#473220"/>
<path id="path366_2" d="M485.513 260.692C483.904 264.326 481.048 265.498 478.637 264.43C476.226 263.364 475.174 260.462 476.784 256.828C478.392 253.192 481.65 251.11 484.061 252.177C486.472 253.244 487.121 257.056 485.513 260.692Z" fill="#473220"/>
</g>
<g id="paw1_2">
<path id="path368_2" d="M420.947 255.769C423.314 257.03 425.861 255.834 426.425 255.422C426.986 255.017 428.23 252.56 430.259 251.397C432.286 250.237 435.034 250.408 435.669 250.129C436.31 249.852 438.63 248.26 438.739 245.581C438.846 242.905 438.041 239.989 434.05 239.766C430.058 239.545 429.727 238.93 426.893 236.762C424.057 234.594 421.501 236.101 421.501 236.101C421.501 236.101 418.903 237.545 419.339 241.088C419.774 244.63 420.139 245.225 418.307 248.781C416.478 252.336 418.586 254.506 420.947 255.769Z" fill="#473220"/>
<path id="path370_2" d="M429.323 233.634C429.561 236.541 431.257 238.041 433.185 237.884C435.111 237.725 436.541 235.969 436.303 233.062C436.065 230.156 434.31 227.928 432.382 228.085C430.454 228.242 429.085 230.728 429.323 233.634Z" fill="#473220"/>
<path id="path372_2" d="M419.187 229.893C420.014 233.105 422.203 234.46 424.333 233.91C426.463 233.362 427.726 231.118 426.899 227.908C426.071 224.696 423.674 222.537 421.545 223.085C419.415 223.634 418.359 226.682 419.187 229.893Z" fill="#473220"/>
<path id="path374_2" d="M415.739 241.412C418.126 243.089 418.562 245.31 417.45 246.893C416.338 248.476 414.101 248.82 411.714 247.144C409.327 245.466 408.294 242.825 409.406 241.242C410.517 239.66 413.353 239.736 415.739 241.412Z" fill="#473220"/>
<path id="path376_2" d="M417.643 230.777C419.995 233.116 420.054 235.69 418.503 237.249C416.953 238.808 414.378 238.762 412.027 236.424C409.677 234.084 409.027 230.924 410.578 229.365C412.129 227.806 415.293 228.438 417.643 230.777Z" fill="#473220"/>
</g>
<g id="paw3_2">
<path id="path378_2" d="M409.382 310C410.254 312.291 412.727 312.999 413.363 313.054C413.994 313.112 416.329 312.167 418.426 312.587C420.521 313.006 422.311 314.776 422.915 314.966C423.523 315.16 426.079 315.459 427.766 313.679C429.449 311.9 430.647 309.407 428.031 306.854C425.415 304.3 425.555 303.678 424.906 300.48C424.257 297.282 421.59 296.782 421.59 296.782C421.59 296.782 418.933 296.216 417.102 298.918C415.271 301.619 415.166 302.25 411.765 303.598C408.367 304.947 408.514 307.71 409.382 310Z" fill="#473220"/>
<path id="path380_2" d="M428.462 299.787C426.878 301.932 427.145 303.986 428.567 305.035C429.99 306.086 432.03 305.735 433.614 303.59C435.198 301.444 435.329 298.854 433.906 297.803C432.483 296.752 430.046 297.64 428.462 299.787Z" fill="#473220"/>
<path id="path382_2" d="M423.729 291.115C422.367 293.824 423.061 296.074 424.858 296.976C426.655 297.879 428.874 297.094 430.235 294.383C431.597 291.674 431.243 288.744 429.447 287.842C427.65 286.939 425.09 288.404 423.729 291.115Z" fill="#473220"/>
<path id="path384_2" d="M414.427 296.978C415.063 299.567 414.027 301.36 412.31 301.782C410.593 302.203 408.843 301.095 408.207 298.504C407.571 295.915 408.449 293.472 410.166 293.051C411.883 292.63 413.791 294.387 414.427 296.978Z" fill="#473220"/>
<path id="path386_2" d="M422.134 290.795C422.347 293.82 420.841 295.63 418.834 295.771C416.829 295.912 415.083 294.332 414.87 291.307C414.657 288.283 416.11 285.715 418.115 285.574C420.122 285.432 421.921 287.77 422.134 290.795Z" fill="#473220"/>
</g>
</g>
<g id="leftpaws_2">
<g id="paw6_2">
<path id="path98_2" d="M106.837 330.631C107.226 333.763 104.839 336.059 104.149 336.505C103.466 336.95 100.242 337.282 98.1091 339.023C95.9805 340.761 95.0106 343.854 94.4373 344.434C93.8627 345.021 91.1357 346.899 88.1455 345.893C85.1601 344.882 82.2939 342.769 83.7319 338.289C85.1695 333.81 84.6341 333.186 83.4455 329.158C82.257 325.129 84.9893 322.954 84.9893 322.954C84.9893 322.954 87.671 320.709 91.3805 322.679C95.0898 324.649 95.5893 325.302 100.27 324.786C104.947 324.274 106.444 327.505 106.837 330.631Z" fill="#473220"/>
<path id="path100_2" d="M78.9835 330.511C82.0778 331.997 83.0122 334.493 82.0267 336.545C81.0414 338.595 78.5095 339.427 75.4152 337.941C72.321 336.455 70.6116 333.587 71.5971 331.535C72.5824 329.483 75.8898 329.025 78.9835 330.511Z" fill="#473220"/>
<path id="path102_2" d="M79.1428 317.797C82.3241 320.058 82.8897 323.035 81.3897 325.145C79.8897 327.254 76.8924 327.697 73.7116 325.434C70.5304 323.173 69.1679 319.629 70.6679 317.519C72.1674 315.41 75.9621 315.534 79.1428 317.797Z" fill="#473220"/>
<path id="path104_2" d="M93.2534 318.861C94.0908 322.189 96.3486 323.603 98.5559 323.049C100.764 322.494 102.084 320.179 101.247 316.85C100.41 313.522 97.9419 311.273 95.7346 311.827C93.5272 312.383 92.4163 315.531 93.2534 318.861Z" fill="#473220"/>
<path id="path106_2" d="M80.7643 316.473C82.3439 320.042 85.1476 321.191 87.5143 320.145C89.881 319.097 90.9143 316.249 89.3346 312.679C87.7548 309.11 84.5554 307.066 82.1887 308.114C79.822 309.161 79.184 312.903 80.7643 316.473Z" fill="#473220"/>
</g>
<g id="paw5_2">
<path id="path108_2" d="M144.154 311.641C141.831 312.878 139.33 311.705 138.778 311.299C138.226 310.901 137.006 308.489 135.012 307.347C133.022 306.207 130.324 306.377 129.701 306.102C129.072 305.83 126.793 304.267 126.686 301.637C126.581 299.01 127.372 296.146 131.291 295.929C135.21 295.711 135.535 295.107 138.318 292.979C141.102 290.85 143.611 292.329 143.611 292.329C143.611 292.329 146.162 293.747 145.734 297.226C145.307 300.703 144.947 301.287 146.747 304.779C148.543 308.269 146.474 310.401 144.154 311.641Z" fill="#473220"/>
<path id="path110_2" d="M135.931 289.907C135.697 292.762 134.032 294.234 132.14 294.079C130.248 293.925 128.844 292.201 129.078 289.346C129.312 286.493 131.035 284.305 132.928 284.459C134.82 284.614 136.165 287.054 135.931 289.907Z" fill="#473220"/>
<path id="path112_2" d="M145.883 286.235C145.071 289.389 142.922 290.718 140.83 290.179C138.739 289.641 137.499 287.438 138.311 284.285C139.123 281.131 141.476 279.013 143.568 279.55C145.659 280.089 146.695 283.082 145.883 286.235Z" fill="#473220"/>
<path id="path114_2" d="M149.268 297.545C146.924 299.19 146.497 301.371 147.588 302.926C148.68 304.479 150.877 304.817 153.22 303.171C155.563 301.525 156.577 298.931 155.487 297.377C154.395 295.823 151.611 295.898 149.268 297.545Z" fill="#473220"/>
<path id="path116_2" d="M147.397 287.103C145.089 289.399 145.031 291.926 146.554 293.457C148.076 294.987 150.604 294.942 152.912 292.646C155.22 290.35 155.858 287.247 154.335 285.717C152.812 284.186 149.707 284.806 147.397 287.103Z" fill="#473220"/>
</g>
<g id="paw4_2">
<path id="path118_2" d="M91.0476 271.987C90.1919 274.237 87.7627 274.933 87.1382 274.986C86.519 275.043 84.2272 274.115 82.1679 274.527C80.1116 274.939 78.3539 276.677 77.76 276.863C77.1632 277.054 74.6539 277.347 72.9982 275.601C71.346 273.853 70.169 271.405 72.7376 268.898C75.3064 266.393 75.1679 265.781 75.8054 262.641C76.4428 259.501 79.0616 259.01 79.0616 259.01C79.0616 259.01 81.671 258.454 83.4684 261.107C85.2652 263.759 85.369 264.378 88.7086 265.702C92.0439 267.026 91.8996 269.739 91.0476 271.987Z" fill="#473220"/>
<path id="path120_2" d="M72.3149 261.959C73.8695 264.066 73.608 266.082 72.2111 267.114C70.8143 268.145 68.8111 267.801 67.2559 265.694C65.7007 263.587 65.572 261.043 66.9695 260.013C68.3663 258.981 70.7595 259.853 72.3149 261.959Z" fill="#473220"/>
<path id="path122_2" d="M76.9621 253.446C78.2985 256.106 77.6168 258.315 75.8528 259.201C74.0881 260.087 71.9095 259.315 70.5731 256.655C69.2367 253.994 69.5829 251.119 71.3476 250.233C73.1116 249.346 75.6257 250.785 76.9621 253.446Z" fill="#473220"/>
<path id="path124_2" d="M86.0945 259.202C85.4701 261.745 86.4872 263.505 88.1731 263.918C89.8595 264.333 91.5762 263.243 92.2007 260.701C92.8253 258.158 91.9643 255.761 90.2783 255.347C88.5919 254.933 86.719 256.658 86.0945 259.202Z" fill="#473220"/>
<path id="path126_2" d="M78.5278 253.133C78.3179 256.102 79.7976 257.878 81.7668 258.017C83.7367 258.157 85.4502 256.606 85.6595 253.635C85.8695 250.665 84.4424 248.145 82.4731 248.006C80.5034 247.866 78.7372 250.162 78.5278 253.133Z" fill="#473220"/>
</g>
</g>
<g id="manHand_3">
<path id="manHand_4" d="M298.307 193.358C298.013 195.825 297.293 197.158 297.293 197.158C297.293 197.158 298.107 201.412 298.307 203.185C298.36 203.705 298.147 204.452 297.68 205.332C296.88 206.878 295.333 208.825 293.213 210.745C292.467 211.425 291.667 212.078 290.787 212.718C285.987 216.238 273.427 226.772 270.88 229.105C269.987 229.945 260.733 239.505 249.107 251.372C247.453 253.065 245.733 254.798 244 256.572C240.32 260.345 236.48 264.225 232.68 268.065C224.347 276.465 216.147 284.625 209.827 290.665C203.507 296.692 199.053 300.625 198.173 300.598C194.96 300.505 184.84 300.425 180.507 296.945C179.907 296.478 179.427 295.932 179.093 295.318C176.707 291.065 167.067 267.292 164 259.678C170.973 259.185 188.213 257.385 199.093 251.545C199.093 251.545 220.987 236.958 236.667 226.252C245.08 220.478 251.72 215.852 252.213 215.158C253.627 213.185 258.773 198.652 259.387 194.652C259.493 193.998 259.813 193.332 260.293 192.665C262.76 189.225 269.547 185.772 272.373 184.825C275.76 183.718 278 184.158 278 184.158C278 184.158 283.92 179.625 284.893 178.198C285.547 177.292 288.067 176.892 290.173 177.025C291.36 177.092 292.413 177.358 292.893 177.785C294.253 178.985 292.627 182.198 292.627 182.198C292.627 182.198 296.853 183.985 297.56 186.118C298.267 188.252 297.027 188.825 297.027 188.825C297.027 188.825 298.613 190.892 298.307 193.358Z" fill="#E1977C"/>
<path id="path272_2" d="M185.724 261.722C185.423 261.722 185.124 261.586 184.927 261.328C184.593 260.886 184.68 260.26 185.119 259.925L195.1 252.35C195.54 252.018 196.167 252.102 196.501 252.542C196.835 252.982 196.749 253.61 196.309 253.944L186.329 261.52C186.148 261.656 185.936 261.722 185.724 261.722Z" fill="#473220"/>
<path id="path274_2" d="M291.197 186.441C291.064 186.441 290.927 186.414 290.796 186.357C290.291 186.134 290.06 185.544 290.283 185.038L291.711 181.794C291.933 181.289 292.519 181.06 293.029 181.281C293.535 181.504 293.764 182.094 293.541 182.6L292.113 185.844C291.949 186.218 291.583 186.441 291.197 186.441Z" fill="#473220"/>
<path id="path276_2" d="M295.463 192.941C295.312 192.941 295.159 192.906 295.015 192.834C294.521 192.586 294.323 191.985 294.569 191.492L296.131 188.382C296.38 187.888 296.981 187.689 297.473 187.937C297.967 188.185 298.167 188.785 297.919 189.278L296.357 192.389C296.181 192.738 295.829 192.941 295.463 192.941Z" fill="#473220"/>
<path id="path278_2" d="M294.651 201.877C294.449 201.877 294.248 201.817 294.072 201.692C293.621 201.373 293.516 200.748 293.835 200.298L296.472 196.581C296.793 196.13 297.416 196.025 297.867 196.344C298.317 196.664 298.423 197.288 298.104 197.738L295.467 201.456C295.272 201.73 294.964 201.877 294.651 201.877Z" fill="#473220"/>
<path id="path308_2" d="M211.476 288.865C211.212 288.865 210.947 288.761 210.751 288.553C210.371 288.153 210.387 287.52 210.787 287.14L237.097 262.154C237.497 261.773 238.129 261.789 238.511 262.19C238.891 262.59 238.875 263.224 238.475 263.605L212.165 288.59C211.971 288.774 211.723 288.865 211.476 288.865Z" fill="#473220"/>
</g>
<path id="girl_hand_2" d="M259.616 502.35C261.36 502.294 275.658 503.351 275.658 503.351C275.658 503.351 258.674 500.178 256.943 498.677C255.199 497.175 256.2 495.731 257.33 495.402C258.472 495.074 274.756 497.018 274.756 497.018C274.756 497.018 260.318 494.687 258.402 493.215C256.471 491.743 256.958 489.555 258.559 489.07C260.174 488.598 269.924 491.027 274.156 490.899C278.402 490.757 285.951 490.442 285.951 490.442C285.951 490.442 280.56 485.681 279.688 483.737C278.816 481.807 278.344 478.719 279.988 477.433C281.632 476.146 283.091 477.905 285.45 480.406C287.808 482.922 293.37 483.894 295.143 485.523C296.902 487.167 305.422 495.961 305.422 495.961C307.51 498.047 352.314 512.158 352.314 512.158L383.551 480.921C384.923 484.766 387.354 490.514 390.571 494.373C394.659 499.291 404.266 503.637 408.226 505.282C399.176 511.901 357.79 542.037 354.702 541.766C351.227 541.465 340.204 534.517 334.63 531.429C329.068 528.355 308.41 517.319 308.41 517.319C308.41 517.319 306.294 515.689 303.592 515.389C300.876 515.089 290.896 516.933 282.819 514.989C274.742 513.045 264.806 513.13 263.863 512.887C262.919 512.643 258.53 509.657 265.807 509.142C273.098 508.627 276.015 508.283 276.015 508.283C264.62 507.269 258.244 506.239 257.872 504.91C257.487 503.566 257.887 502.422 259.616 502.35Z" fill="#D5826D"/>
<g id="dogBody_3">
<path id="dogBody_4" d="M354.566 459.265C354.566 459.265 355.583 465.353 349.48 466.534C343.404 467.726 328.84 467.475 324.108 470.438C319.375 473.389 311.34 493.187 310.912 500.883C310.675 505.114 312.658 523.218 309.834 540.618C307.75 553.587 302.991 566.167 292.659 572.331C291.628 572.934 290.536 573.486 289.394 573.977L280.882 578.709L267.072 586.381C264.724 587.661 260.38 590.159 255.71 593.511C255.76 593.901 255.786 594.302 255.798 594.717C256.363 608.301 248.604 615.306 241.498 619.637C239.188 623.58 235.962 626.505 232.672 628.753V628.765C240.494 631.363 264.624 632.029 264.624 638.946C264.624 639.085 264.624 639.223 264.599 639.361C264.599 639.361 264.511 643.768 255.459 642.085C255.459 642.085 253.162 643.102 248.34 642.474C246.91 642.274 242.628 642.21 237.13 642.161C245.754 643.617 254.154 645.613 253.563 649.92C253.563 649.92 253.488 654.326 244.423 652.632C244.423 652.632 242.151 653.661 237.33 653.021C232.51 652.38 195.623 653.221 188.103 650.937C180.571 648.651 191.216 642.474 192.548 637.803C186.17 635.895 177.607 632.82 175.75 629.618C175.21 628.702 174.871 626.493 174.683 623.403C165.668 613.749 159.466 601.495 157.106 588.502C154.482 574.127 156.566 558.923 162.956 545.791C164.739 542.138 166.886 538.585 169.762 535.697C172.648 532.822 176.339 530.625 180.37 530.047C172.648 537.279 166.936 546.657 164.074 556.865C161.224 567.046 161.224 578.019 164.099 588.226C165.191 592.156 166.735 595.997 169.108 599.323C170.69 601.559 172.686 603.556 175.008 605.037C175.184 602.225 175.423 599.323 175.699 596.449C176.93 583.97 179.064 571.754 181.839 567.359C182.767 565.891 184.487 563.706 186.81 561.007C189.12 558.295 192.032 555.082 195.372 551.541C210.463 535.497 234.04 512.81 248.83 501.523C254.267 497.381 258.962 492.095 262.954 486.533C274.643 470.225 280.292 451.418 280.292 451.418C278.132 446.571 276.4 441.663 276.35 439.817C276.236 435.586 291.014 426.158 294.855 428.317C294.855 428.317 297.504 429.309 299.79 431.355C300.166 431.355 303.054 431.33 306.732 431.305C312.407 431.267 319.964 431.255 323.103 431.355C326.694 431.469 329.607 434.117 332.771 436.439C334.315 437.57 335.91 438.65 337.642 439.302C341.056 440.609 349.318 439.126 354.967 438.625C354.666 438.775 350.51 441.098 352.255 442.29C354.051 443.534 361.232 444.538 361.232 444.538C361.471 449.999 360.655 457.682 354.566 459.265Z" fill="#AC5F43"/>
<path id="path328_2" d="M351.517 438.32C351.225 438.477 347.063 440.803 348.803 441.995C350.605 443.236 357.785 444.235 357.785 444.235C357.675 441.812 357.359 439.829 357.213 439.001C357.031 438.028 354.682 438.015 351.517 438.32Z" fill="#473220"/>
<path id="path332_2" d="M216.627 640.472C216.382 640.472 216.137 640.383 215.943 640.202C215.045 639.362 214.247 638.523 214.366 637.474C214.509 636.204 215.73 635.492 218.681 633.774C220.25 632.861 222.402 631.608 225.101 629.855C235.667 622.986 245.531 613.524 238.581 595.405C231.467 576.868 216.507 572.471 216.358 572.429C215.827 572.279 215.517 571.727 215.665 571.196C215.814 570.664 216.366 570.356 216.895 570.501C217.547 570.683 232.958 575.169 240.447 594.69C247.954 614.253 236.771 624.655 226.191 631.532C223.45 633.313 221.274 634.579 219.686 635.502C218.051 636.455 216.507 637.353 216.345 637.733C216.386 637.726 216.497 637.981 217.31 638.741C217.713 639.117 217.735 639.75 217.358 640.153C217.161 640.365 216.894 640.472 216.627 640.472Z" fill="#473220"/>
<path id="path342_2" d="M189.098 638.514C188.994 638.514 188.889 638.498 188.785 638.464C188.259 638.292 187.976 637.725 188.148 637.201C190.349 630.529 189.105 627.6 186.098 620.526C185.192 618.395 184.165 615.98 183.039 613C178.046 599.792 182.441 591.36 182.63 591.007C182.892 590.52 183.501 590.337 183.984 590.6C184.469 590.861 184.653 591.465 184.393 591.952C184.351 592.031 180.259 599.989 184.91 612.292C186.022 615.235 187.041 617.631 187.939 619.744C190.965 626.867 192.484 630.44 190.048 637.828C189.909 638.248 189.518 638.514 189.098 638.514Z" fill="#473220"/>
<path id="path344_2" d="M284.579 464.02C281.099 464.021 276.826 454.241 274.509 448.168C274.312 447.652 274.57 447.075 275.086 446.876C275.602 446.683 276.179 446.939 276.377 447.455C279.333 455.199 283.201 462.163 284.521 462.031C286.471 461.316 286.942 459.961 288.134 455.792C288.436 454.736 288.777 453.54 289.206 452.181C290.268 448.819 292.317 447.067 294.125 445.521C296.107 443.824 297.821 442.361 298.441 439.023C299.568 432.944 294.621 430.852 294.41 430.765C293.901 430.559 293.653 429.977 293.858 429.467C294.063 428.955 294.642 428.703 295.154 428.911C295.221 428.936 301.838 431.667 300.406 439.387C299.658 443.421 297.506 445.261 295.423 447.04C293.663 448.545 292.002 449.967 291.113 452.783C290.691 454.121 290.354 455.301 290.057 456.341C288.865 460.512 288.209 462.809 285.202 463.909C284.998 463.985 284.79 464.02 284.579 464.02Z" fill="#473220"/>
<path id="path346_2" d="M313.618 442.225C313.618 444.551 314.956 446.435 316.606 446.435C318.257 446.435 319.596 444.551 319.596 442.225C319.596 439.9 318.257 438.015 316.606 438.015C314.956 438.015 313.618 439.9 313.618 442.225Z" fill="#473220"/>
<path id="path348_2" d="M344.543 461.48C343.53 461.48 342.445 461.38 341.31 461.135C339.859 461.297 330.767 462.092 329.747 456.364C329.651 455.819 330.013 455.3 330.557 455.204C331.095 455.109 331.621 455.468 331.717 456.012C332.457 460.167 341.143 459.143 341.23 459.131C341.35 459.113 341.469 459.12 341.583 459.147C346.538 460.283 350.593 458.107 350.634 458.085C351.121 457.82 351.725 457.997 351.99 458.48C352.255 458.963 352.081 459.569 351.599 459.836C351.449 459.92 348.571 461.48 344.543 461.48Z" fill="#473220"/>
</g>
<path id="dogTail_2" d="M162.957 544.749C156.566 557.883 154.485 573.084 157.102 587.457C159.463 600.444 165.67 612.7 174.689 622.351C174.421 617.715 174.555 611.093 175.005 603.985C172.693 602.513 170.697 600.517 169.114 598.277C166.741 594.955 165.195 591.108 164.101 587.177C161.227 576.979 161.227 566 164.075 555.813C166.935 545.613 172.645 536.231 180.373 529C176.345 529.572 172.645 531.776 169.759 534.648C166.887 537.532 164.745 541.087 162.957 544.749Z" fill="#AC5F43"/>
</g>
<defs>
<linearGradient id="paint0_linear_14_407" x1="626.262" y1="388.309" x2="58.7623" y2="159.309" gradientUnits="userSpaceOnUse">
<stop stop-color="#F0C8B2"/>
<stop offset="0.715" stop-color="#EA9261"/>
<stop offset="0.7151" stop-color="#EA9261"/>
<stop offset="0.805" stop-color="#ED9463"/>
<stop offset="1" stop-color="#C2784F"/>
</linearGradient>
</defs>
</svg>
