<svg width="677" height="692" viewBox="0 0 677 692" fill="none" xmlns="http://www.w3.org/2000/svg">
<g id="animal_rescue_lp">
<g id="all">
<g id="path14" filter="url(#filter0_d_14_407)">
<path d="M311.262 624.989C167.883 602.413 73.2274 468.905 53.2683 335.071C19.2173 209.54 127.217 30.8439 271.442 109.677C317.932 138.827 346.089 194.063 398.96 213.818C460.71 232.661 535.706 199.227 583.201 256.953C613.176 289.668 622.168 330.374 622.597 372.251C624.284 537.499 458.703 648.854 311.262 624.989Z" fill="url(#paint0_linear_14_407)"/>
</g>
<path id="path16" d="M549.886 343.79C549.886 343.79 544.644 323.71 552.74 295.738C560.836 267.768 580.811 265.042 588.034 275.165C595.258 285.286 586.791 297.176 581.104 304.085C575.416 310.993 557.326 325.17 549.886 343.79Z" fill="#7EA78B"/>
<path id="path18" d="M556.13 352.466C556.13 352.466 574.374 325.062 595.148 313.072C615.924 301.082 632.818 323.492 622.274 337.066C611.73 350.641 577.512 339.816 556.13 352.466Z" fill="#7EA78B"/>
<path id="path20" d="M544.466 380.268C544.463 380.268 544.46 380.268 544.456 380.268C543.908 380.262 543.466 379.816 543.466 379.268C543.466 346.12 563.539 299.838 563.74 299.375C563.963 298.869 564.556 298.638 565.059 298.86C565.563 299.081 565.795 299.67 565.574 300.175C565.396 300.582 549.8 336.545 546.202 367.493C550.882 355.226 563.543 336.694 597.762 328.706C598.3 328.582 598.838 328.916 598.963 329.453C599.088 329.99 598.755 330.529 598.218 330.654C546.711 342.677 545.472 378.92 545.466 379.285C545.455 379.83 545.01 380.268 544.466 380.268Z" fill="#473220"/>
<path id="path22" d="M611.51 620.78H285.238V349.984H611.51V620.78Z" fill="#8DA6BC"/>
<path id="path24" d="M426.124 492.952H306.582V367.294H426.124V492.952Z" fill="#7A93A5"/>
<path id="path26" d="M315.629 371.833H320.201V488.413H315.629V371.833Z" fill="#B7CCDA"/>
<path id="path28" d="M339.528 371.833H344.1V488.413H339.528V371.833Z" fill="#B7CCDA"/>
<path id="path30" d="M363.429 371.833H368.002V488.413H363.429V371.833Z" fill="#B7CCDA"/>
<path id="path32" d="M387.33 371.833H391.902V488.413H387.33V371.833Z" fill="#B7CCDA"/>
<path id="path34" d="M411.23 371.833H415.802V488.413H411.23V371.833Z" fill="#B7CCDA"/>
<path id="path36" d="M310.534 488.413H422.173V371.833H310.534V488.413ZM430.077 497.49H302.629V362.756H430.077V497.49Z" fill="#B7CCDA"/>
<path id="path38" d="M347.408 381.613H297.479V358.4H347.408V381.613Z" fill="#F8E6E1"/>
<path id="path40" d="M565.04 492.952H445.496V367.294H565.04V492.952Z" fill="#7A93A5"/>
<path id="path42" d="M454.545 371.833H459.117V488.413H454.545V371.833Z" fill="#B7CCDA"/>
<path id="path44" d="M478.444 371.833H483.016V488.413H478.444V371.833Z" fill="#B7CCDA"/>
<path id="path46" d="M502.344 371.833H506.916V488.413H502.344V371.833Z" fill="#B7CCDA"/>
<path id="path48" d="M526.245 371.833H530.818V488.413H526.245V371.833Z" fill="#B7CCDA"/>
<path id="path50" d="M550.146 371.833H554.718V488.413H550.146V371.833Z" fill="#B7CCDA"/>
<path id="path52" d="M449.45 488.413H561.087V371.833H449.45V488.413ZM568.993 497.49H441.545V362.756H568.993V497.49Z" fill="#B7CCDA"/>
<path id="path54" d="M486.325 381.613H436.394V358.4H486.325V381.613Z" fill="#F8E6E1"/>
<path id="path56" d="M577.282 620.78H611.51V349.984H577.282V620.78Z" fill="#B7CCDA"/>
<path id="path58" d="M564.083 609.034H308.518V514.766H564.083V609.034Z" fill="#7A93A5"/>
<path id="path60" d="M317.566 519.305H322.138V604.495H317.566V519.305Z" fill="#B7CCDA"/>
<path id="path62" d="M338.622 519.305H343.194V604.495H338.622V519.305Z" fill="#B7CCDA"/>
<path id="path64" d="M359.678 519.305H364.251V604.495H359.678V519.305Z" fill="#B7CCDA"/>
<path id="path66" d="M380.735 519.305H385.307V604.495H380.735V519.305Z" fill="#B7CCDA"/>
<path id="path68" d="M401.791 519.305H406.363V604.495H401.791V519.305Z" fill="#B7CCDA"/>
<path id="path70" d="M422.849 519.305H427.421V604.495H422.849V519.305Z" fill="#B7CCDA"/>
<path id="path72" d="M443.904 519.305H448.476V604.495H443.904V519.305Z" fill="#B7CCDA"/>
<path id="path74" d="M464.961 519.305H469.534V604.495H464.961V519.305Z" fill="#B7CCDA"/>
<path id="path76" d="M486.018 519.305H490.59V604.495H486.018V519.305Z" fill="#B7CCDA"/>
<path id="path78" d="M507.074 519.305H511.647V604.495H507.074V519.305Z" fill="#B7CCDA"/>
<path id="path80" d="M528.131 519.305H532.703V604.495H528.131V519.305Z" fill="#B7CCDA"/>
<path id="path82" d="M549.187 519.305H553.759V604.495H549.187V519.305Z" fill="#B7CCDA"/>
<path id="path84" d="M312.471 604.495H560.13V519.305H312.471V604.495ZM568.035 613.571H304.566V510.227H568.035V613.571Z" fill="#B7CCDA"/>
<path id="path86" d="M349.346 529.085H299.417V505.872H349.346V529.085Z" fill="#F8E6E1"/>
<path id="path88" d="M213.766 612.847C223.269 592.773 251.966 481.981 222.818 475.9C208.898 478.494 201.189 507.862 196.173 519.956C196.357 499.838 183.015 408.529 153.763 417.769C140.642 423.858 150.699 470.658 149.378 485.4C140.734 469.949 106.189 428.034 87.2973 443.113C77.3396 453.202 109.112 499.056 113.943 513.532C66.0838 465.482 -5.0839 501.554 98.5682 558.798C82.7073 553.552 56.9177 552.386 52.515 572.712C52.7073 601.631 73.5942 616.658 97.7188 620.233H211.471L213.766 612.847Z" fill="#BDC892"/>
<path id="path90" d="M156.551 490.737C156.551 490.737 162.683 467.244 153.211 434.518C143.74 401.794 120.371 398.605 111.92 410.448C103.469 422.29 113.374 436.2 120.028 444.282C126.682 452.365 147.846 468.952 156.551 490.737Z" fill="#7EA78B"/>
<path id="path92" d="M126.528 511.709C126.528 511.709 119.872 473.773 103.255 451.158C86.6369 428.545 57.9999 444.606 62.9114 464.106C67.8234 483.606 109.571 488.101 126.528 511.709Z" fill="#7EA78B"/>
<path id="path94" d="M174.958 642.238C174.475 642.238 174.056 641.892 173.974 641.41C167.366 603.456 156.479 569.274 141.618 539.817C124.784 506.45 101.962 477.749 75.6171 456.817C75.1849 456.473 75.1135 455.845 75.4562 455.412C75.801 454.98 76.4297 454.906 76.8619 455.252C103.43 476.361 126.44 505.293 143.403 538.916C157.224 566.309 167.624 597.752 174.364 632.486C176.968 560.693 161.354 489.092 129.012 424.864C128.764 424.372 128.963 423.77 129.456 423.521C129.951 423.272 130.551 423.473 130.799 423.965C164.603 491.098 180.219 566.25 175.956 641.295C175.927 641.802 175.523 642.207 175.016 642.238C174.996 642.238 174.978 642.238 174.958 642.238Z" fill="#473220"/>
<path id="path96" d="M97.7188 620.233H616.684C616.684 620.233 564.347 684.482 357.202 684.482C150.056 684.482 97.7188 620.233 97.7188 620.233Z" fill="#F0C8B2"/>
<path id="path128" d="M581.66 622.728C581.703 623.829 579.587 625.888 577.958 627.302C568.436 618.582 553.067 606.902 542.416 599.053L542.774 598.553C542.774 598.553 544.875 596.165 547.506 592.062C556.684 599.882 581.603 621.269 581.66 622.728Z" fill="#F0C8B8"/>
<path id="path130" d="M577.958 627.302C581.017 630.076 583.462 632.564 584.977 634.522C584.977 634.522 585.491 640.141 578.701 641.685C576.942 638.797 575.699 634.265 575.699 634.265C575.699 634.265 569.137 628.504 553.839 616.252C538.543 603.999 524.747 592.792 524.747 592.792C527.993 591.418 530.522 590.404 530.522 590.404C530.522 590.404 535.469 593.921 542.417 599.053C553.067 606.902 568.437 618.582 577.958 627.302Z" fill="#F5DED0"/>
<path id="path132" d="M575.699 634.265C575.699 634.265 576.942 638.797 578.7 641.685C577.828 641.898 576.828 642.028 575.699 642.07C565.763 642.47 558.014 635.522 544.175 635.194C533.424 634.922 518.914 635.309 512.967 635.494C512.88 629.261 512.094 613.578 506.419 608.689C506.419 608.689 509.335 599.81 515.154 597.037C517.984 595.68 521.687 594.078 524.747 592.792C524.747 592.792 538.543 603.999 553.839 616.252C569.136 628.504 575.699 634.265 575.699 634.265Z" fill="#B23F21"/>
<path id="path134" d="M556.684 569.545C554.968 578.923 550.838 586.873 547.506 592.062C544.875 596.165 542.774 598.553 542.774 598.553L542.416 599.053C535.468 593.921 530.522 590.404 530.522 590.404C530.522 590.404 527.992 591.418 524.747 592.792C521.687 594.078 517.984 595.68 515.154 597.037C509.335 599.81 506.419 608.689 506.419 608.689C512.094 613.578 512.88 629.261 512.967 635.494C512.995 637.11 512.967 638.095 512.967 638.095C511.88 638.597 485.36 639.754 485.36 639.754C485.36 639.754 425.931 645.158 403.828 641.083C381.727 637.009 384.3 612.462 384.3 612.462C378.939 600.74 383.314 595.48 390.762 586.244C398.21 576.994 464.531 547.486 464.531 547.486C464.531 551.504 464.488 556.822 464.488 556.822C464.488 556.822 504.016 552.333 516.212 551.332C516.226 551.246 516.255 551.146 516.268 551.061L517.14 551.261C517.14 551.261 538.756 544.428 548.964 536.378C551.295 540.31 559.33 555.149 556.684 569.545Z" fill="#5E85A9"/>
<path id="path136" d="M419.14 418.192C419.468 420.922 420.183 431.586 412.65 438.162C409.062 434.746 405.259 432.173 405.058 432.043C411.448 429.142 419.612 423.824 419.14 418.192Z" fill="#473220"/>
<path id="path138" d="M412.65 438.162C414.065 439.493 415.451 440.965 416.567 442.481L415.895 442.624C414.309 443.81 412.106 443.724 410.177 443.296C408.233 442.852 406.331 442.124 404.358 442.166C399.741 442.252 396.009 446.484 391.406 446.698C389.018 446.812 386.731 445.826 384.629 444.725C382.513 443.61 380.441 442.352 378.11 441.837C375.794 441.308 373.093 441.68 371.491 443.438C369.703 441.38 369.69 438.349 370.061 435.646C370.433 432.96 371.062 430.172 370.262 427.569C369.39 424.696 366.802 422.222 367.174 419.249C367.545 416.189 370.862 414.26 371.605 411.286C371.891 410.142 371.762 408.928 371.477 407.798C370.547 404.052 367.902 400.564 368.446 396.746C368.975 393.086 372.206 390.542 374.75 387.869C378.367 384.066 380.926 379.292 382.113 374.173C382.642 371.9 383.057 369.284 384.986 367.954C386.173 367.14 387.703 367.01 389.147 366.91C391.934 366.71 394.694 366.51 397.467 366.31C401.013 365.496 404.573 364.666 408.118 363.852C409.947 363.45 411.849 363.036 413.694 363.437C415.981 363.937 417.811 365.609 419.855 366.768C422.229 368.112 424.959 368.784 427.675 368.697C429.962 368.626 432.35 368.04 434.494 368.841C437.111 369.813 438.611 372.529 439.685 375.117C440.77 377.69 441.786 380.506 444.045 382.15C446.589 384.024 450.391 384.109 452.265 386.653C453.851 388.826 453.337 391.829 453.109 394.517C452.879 397.076 452.979 399.677 453.409 402.222C453.566 403.18 453.794 404.166 454.338 404.981C455.367 406.497 457.311 407.082 458.613 408.369C462.173 411.844 459.699 418.392 461.871 422.652H461.886C461.871 422.666 461.886 422.666 461.886 422.666C457.926 424.41 454.623 427.884 450.321 428.213C448.434 428.356 446.618 427.87 444.817 427.241C442.429 426.397 440.055 425.297 437.554 425.068C433.465 424.71 429.619 426.712 426.074 428.885C425.387 427.684 424.83 426.44 424.659 425.068C424.502 423.624 424.787 422.18 424.845 420.736C424.93 418.449 424.415 416.146 423.343 414.13C426.074 411.457 428.89 407.397 427.618 402.794C425.487 395.102 419.126 393.086 415.294 397.461C413.179 397.218 411.234 396.118 409.662 394.674C408.09 393.23 406.846 391.457 405.645 389.698C405.087 388.884 404.515 388.04 403.658 387.554C402.857 387.082 401.899 386.982 400.97 387.01C398.067 387.097 395.009 388.284 392.349 387.097C391.049 386.51 390.047 385.41 389.075 384.352C388.218 383.394 387.346 382.436 386.487 381.478C386.23 381.978 382.042 390.085 382.085 393.201C382.127 396.418 382.77 399.464 382.642 400.378C382.513 401.293 376.251 410.357 376.451 411.157C376.638 411.972 379.439 415.032 382.427 414.274C382.427 414.274 384.271 430.729 385.945 433.517C387.603 436.318 396.281 435.589 403.029 432.902C403.671 432.645 404.358 432.358 405.058 432.044C405.259 432.173 409.062 434.746 412.65 438.162Z" fill="#473220"/>
<path id="path140" d="M492.323 558.166C494.295 540.31 496.183 522.854 496.083 521.853C495.926 520.181 475.052 498.75 466.804 490.33C471.736 488 486.99 480.365 494.367 471.802C500.743 480.309 523.474 510.83 523.903 514.505C524.118 516.392 520.443 533.033 516.268 551.061C510.951 573.977 504.818 599.153 504.818 599.153C505.075 602.141 504.531 605.201 503.546 608.145C500.6 616.923 493.667 624.658 491.708 626.373C489.078 628.661 486.747 631.792 486.347 635.823C486.232 636.923 485.86 638.31 485.36 639.754C484.074 643.571 481.972 647.732 481.972 647.732C479.742 648.361 478.684 645.658 478.684 645.658C478.684 645.658 477.198 648.232 475.71 647.646C474.223 647.045 473.723 636.909 473.723 636.909C473.723 636.909 472.736 640.783 471.736 644.058C470.75 647.346 467.218 647.546 466.675 646.245C466.132 644.958 466.675 641.283 466.675 641.283C464.688 643.571 460.556 643.671 461.4 640.483C462.243 637.31 466.032 620.569 466.475 617.938C466.918 615.293 487.934 597.166 487.934 597.166C487.934 597.166 490.178 577.437 492.323 558.166Z" fill="#D5826D"/>
<path id="path144" d="M426.074 428.885C429.619 426.712 433.464 424.71 437.554 425.068C440.055 425.297 442.428 426.397 444.816 427.241C432.222 437.234 436.667 453.302 436.667 453.302C436.51 463.925 425.831 469.601 425.831 469.601C425.831 469.601 422.428 457.877 419.97 450.172C419.498 448.67 419.054 447.326 418.683 446.241C418.254 444.997 417.51 443.724 416.567 442.481C415.451 440.965 414.064 439.493 412.65 438.162C420.183 431.586 419.468 420.922 419.14 418.192C419.14 418.177 419.14 418.162 419.14 418.148C419.14 418.034 419.126 417.934 419.098 417.82C419.068 417.633 419.054 417.533 419.054 417.533C419.054 417.533 421.17 416.261 423.343 414.13C424.415 416.146 424.93 418.449 424.844 420.736C424.787 422.18 424.502 423.624 424.659 425.068C424.83 426.44 425.387 427.684 426.074 428.885Z" fill="#D5826D"/>
<path id="path146" d="M423.343 414.13C421.17 416.261 419.054 417.533 419.054 417.533C419.054 417.533 419.068 417.633 419.098 417.82C419.111 417.905 419.126 418.02 419.14 418.148C419.14 418.162 419.14 418.177 419.14 418.192C419.612 423.824 411.448 429.142 405.058 432.044C404.358 432.358 403.671 432.645 403.028 432.902C396.28 435.589 387.603 436.318 385.944 433.517C384.271 430.729 382.427 414.274 382.427 414.274L382.642 400.378C382.77 399.464 382.127 396.418 382.084 393.201C382.042 390.085 386.23 381.978 386.487 381.478C387.346 382.436 388.218 383.394 389.075 384.352C390.047 385.41 391.048 386.51 392.348 387.097C395.008 388.284 398.067 387.097 400.97 387.01C401.899 386.982 402.856 387.082 403.658 387.554C404.515 388.04 405.087 388.884 405.644 389.698C406.846 391.457 408.09 393.23 409.662 394.674C411.234 396.118 413.179 397.218 415.294 397.461C419.126 393.086 425.487 395.102 427.618 402.794C428.89 407.397 426.074 411.457 423.343 414.13Z" fill="#D5826D"/>
<path id="path148" d="M410.304 507.429C406.344 505.783 396.738 501.438 392.65 496.52C389.432 492.661 387.002 486.913 385.63 483.068C384.758 480.68 384.3 479.036 384.3 479.036L415.895 442.624L416.567 442.481C417.51 443.724 418.254 444.997 418.683 446.241C419.054 447.326 419.498 448.67 419.97 450.172C419.97 450.172 418.783 482.953 421.112 497.793L412.05 508.143C412.05 508.143 411.391 507.899 410.304 507.429Z" fill="#8A59A8"/>
<path id="path150" d="M421.113 497.793C418.783 482.953 419.97 450.172 419.97 450.172C422.429 457.877 425.831 469.601 425.831 469.601C425.831 469.601 436.51 463.925 436.667 453.302C436.667 453.302 432.222 437.234 444.817 427.241C446.618 427.87 448.434 428.356 450.321 428.213C454.623 427.884 457.926 424.41 461.886 422.666C461.886 422.666 461.901 422.652 461.915 422.652H461.929C465.217 422.652 486.862 434.446 505.618 454.689C524.503 475.061 552.91 532.389 552.91 532.389C551.995 533.733 550.638 535.077 548.964 536.378C538.756 544.428 517.14 551.261 517.14 551.261L516.269 551.061C520.443 533.033 524.118 516.392 523.903 514.505C523.474 510.83 500.743 480.309 494.367 471.802C486.99 480.365 471.737 488 466.805 490.33C475.053 498.75 495.926 520.181 496.083 521.853C496.183 522.854 494.295 540.31 492.323 558.166C481.358 558.994 464.489 556.822 464.489 556.822C464.489 556.822 464.531 551.504 464.531 547.486C464.531 545.513 464.517 543.869 464.489 543.312C464.387 541.625 459.712 527.029 459.712 527.029C459.712 527.029 426.531 512.518 422.471 503.182C421.929 501.938 421.485 500.08 421.113 497.793Z" fill="#8A59A8"/>
<path id="path152" d="M393.002 402.946C393.002 404.745 391.732 406.204 390.167 406.204C388.602 406.204 387.332 404.745 387.332 402.946C387.332 401.146 388.602 399.688 390.167 399.688C391.732 399.688 393.002 401.146 393.002 402.946Z" fill="#473220"/>
<path id="path154" d="M387.141 392.814C389.595 393.02 391.913 393.642 394.141 394.688C394.543 394.876 394.886 395.392 394.999 395.804C395.123 396.25 395.067 396.846 394.811 397.242C394.554 397.641 394.171 397.993 393.695 398.101C393.181 398.218 392.733 398.136 392.255 397.913C392.135 397.857 392.014 397.805 391.894 397.752C390.537 397.197 389.121 396.814 387.67 396.606C387.494 396.586 387.318 396.565 387.141 396.55C386.638 396.508 386.187 396.37 385.821 396.002C385.497 395.678 385.253 395.148 385.274 394.682C385.315 393.74 386.099 392.726 387.141 392.814Z" fill="#473220"/>
<path id="path156" d="M406.859 410.889C406.859 412.825 404.146 414.393 400.798 414.393C397.451 414.393 394.738 412.825 394.738 410.889C394.738 408.954 397.451 407.386 400.798 407.386C404.146 407.386 406.859 408.954 406.859 410.889Z" fill="#BE4E36"/>
<path id="path158" d="M382.427 414.274C379.439 415.032 376.638 411.972 376.451 411.157C376.251 410.357 382.512 401.293 382.642 400.378L382.427 414.274Z" fill="#BE4E36"/>
<path id="girl_smile" d="M384.9 421.114C384.354 421.114 383.91 420.676 383.902 420.128C383.895 419.576 384.336 419.124 384.888 419.114C384.926 419.114 388.779 419.025 390.488 416.564C390.803 416.109 391.428 415.997 391.88 416.312C392.335 416.628 392.447 417.25 392.131 417.704C389.827 421.02 385.112 421.112 384.912 421.114C384.908 421.114 384.904 421.114 384.9 421.114Z" fill="#473220"/>
<path id="path162" d="M419.667 409.986C419.128 409.986 418.684 409.561 418.667 409.02C418.504 404.188 421.028 398.032 421.135 397.772C421.347 397.261 421.928 397.024 422.443 397.23C422.952 397.442 423.195 398.026 422.984 398.537C422.959 398.596 420.518 404.558 420.667 408.953C420.684 409.505 420.252 409.966 419.7 409.986C419.688 409.986 419.676 409.986 419.667 409.986Z" fill="#473220"/>
<path id="path164" d="M417.707 423.841C417.474 423.841 417.24 423.76 417.052 423.596C416.634 423.234 416.59 422.602 416.952 422.185C418.808 420.044 418.114 417.872 418.107 417.849C417.938 417.346 418.192 416.798 418.687 416.604C420.779 415.777 422.536 413.54 422.554 413.517C422.894 413.08 423.52 413.002 423.956 413.342C424.392 413.68 424.472 414.306 424.134 414.742C424.059 414.842 422.416 416.941 420.186 418.112C420.328 419.284 420.256 421.428 418.462 423.496C418.264 423.724 417.987 423.841 417.707 423.841Z" fill="#473220"/>
<path id="path166" d="M421.112 498.793C420.618 498.793 420.187 498.425 420.12 497.921C417.995 481.618 418.959 450.453 418.968 450.14C418.987 449.588 419.454 449.185 420 449.172C420.552 449.189 420.986 449.652 420.968 450.202C420.958 450.516 419.999 481.52 422.106 497.664C422.175 498.21 421.79 498.713 421.242 498.785C421.199 498.79 421.155 498.793 421.112 498.793Z" fill="#473220"/>
<path id="path168" d="M419.738 491.504C419.341 491.504 418.963 491.264 418.809 490.87L411.721 472.941C411.517 472.428 411.769 471.848 412.283 471.644C412.794 471.44 413.377 471.692 413.579 472.206L420.669 490.136C420.871 490.649 420.619 491.23 420.106 491.433C419.986 491.481 419.861 491.504 419.738 491.504Z" fill="#473220"/>
<path id="path170" d="M353.208 519.874C353.187 519.874 353.168 519.874 353.147 519.873C352.596 519.84 352.176 519.366 352.208 518.814C352.367 516.158 353.451 513.953 353.496 513.86C353.742 513.366 354.343 513.169 354.836 513.409C355.33 513.654 355.532 514.254 355.287 514.749C355.279 514.769 354.339 516.696 354.206 518.934C354.174 519.465 353.732 519.874 353.208 519.874Z" fill="#473220"/>
<path id="path172" d="M463.493 492.584C463.279 492.584 463.066 492.516 462.891 492.384C462.602 492.165 455.707 486.908 447.298 474.545C438.913 462.214 435.855 453.99 435.73 453.646C435.539 453.128 435.805 452.554 436.325 452.364C436.839 452.176 437.417 452.441 437.607 452.96C437.637 453.041 440.721 461.316 448.953 473.42C455.99 483.768 462.021 489.084 463.658 490.436C467.251 488.936 487.891 479.977 494.269 469.581L479.439 442.344C479.174 441.858 479.353 441.25 479.839 440.988C480.323 440.722 480.931 440.904 481.195 441.388L496.295 469.124C496.462 469.426 496.458 469.794 496.287 470.096C489.371 482.256 464.899 492.1 463.862 492.514C463.742 492.561 463.618 492.584 463.493 492.584Z" fill="#473220"/>
<path id="path174" d="M461.287 526.63C460.745 526.63 460.299 526.197 460.287 525.653C460.277 525.101 460.714 524.642 461.266 524.63L485.594 524.101C485.602 524.101 485.61 524.101 485.617 524.101C486.159 524.101 486.605 524.534 486.617 525.078C486.627 525.63 486.19 526.089 485.638 526.101L461.31 526.63C461.302 526.63 461.294 526.63 461.287 526.63Z" fill="#473220"/>
<path id="path176" d="M467.07 543.586C466.742 543.586 466.422 543.426 466.23 543.13C465.93 542.667 466.062 542.049 466.524 541.747L484.276 530.223C484.739 529.921 485.359 530.054 485.659 530.517C485.959 530.981 485.828 531.599 485.364 531.901L467.614 543.425C467.446 543.534 467.256 543.586 467.07 543.586Z" fill="#473220"/>
<path id="path178" d="M384.299 613.459C384.181 613.459 384.062 613.438 383.945 613.393C383.431 613.197 383.173 612.628 383.365 612.113C383.483 611.795 386.49 604.213 406.109 591.229C425.481 578.406 463.602 556.182 463.985 555.958C464.466 555.684 465.074 555.845 465.353 556.318C465.63 556.796 465.469 557.408 464.993 557.686C464.61 557.909 426.537 580.106 407.213 592.895C388.301 605.411 385.263 612.747 385.234 612.821C385.079 613.216 384.701 613.459 384.299 613.459Z" fill="#473220"/>
<path id="path180" d="M416.195 610.682C415.887 610.682 415.583 610.54 415.387 610.271C415.062 609.826 415.158 609.201 415.603 608.876C416.103 608.509 427.986 599.932 442.511 601.138C456.711 602.322 476.585 606.259 476.785 606.299C477.326 606.407 477.677 606.934 477.569 607.476C477.461 608.017 476.938 608.369 476.394 608.261C476.195 608.222 456.431 604.305 442.345 603.13C428.589 601.989 416.901 610.405 416.786 610.489C416.607 610.62 416.399 610.682 416.195 610.682Z" fill="#473220"/>
<path id="path182" d="M506.42 609.688C506.359 609.688 506.296 609.682 506.232 609.671L503.359 609.127C502.818 609.025 502.46 608.502 502.563 607.959C502.666 607.417 503.174 607.059 503.731 607.162L506.606 607.705C507.147 607.807 507.504 608.332 507.402 608.874C507.311 609.353 506.892 609.688 506.42 609.688Z" fill="#473220"/>
<path id="path184" d="M478.683 646.658C478.142 646.658 477.698 646.228 477.683 645.682C477.675 645.369 477.498 637.964 477.797 634.762C478.11 631.438 481.717 624.064 481.87 623.75C482.113 623.258 482.711 623.047 483.208 623.294C483.703 623.538 483.907 624.137 483.665 624.633C482.665 626.67 480.019 632.493 479.788 634.95C479.499 638.034 479.68 645.558 479.683 645.633C479.696 646.185 479.26 646.644 478.708 646.658C478.7 646.658 478.691 646.658 478.683 646.658Z" fill="#473220"/>
<path id="path186" d="M473.725 637.909C473.667 637.909 473.61 637.905 473.553 637.895C473.007 637.799 472.643 637.283 472.737 636.738C472.742 636.71 473.23 633.885 473.358 632.07C473.498 630.077 476.53 622.721 476.876 621.889C477.087 621.378 477.674 621.135 478.182 621.349C478.692 621.559 478.935 622.145 478.723 622.654C477.466 625.682 475.441 630.954 475.353 632.209C475.219 634.128 474.73 636.961 474.708 637.08C474.623 637.568 474.201 637.909 473.725 637.909Z" fill="#473220"/>
<path id="path188" d="M466.676 642.285C466.659 642.285 466.64 642.285 466.623 642.283C466.071 642.254 465.648 641.783 465.676 641.233C465.68 641.17 466.005 634.985 466.069 632.249C466.141 629.277 471.396 622.617 472.451 621.311C472.798 620.881 473.428 620.817 473.856 621.161C474.286 621.509 474.354 622.137 474.007 622.568C471.734 625.385 468.111 630.518 468.069 632.295C468.003 635.062 467.676 641.274 467.674 641.337C467.646 641.87 467.204 642.285 466.676 642.285Z" fill="#473220"/>
<path id="path190" d="M577.955 628.302C577.738 628.302 577.518 628.233 577.335 628.085L541.794 599.835C541.362 599.492 541.29 598.862 541.634 598.43C541.975 597.998 542.606 597.922 543.039 598.27L578.579 626.519C579.011 626.864 579.083 627.493 578.739 627.925C578.543 628.174 578.251 628.302 577.955 628.302Z" fill="#473220"/>
<path id="path192" d="M324.769 230.486C324.769 230.486 324.505 231.349 323.628 232.693C321.934 235.308 311.559 247.173 290.255 252.214C293.455 279.392 301.316 355.386 301.316 355.386C301.316 355.386 300.338 355.781 298.57 356.438C288.59 360.165 253.711 372.629 232.466 372.453C211.718 372.278 183.254 363.993 174.195 361.188C172.339 360.618 171.302 360.268 171.302 360.268C171.302 360.268 174.676 344.326 174.078 337.005C173.683 332.358 180.828 280.253 184.35 256.67C175.978 258.701 167.532 259.534 163.148 259.841C161.204 259.988 160.066 260.032 160.066 260.032C160.066 260.032 155.346 231.494 155.9 216.166C156.456 200.84 156.91 194.337 159.451 187.777C161.994 181.216 192.664 171.28 196.316 170.812C199.808 170.345 202.351 170.768 202.571 170.812C201.446 171.164 200.642 171.382 200.642 171.382C200.642 171.382 216.963 187.426 229.339 187.762C231.75 187.82 234.248 187.236 236.703 186.213C246.771 182.078 256.094 171.046 256.094 171.046C256.094 171.046 254.778 170.797 253.186 170.36V170.345C253.186 170.345 258.416 167.773 262.318 167.729C265.079 167.685 279.267 169.892 289.554 172.96C293.85 174.246 297.474 175.678 299.286 177.168C305.422 182.194 321.978 224.7 324.769 230.486Z" fill="#CA5353"/>
<path id="path196" d="M211.367 152.986C209.935 151.101 208.839 149.289 208.445 147.785C208.167 146.746 207.919 142.494 207.699 140.755C206.968 140.434 205.975 139.982 205.654 139.821C204.938 139.485 204.251 139.061 203.623 138.563C201.255 136.738 199.605 134.005 199.078 131.054C198.727 129.066 198.903 126.933 199.78 125.091C199.78 125.078 199.794 125.064 199.794 125.049C200.189 124.216 200.73 123.47 201.402 122.827C201.621 122.506 201.899 122.287 202.191 122.155C202.819 121.673 203.535 121.307 204.295 121.089C204.967 120.899 205.683 120.825 206.37 120.854H206.384C206.384 120.854 213.705 114.149 214.391 109.238C214.391 109.238 215.092 111.27 214.084 113.899C214.084 113.899 223.729 111.197 226.036 106.521C228.331 101.86 233.65 94.6128 239.027 95.4888C244.418 96.3661 248.978 101.378 250.234 107.31C251.695 112.438 252.149 118.692 252.294 120.854C252.397 120.854 252.499 120.854 252.586 120.854C253.201 120.854 253.799 120.927 254.368 121.089C255.128 121.307 255.845 121.673 256.487 122.155C256.78 122.287 257.043 122.506 257.277 122.827C257.934 123.47 258.475 124.216 258.87 125.049C259.775 126.904 259.951 129.052 259.586 131.054C259.074 134.005 257.423 136.738 255.055 138.563C254.413 139.061 253.741 139.485 253.01 139.821C252.718 139.982 251.754 140.376 250.979 140.682C250.761 142.452 250.511 146.733 250.234 147.785C249.679 149.888 247.735 152.621 245.427 155.25C241.862 159.313 237.419 163.126 235.973 164.018C233.591 165.494 229.339 165.61 229.339 165.61C229.339 165.61 225.087 165.494 222.691 164.018C220.982 162.952 215.063 157.793 211.367 152.986Z" fill="#E1977C"/>
<path id="path198" d="M231.287 121.188C231.287 121.188 229.154 128.496 229.336 133.472C229.519 138.448 230.306 140.174 230.306 140.174C230.306 140.174 237.076 138.042 236.448 135.644C235.819 133.245 231.287 121.188 231.287 121.188Z" fill="#D1684A"/>
<path id="path200" d="M318.587 628.551C318.587 628.551 311.515 633.33 300.294 633.534C289.071 633.738 279.443 629.034 279.443 629.034C279.559 628.026 279.706 626.974 279.866 625.907C279.866 625.907 298.276 612.961 317.871 625.322C318.163 626.433 318.412 627.514 318.602 628.551H318.587Z" fill="#F5DED0"/>
<path id="path202" d="M318.602 628.552C319.303 632.453 319.186 635.609 317.155 636.471C311.368 638.911 279.691 639.321 279.179 635.054C279.019 633.681 279.15 631.504 279.443 629.034C279.443 629.034 289.071 633.738 300.294 633.534C311.515 633.33 318.587 628.552 318.587 628.552H318.602Z" fill="#F5DED0"/>
<path id="path204" d="M173.639 638.37C164.624 638.37 151.562 638.37 151.562 638.37C151.562 638.37 150.304 636.471 149.311 633.914C149.311 633.914 157.552 634.981 173.362 633.271C173.362 633.271 176.226 632.686 180.566 631.737C190.267 629.604 207.348 625.557 216.115 621.83C215.984 623.978 215.882 625.366 215.882 625.366C209.102 629.91 173.639 638.37 173.639 638.37Z" fill="#F5DED0"/>
<path id="path206" d="M180.566 631.737C176.226 632.686 173.362 633.271 173.362 633.271C157.553 634.981 149.311 633.914 149.311 633.914C148.771 632.497 148.303 630.889 148.186 629.297C147.923 625.965 156.837 622.985 164.975 619.682C167.97 619.945 177.717 621.626 180.566 631.737Z" fill="#F5DED0"/>
<path id="path208" d="M313.094 609.059C313.151 611.252 316.177 618.704 317.871 625.322C298.277 612.961 279.866 625.907 279.866 625.907C280.553 621.435 281.562 616.73 282.219 614.334C283.008 611.514 283.212 606.502 283.242 603.302C289.306 604.092 298.686 604.734 304.355 602.353C307.847 600.877 310.566 599.197 312.582 597.692C312.743 600.688 313.021 606.254 313.094 609.059Z" fill="#B23F21"/>
<path id="path210" d="M216.218 603.595C216.73 608.65 216.379 617.068 216.115 621.83C207.348 625.557 190.267 629.604 180.566 631.737C177.716 621.626 167.97 619.945 164.975 619.682C167.766 618.557 170.468 617.389 172.69 616.161C178.227 613.093 183.108 606.634 185.899 602.382C189.23 604.004 194.943 606.152 202.206 606.21C207.699 606.254 212.579 604.983 216.218 603.595Z" fill="#B23F21"/>
<path id="path212" d="M283.242 603.302C279.75 602.85 277.352 602.353 277.352 602.353L260.287 492.473L237.536 389.914L224.912 494.417L222.924 600.322C222.924 600.322 220.382 602.032 216.218 603.595C212.579 604.983 207.699 606.254 202.206 606.21C194.943 606.152 189.23 604.004 185.899 602.382C183.839 601.345 182.699 600.526 182.699 600.526C181.282 587.318 174.384 491.874 174.384 491.874C174.384 491.874 171.331 455.813 171.302 426.064C171.272 400.756 173.523 369.853 174.195 361.188C183.254 363.993 211.718 372.278 232.466 372.453C253.711 372.629 288.59 360.165 298.57 356.438C300.03 371.752 308.359 460.168 308.827 470.644C309.323 482.129 317.155 593.41 317.155 593.41C317.155 593.41 315.723 595.34 312.582 597.692C310.566 599.197 307.847 600.877 304.355 602.353C298.686 604.734 289.306 604.092 283.242 603.302Z" fill="#4A618D"/>
<path id="path214" d="M245.631 156.449C245.631 156.449 241.116 175.882 227.951 171.893C217.912 168.839 212.886 160.218 211.075 156.302C211.191 155.09 211.294 153.95 211.367 152.986C215.063 157.793 220.982 162.951 222.691 164.018C225.087 165.494 229.339 165.61 229.339 165.61C229.339 165.61 233.591 165.494 235.972 164.018C237.419 163.126 241.862 159.313 245.427 155.25C245.484 155.557 245.558 155.966 245.631 156.449Z" fill="#473220"/>
<path id="path216" d="M259.206 112.468C258.84 116.106 257.276 122.827 257.276 122.827C257.043 122.506 256.78 122.287 256.487 122.155C255.844 121.673 255.128 121.307 254.368 121.089C253.799 120.927 253.2 120.854 252.586 120.854C252.499 120.854 252.396 120.854 252.294 120.854C252.148 118.692 251.695 112.438 250.234 107.31C248.978 101.378 244.418 96.3662 239.027 95.4888C233.65 94.6128 228.331 101.86 226.036 106.521C223.728 111.197 214.084 113.899 214.084 113.899C215.092 111.27 214.391 109.238 214.391 109.238C213.704 114.149 206.384 120.854 206.384 120.854H206.37C205.683 120.825 204.967 120.899 204.295 121.089C203.535 121.307 202.819 121.673 202.191 122.155C201.899 122.287 201.62 122.506 201.402 122.827C200.73 123.47 200.188 124.216 199.794 125.049C199.794 125.064 199.78 125.078 199.78 125.091C198.45 122.243 196.463 117.406 196.858 114.645C197.427 110.554 198.552 99.4195 204.85 92.3768C211.132 85.3342 223.802 82.3089 229.616 82.3089C235.447 82.3089 246.303 87.9062 246.303 87.9062C246.303 87.9062 252.294 88.6942 255.684 91.6315C259.074 94.5835 259.571 108.816 259.206 112.468Z" fill="#473220"/>
<path id="path218" d="M253.186 170.36C254.778 170.797 256.094 171.046 256.094 171.046C256.094 171.046 246.771 182.078 236.703 186.213C234.249 187.236 231.75 187.82 229.339 187.762C216.963 187.426 200.642 171.382 200.642 171.382C200.642 171.382 201.446 171.164 202.571 170.812C202.586 170.812 202.586 170.812 202.586 170.812C204.997 170.052 208.883 168.737 209.453 167.861C209.95 167.101 210.607 161.125 211.075 156.302C212.886 160.218 217.913 168.84 227.951 171.893C241.117 175.882 245.631 156.449 245.631 156.449C246.173 159.693 247.326 166.194 247.897 167.657C248.349 168.796 251.023 169.745 253.186 170.36Z" fill="#E1977C"/>
<path id="path220" d="M298.6 258.28C299.26 255.272 299.32 256.953 300.471 249.017C313.626 243.77 321.347 235.617 323.628 232.693C323.628 232.693 329.415 267.172 329.263 269.741C329.096 272.308 326.796 277.621 321.875 282.557C318.576 285.89 303.735 289.033 287.55 290.621C279.722 291.401 271.575 291.801 264.264 291.702C241.867 291.365 235.827 289.824 231.395 289.845C226.98 289.854 212.239 289.852 210.624 288.024C209.026 286.182 207.134 279.826 207.134 279.826L203.896 276.433C210.727 270.974 219.604 263.568 228.636 255.926C230.666 257.704 234.203 260.845 235.44 262.464C235.44 262.464 239.862 264.568 244.116 266.232C246.143 267.04 248.15 267.729 249.616 268.064L298.6 258.28Z" fill="#E1977C"/>
<path id="path222" d="M303.67 252.365C306.568 247.282 306.759 241.629 306.61 235.925C306.595 235.373 303.547 215.3 297.524 206.945C297.29 206.618 297.242 206.298 297.31 206.013C297.14 205.836 296.979 205.662 296.828 205.49C296.028 207.037 294.482 208.984 292.362 210.904C291.615 211.584 290.815 212.237 289.935 212.877C285.135 216.397 272.575 226.93 270.028 229.264C269.135 230.104 252.938 246.486 241.311 258.353C241.738 259.46 242.218 260.673 242.724 261.913C245.631 268.966 259.242 266.89 266.842 267.344C270.362 267.544 274.442 267.597 278.762 267.25C286.036 266.673 292.214 263.786 296.212 261.392C298.763 258.429 301.72 255.784 303.67 252.365Z" fill="#F0C8B2"/>
<path id="path226" d="M251.347 181.021L270.606 186.617C270.123 187.289 269.802 187.961 269.7 188.605C269.086 192.608 263.943 207.146 262.526 209.12C262.028 209.806 255.395 214.438 246.979 220.209C246.979 220.209 241.806 212.406 241.396 202.69C241.032 193.865 249.535 183.198 251.099 181.313C251.26 181.124 251.347 181.021 251.347 181.021Z" fill="#F0C8B2"/>
<path id="path228" d="M228.318 141.837C227.823 141.837 227.394 141.469 227.328 140.965C227.258 140.417 227.644 139.916 228.191 139.845C230.612 139.532 232.932 138.572 234.9 137.068C235.61 136.525 235.808 135.493 235.372 134.613C233.008 129.833 231.146 124.791 229.836 119.633C229.7 119.098 230.024 118.554 230.559 118.418C231.096 118.284 231.638 118.606 231.775 119.141C233.05 124.163 234.863 129.072 237.166 133.726C238.023 135.461 237.582 137.534 236.115 138.655C233.868 140.373 231.218 141.47 228.448 141.827C228.404 141.834 228.362 141.837 228.318 141.837Z" fill="#473220"/>
<path id="path230" d="M223.326 124.17C223.326 126.249 221.859 127.934 220.051 127.934C218.243 127.934 216.778 126.249 216.778 124.17C216.778 122.092 218.243 120.408 220.051 120.408C221.859 120.408 223.326 122.092 223.326 124.17Z" fill="#473220"/>
<path id="path232" d="M243.928 124.17C243.928 126.249 242.462 127.934 240.654 127.934C238.846 127.934 237.379 126.249 237.379 124.17C237.379 122.092 238.846 120.408 240.654 120.408C242.462 120.408 243.928 122.092 243.928 124.17Z" fill="#473220"/>
<path id="path234" d="M221.514 112.468C218.679 112.706 216.003 113.425 213.428 114.632C212.964 114.849 212.568 115.445 212.436 115.921C212.295 116.437 212.359 117.125 212.654 117.582C212.951 118.044 213.394 118.449 213.943 118.574C214.539 118.71 215.055 118.616 215.606 118.357C215.744 118.292 215.886 118.233 216.024 118.17C217.592 117.53 219.228 117.089 220.903 116.848C221.107 116.825 221.31 116.8 221.514 116.782C222.095 116.734 222.615 116.576 223.039 116.152C223.414 115.777 223.695 115.164 223.671 114.625C223.622 113.537 222.718 112.366 221.514 112.468Z" fill="#473220"/>
<path id="path236" d="M237.158 112.468C239.993 112.706 242.67 113.425 245.243 114.632C245.707 114.849 246.103 115.445 246.235 115.921C246.378 116.437 246.313 117.125 246.018 117.582C245.721 118.044 245.278 118.449 244.729 118.574C244.134 118.71 243.617 118.616 243.066 118.357C242.927 118.292 242.787 118.233 242.647 118.17C241.079 117.53 239.445 117.089 237.769 116.848C237.565 116.825 237.362 116.8 237.158 116.782C236.578 116.734 236.057 116.576 235.633 116.152C235.259 115.777 234.977 115.164 235.001 114.625C235.05 113.537 235.954 112.366 237.158 112.468Z" fill="#473220"/>
<path id="path238" d="M236.339 148.877C235.39 150.637 232.991 153.797 228.245 153.002C223.913 152.294 222.842 148.29 222.601 146.219C222.514 145.581 223.083 145.064 223.705 145.184L235.683 147.549C236.305 147.669 236.633 148.342 236.339 148.877Z" fill="white"/>
<path id="path240" d="M205.731 137.774C205.718 137.774 205.706 137.774 205.693 137.773C205.141 137.753 204.71 137.289 204.731 136.735C204.924 131.63 201.755 126.279 201.723 126.226C201.438 125.751 201.593 125.138 202.066 124.854C202.538 124.567 203.153 124.723 203.438 125.197C203.582 125.435 206.946 131.118 206.73 136.811C206.71 137.351 206.266 137.774 205.731 137.774Z" fill="#473220"/>
<path id="path242" d="M252.936 136.643C252.402 136.643 251.958 136.221 251.938 135.682C251.722 129.987 255.086 124.305 255.23 124.066C255.513 123.591 256.124 123.437 256.6 123.724C257.074 124.006 257.229 124.621 256.946 125.094C256.914 125.147 253.743 130.514 253.936 135.606C253.956 136.157 253.527 136.622 252.975 136.643C252.962 136.643 252.95 136.643 252.936 136.643Z" fill="#473220"/>
<path id="path244" d="M285.906 183.12C285.766 183.372 285.582 183.629 285.355 183.884C285.294 183.952 285.231 184.02 285.16 184.086C285.062 184.196 284.943 184.308 284.82 184.41C284.678 184.55 284.514 184.676 284.347 184.809C284.326 184.821 284.317 184.826 284.305 184.84C284.107 184.99 283.902 185.138 283.688 185.285C283.542 185.381 283.384 185.482 283.228 185.576C283.031 185.7 282.827 185.814 282.612 185.934C282.439 186.03 282.268 186.12 282.084 186.222C281.964 186.284 281.834 186.349 281.698 186.405C279.695 187.385 277.163 188.233 274.405 188.786C274.086 188.85 273.77 188.906 273.443 188.969C273.119 189.023 272.794 189.078 272.464 189.122C272.131 189.174 271.803 189.21 271.474 189.254L269.691 189.421C269.324 189.446 268.956 189.472 268.584 189.478C268.556 189.488 268.539 189.49 268.515 189.484C268.186 189.494 267.848 189.502 267.522 189.503C267.511 189.51 267.495 189.505 267.479 189.501C267.307 189.504 267.126 189.504 266.956 189.498C266.392 189.486 265.83 189.473 265.276 189.428C265.184 189.42 265.09 189.418 264.998 189.41C264.294 189.348 263.596 189.264 262.908 189.146C262.868 189.134 262.818 189.129 262.779 189.118C262.426 189.061 262.076 188.989 261.73 188.908C261.366 188.83 261.006 188.737 260.655 188.638C260.306 188.539 259.95 188.43 259.599 188.306C259.262 188.193 258.926 188.073 258.595 187.937C258.555 187.925 258.518 187.906 258.47 187.893C257.823 187.633 257.183 187.341 256.551 187.025C256.471 186.976 256.388 186.936 256.304 186.894C255.811 186.636 255.323 186.36 254.835 186.077C254.688 185.992 254.534 185.897 254.388 185.803C254.095 185.627 253.804 185.442 253.515 185.249C253.494 185.234 253.48 185.221 253.458 185.206C253.146 185.006 252.846 184.793 252.544 184.58L251.114 183.505C250.855 183.295 250.595 183.093 250.339 182.874C250.08 182.664 249.832 182.448 249.584 182.232C249.338 182.008 249.098 181.794 248.86 181.573C246.806 179.662 245.09 177.622 243.89 175.729C243.803 175.61 243.726 175.486 243.655 175.371C243.551 175.195 243.454 175.022 243.356 174.849C243.236 174.634 243.122 174.43 243.019 174.221C242.935 174.061 242.854 173.892 242.779 173.733C242.662 173.477 242.559 173.233 242.466 172.984C242.394 172.782 242.32 172.59 242.271 172.396C242.22 172.244 242.179 172.086 242.151 171.941C242.126 171.848 242.108 171.757 242.091 171.666C242.031 171.332 242.008 171.016 242.022 170.728C242.24 166.153 249.887 152.572 249.887 152.572C249.887 152.572 250.035 151.866 250.286 150.796C250.332 150.602 250.382 150.393 250.435 150.176C250.508 149.854 250.592 149.5 250.684 149.14C251.194 147.093 251.896 144.544 252.638 142.709L252.63 142.706C252.688 142.561 252.747 142.413 252.808 142.285C252.823 142.237 252.844 142.192 252.863 142.154C252.939 141.978 253.02 141.813 253.099 141.654C253.099 141.654 253.099 141.654 253.102 141.646C253.178 141.497 253.255 141.346 253.335 141.214C253.356 141.169 253.375 141.132 253.404 141.088C253.502 140.926 253.6 140.792 253.694 140.672L253.704 140.666C253.812 140.525 253.92 140.418 254.035 140.346L254.043 140.349C255.879 139.228 264.576 148.57 264.576 148.57C264.576 148.57 268.628 149.397 271.507 150.21C274.386 151.024 278.271 152.437 278.271 152.437C278.271 152.437 290.6 149.006 291.548 150.94L291.556 150.942C291.618 151.062 291.654 151.21 291.672 151.388C291.672 151.388 291.67 151.394 291.678 151.397C291.695 151.547 291.708 151.716 291.706 151.904C291.703 151.945 291.706 151.997 291.7 152.048C291.699 152.202 291.686 152.37 291.674 152.538C291.671 152.546 291.671 152.546 291.671 152.546C291.655 152.722 291.638 152.906 291.61 153.096C291.607 153.137 291.594 153.185 291.588 153.236C291.574 153.377 291.547 153.533 291.52 153.689L291.512 153.686C291.184 155.637 290.45 158.178 289.814 160.188C289.704 160.544 289.592 160.881 289.484 161.202C289.415 161.415 289.35 161.62 289.287 161.809C288.94 162.853 288.698 163.53 288.698 163.53C288.698 163.53 288.104 179.104 285.906 183.12Z" fill="#F0C8B2"/>
<path id="path246" d="M264.234 175.485C266.15 176.025 268.474 173.501 268.474 173.501C266.328 171.41 261.658 171.576 261.658 171.576C261.658 171.576 262.319 174.944 264.234 175.485ZM276.596 180.598C278.703 184.184 271.591 188.824 271.591 188.824L271.643 189.242C270.994 189.324 270.351 189.386 269.694 189.424C266.608 189.644 263.475 189.438 260.656 188.642C257.288 187.69 253.984 185.793 251.116 183.52C251.116 183.52 247.486 175.834 251.155 173.881C254.815 171.924 259.872 169.789 260.563 169.221C261.263 168.654 264.028 157.325 269.095 158.756C274.163 160.188 270.719 170.846 271.019 171.696C271.308 172.552 274.502 177.016 276.596 180.598Z" fill="#F5DED0"/>
<path id="path248" d="M277.358 167.09C278.487 167.409 279.046 168.882 278.624 170.375C278.203 171.867 276.959 172.821 275.828 172.502C274.71 172.186 274.147 170.723 274.568 169.23C274.99 167.737 276.238 166.774 277.358 167.09Z" fill="#473220"/>
<path id="path250" d="M268.474 173.501C268.474 173.501 266.15 176.025 264.234 175.485C262.319 174.944 261.658 171.576 261.658 171.576C261.658 171.576 266.329 171.41 268.474 173.501Z" fill="#473220"/>
<path id="path252" d="M257.003 160.909C258.123 161.225 258.686 162.687 258.26 164.19C257.839 165.683 256.595 166.637 255.475 166.321C254.346 166.001 253.783 164.538 254.204 163.045C254.628 161.542 255.874 160.59 257.003 160.909Z" fill="#473220"/>
<path id="path254" d="M258.875 149.773C255.148 149.865 251.594 152.012 251.594 152.012C251.594 152.012 253.946 142.368 255.018 142.554C256.088 142.74 258.875 149.773 258.875 149.773Z" fill="#D1684A"/>
<path id="path256" d="M266.278 181.39C266.128 181.39 265.991 181.372 265.867 181.334C265.148 181.116 264.442 180.202 263.759 178.613C262.884 179.309 261.708 179.964 260.686 179.573C259.375 179.073 257.698 176.72 257.215 176.012C256.904 175.554 257.022 174.933 257.479 174.622C257.935 174.313 258.558 174.43 258.868 174.885C259.676 176.07 260.914 177.518 261.398 177.704C261.399 177.704 261.4 177.704 261.402 177.704C261.707 177.704 262.707 176.977 263.424 176.192C263.663 175.93 264.02 175.814 264.367 175.888C264.712 175.958 264.995 176.208 265.11 176.542C265.512 177.716 266.114 178.968 266.454 179.369C266.998 179.208 268.307 178.414 269.44 177.549C269.878 177.213 270.507 177.297 270.842 177.736C271.176 178.174 271.094 178.801 270.655 179.137C268.698 180.634 267.23 181.39 266.278 181.39Z" fill="#473220"/>
<path id="path258" d="M282.554 156.458C285.683 158.487 287.59 162.175 287.59 162.175C287.59 162.175 290.628 152.725 289.618 152.323C288.607 151.922 282.554 156.458 282.554 156.458Z" fill="#D1684A"/>
<path id="path260" d="M220.051 134.31C220.051 136.005 217.87 137.378 215.178 137.378C212.485 137.378 210.303 136.005 210.303 134.31C210.303 132.616 212.485 131.242 215.178 131.242C217.87 131.242 220.051 132.616 220.051 134.31Z" fill="#D1684A"/>
<path id="path262" d="M248.802 134.31C248.802 136.005 246.621 137.378 243.929 137.378C241.237 137.378 239.054 136.005 239.054 134.31C239.054 132.616 241.237 131.242 243.929 131.242C246.621 131.242 248.802 132.616 248.802 134.31Z" fill="#D1684A"/>
<path id="path264" d="M234.971 388.071C234.907 388.071 234.843 388.066 234.779 388.053L191.452 379.658C190.91 379.553 190.555 379.027 190.66 378.486C190.764 377.943 191.284 377.581 191.832 377.694L235.159 386.089C235.702 386.194 236.056 386.719 235.951 387.261C235.859 387.738 235.44 388.071 234.971 388.071Z" fill="#473220"/>
<path id="path266" d="M226.982 389.966H206.536C205.983 389.966 205.536 389.518 205.536 388.966C205.536 388.414 205.983 387.966 206.536 387.966H226.982C227.534 387.966 227.982 388.414 227.982 388.966C227.982 389.518 227.534 389.966 226.982 389.966Z" fill="#473220"/>
<path id="path268" d="M240.311 388.071C239.878 388.071 239.478 387.787 239.351 387.349C239.198 386.818 239.503 386.263 240.034 386.11L276.53 375.549C277.058 375.401 277.614 375.7 277.767 376.233C277.922 376.762 277.616 377.317 277.086 377.47L240.59 388.031C240.496 388.058 240.403 388.071 240.311 388.071Z" fill="#473220"/>
<path id="path270" d="M206.615 247.11C206.138 247.11 205.715 246.768 205.631 246.282L201.595 223.141C201.501 222.597 201.865 222.08 202.409 221.985C202.953 221.889 203.471 222.253 203.564 222.797L207.6 245.938C207.696 246.482 207.333 247 206.787 247.096C206.73 247.105 206.672 247.11 206.615 247.11Z" fill="#473220"/>
<path id="path280" d="M244.782 204.706C244.782 204.706 236.557 212.505 236.455 215.009C236.354 217.514 237.311 223 240.167 224.844C243.022 226.688 246.001 227.805 248.979 226.857C251.958 225.909 254.903 219.038 253.515 215.704C253.515 215.704 253.718 198.533 244.782 204.706Z" fill="#F0C8B2"/>
<path id="path282" d="M273.554 207.934C273.554 212.814 269.856 216.769 265.295 216.769C260.734 216.769 257.035 212.814 257.035 207.934C257.035 203.056 260.734 199.1 265.295 199.1C269.856 199.1 273.554 203.056 273.554 207.934Z" fill="#F0C8B2"/>
<path id="path284" d="M236.454 216.009C235.938 216.009 235.499 215.612 235.458 215.088C235.21 211.926 240.02 207.802 241.199 206.844C242.672 203.364 244.162 195.705 244.176 195.628C244.282 195.084 244.808 194.73 245.347 194.834C245.89 194.94 246.244 195.464 246.14 196.006C246.075 196.344 244.528 204.3 242.93 207.876C242.864 208.024 242.764 208.153 242.638 208.253C240.404 210.018 237.32 213.258 237.452 214.932C237.495 215.481 237.084 215.962 236.534 216.006C236.507 216.008 236.48 216.009 236.454 216.009Z" fill="#473220"/>
<path id="path286" d="M253.515 216.702C253.138 216.702 252.776 216.488 252.607 216.124C252.594 216.096 251.267 213.292 248.494 211.754C248.011 211.486 247.836 210.878 248.104 210.394C248.372 209.91 248.982 209.737 249.464 210.005C252.827 211.869 254.36 215.148 254.424 215.286C254.654 215.788 254.434 216.38 253.934 216.61C253.798 216.673 253.655 216.702 253.515 216.702Z" fill="#473220"/>
<path id="path288" d="M258.04 213.16C257.568 213.16 257.148 212.825 257.059 212.345C256.982 211.938 255.251 202.376 260.196 199.733C264.767 197.292 266.675 197.97 267.012 198.13C267.51 198.369 267.722 198.966 267.483 199.464C267.246 199.962 266.648 200.172 266.15 199.934C266.16 199.945 266.055 199.912 265.82 199.912C265.22 199.912 263.76 200.097 261.139 201.497C258.104 203.12 258.584 209.612 259.024 211.977C259.126 212.518 258.768 213.042 258.226 213.142C258.163 213.154 258.102 213.16 258.04 213.16Z" fill="#473220"/>
<path id="path290" d="M270.605 268.501C270.522 268.501 270.438 268.49 270.354 268.469C270.042 268.388 262.717 266.298 260.857 250.125C258.997 233.941 276.659 224.853 276.838 224.764C277.33 224.516 277.931 224.713 278.179 225.206C278.429 225.7 278.23 226.3 277.737 226.549C277.571 226.633 261.143 235.109 262.843 249.897C264.529 264.545 270.807 266.518 270.87 266.537C271.397 266.689 271.709 267.237 271.565 267.765C271.442 268.208 271.043 268.501 270.605 268.501Z" fill="#473220"/>
<path id="path292" d="M159.897 635.516C153.874 635.516 149.531 634.953 149.178 634.905C148.631 634.833 148.247 634.33 148.321 633.782C148.394 633.234 148.898 632.844 149.445 632.923C149.613 632.944 166.524 635.133 180.264 630.785C180.79 630.611 181.352 630.909 181.519 631.435C181.686 631.962 181.394 632.523 180.867 632.69C173.751 634.944 165.97 635.516 159.897 635.516Z" fill="#473220"/>
<path id="path294" d="M300.294 634.534C288.753 634.534 279.403 630.125 279.011 629.937C278.513 629.698 278.303 629.101 278.541 628.604C278.778 628.106 279.375 627.894 279.874 628.131C279.966 628.177 289.223 632.534 300.294 632.534C311.245 632.534 317.949 627.79 318.015 627.741C318.462 627.418 319.087 627.518 319.411 627.965C319.734 628.411 319.635 629.035 319.19 629.359C318.898 629.571 311.93 634.534 300.294 634.534Z" fill="#473220"/>
<path id="path296" d="M182.948 618.19C182.552 617.453 182.132 616.721 181.534 616.125C181.012 615.605 180.386 615.182 179.722 614.865C178.379 614.219 176.92 613.919 175.463 613.661C175.075 613.592 174.676 613.765 174.564 614.17C174.467 614.523 174.684 614.999 175.075 615.069C176.359 615.297 177.698 615.529 178.89 616.081C179.447 616.34 179.98 616.658 180.426 617.085C180.974 617.61 181.331 618.265 181.687 618.928C182.132 619.757 183.394 619.019 182.948 618.19Z" fill="#F5DED0"/>
<path id="path298" d="M187.824 614.566C185.991 612.134 183.572 610.293 180.59 609.537C179.678 609.305 179.288 610.714 180.2 610.945C182.794 611.604 184.96 613.178 186.562 615.304C186.799 615.618 187.194 615.781 187.562 615.566C187.872 615.385 188.063 614.883 187.824 614.566Z" fill="#F5DED0"/>
<path id="path300" d="M195.972 606.815C195.224 607.522 194.107 607.771 193.136 607.999C190.895 608.525 188.6 608.657 186.311 608.481C187.38 606.869 188.876 605.601 190.636 604.793C192.102 604.12 194.459 603.398 195.978 604.29C196.987 604.885 196.716 606.113 195.972 606.815ZM181.723 604.309C181.087 603.604 180.51 602.847 180.034 602.025C179.627 601.323 179.082 600.419 179.164 599.571C179.267 598.498 180.771 599.35 181.307 599.698C182.079 600.201 182.711 600.911 183.195 601.692C184.214 603.339 184.571 605.286 184.827 607.193C183.74 606.287 182.672 605.359 181.723 604.309ZM197.396 603.562C195.775 601.865 192.786 602.411 190.846 603.135C189.031 603.814 187.44 604.905 186.162 606.32C185.834 604.171 185.316 602.041 183.987 600.274C182.982 598.939 180.058 596.422 178.336 598.009C176.699 599.519 178.432 602.371 179.395 603.73C180.904 605.865 182.922 607.545 184.936 609.182C185.047 609.273 185.166 609.314 185.284 609.335C185.356 609.627 185.574 609.887 185.95 609.922C188.967 610.198 192.308 610.018 195.167 608.932C196.331 608.49 197.383 607.765 197.871 606.581C198.288 605.566 198.174 604.375 197.396 603.562Z" fill="#F5DED0"/>
<path id="path302" d="M305.21 614.844C301.496 613.066 297.279 612.622 293.282 613.622C292.37 613.85 292.756 615.259 293.67 615.032C297.268 614.131 301.123 614.502 304.472 616.105C305.316 616.509 306.059 615.249 305.21 614.844Z" fill="#F5DED0"/>
<path id="path304" d="M303.97 608.592C300.664 607.799 297.184 607.929 293.955 608.994C293.067 609.288 293.447 610.699 294.344 610.404C297.33 609.418 300.52 609.268 303.582 610.001C304.495 610.219 304.886 608.811 303.97 608.592Z" fill="#F5DED0"/>
<path id="path306" d="M305.483 602.13C304.462 602.634 303.387 603.025 302.285 603.313C301.743 603.454 301.178 603.605 300.621 603.665C301.803 601.899 303.238 600.32 304.903 598.998C305.698 598.368 306.547 597.804 307.43 597.302C307.863 597.056 308.501 596.607 309.022 596.678C309.535 596.747 309.843 597.318 309.911 597.781C310.211 599.823 306.953 601.405 305.483 602.13ZM291.394 605.873C290.319 605.93 289.243 605.844 288.199 605.575C287.317 605.349 285.609 604.854 285.082 604.011C284.086 602.422 288.989 601.322 289.926 601.235C291.791 601.064 293.711 601.365 295.414 602.156C296.242 602.541 297.029 603.035 297.713 603.639C297.79 603.706 297.861 603.783 297.935 603.856C295.901 604.917 293.705 605.753 291.394 605.873ZM309.822 595.407C308.833 594.966 307.83 595.414 306.949 595.897C305.949 596.444 305.001 597.082 304.102 597.783C302.197 599.27 300.575 601.062 299.25 603.08C299.206 603.037 299.169 603.001 299.121 602.954C296.579 600.464 292.85 599.368 289.351 599.841C287.638 600.071 285.706 600.666 284.394 601.841C283.777 602.394 283.313 603.186 283.502 604.042C283.705 604.958 284.55 605.546 285.314 605.981C289.689 608.474 294.883 607.181 299.05 604.93C299.075 604.917 299.086 604.895 299.11 604.88C299.371 605.042 299.651 605.17 299.994 605.185C300.925 605.223 301.935 604.922 302.825 604.682C303.945 604.38 305.035 603.962 306.079 603.459C307.826 602.618 309.963 601.417 310.933 599.658C311.719 598.229 311.445 596.133 309.822 595.407Z" fill="#F5DED0"/>
<path id="path310" d="M251.416 274.361C250.95 274.361 250.533 274.032 250.437 273.557C249.655 269.646 248.955 268.818 248.926 268.784C248.487 268.45 248.445 267.86 248.778 267.421C249.113 266.981 249.783 266.933 250.222 267.268C250.575 267.536 251.495 268.648 252.398 273.165C252.507 273.706 252.155 274.233 251.614 274.341C251.547 274.354 251.482 274.361 251.416 274.361Z" fill="#473220"/>
<path id="path312" d="M253.515 268.502C253.248 268.502 252.982 268.397 252.786 268.186C242.647 257.381 247.263 251.175 247.466 250.915C247.804 250.479 248.432 250.403 248.87 250.741C249.302 251.078 249.382 251.701 249.05 252.137C248.883 252.363 245.383 257.374 254.244 266.818C254.622 267.221 254.602 267.854 254.199 268.231C254.007 268.413 253.76 268.502 253.515 268.502Z" fill="#473220"/>
<path id="path314" d="M312.235 649.693C312.135 650.157 311.695 650.634 310.842 651.123C303.51 655.242 289.638 652.48 287.666 651.123C286.084 650.032 285.658 643.817 285.556 638.846C285.532 637.628 285.519 636.473 285.519 635.494C285.519 630.547 279.38 627.697 278.866 625.576C278.351 623.454 283.511 606.028 283.774 596.813C283.812 595.005 281.942 584.986 280.698 578.721L289.21 573.989C290.352 573.498 291.444 572.946 292.475 572.344C302.807 566.18 307.566 553.6 309.65 540.63L309.662 540.618C304.339 573.134 299.128 589.154 298.827 597.152C298.438 607.483 298.35 615.758 298.776 622.676C299.066 627.685 299.631 631.978 300.51 635.833C302.33 643.717 312.888 646.868 312.235 649.693Z" fill="#AC5F43"/>
<path id="path324" d="M219.038 637.416C218.696 639.74 227.947 640.665 236.942 642.174C242.443 642.223 246.727 642.283 248.163 642.478C252.983 643.111 255.271 642.089 255.271 642.089C264.326 643.781 264.411 639.376 264.411 639.376C265.396 632.061 240.471 631.416 232.487 628.774V628.762C226.048 633.192 219.379 635.116 219.038 637.416Z" fill="#AC5F43"/>
<path id="path326" d="M244.426 603.045C244.499 603.775 244.548 604.518 244.584 605.271C244.828 611.211 243.49 615.897 241.311 619.646C248.418 615.313 256.183 608.316 255.611 594.719C255.599 594.306 255.575 593.905 255.526 593.516C251.766 596.205 247.774 599.442 244.426 603.045Z" fill="#AC5F43"/>
<path id="path334" d="M244.251 653.638C243.87 653.638 243.508 653.421 243.34 653.054C243.314 652.998 241.747 649.683 238.79 649.546C238.238 649.519 237.811 649.053 237.838 648.501C237.863 647.95 238.346 647.499 238.882 647.549C243.083 647.744 245.078 652.044 245.16 652.226C245.388 652.729 245.166 653.322 244.663 653.55C244.528 653.61 244.388 653.638 244.251 653.638Z" fill="#473220"/>
<path id="path336" d="M252.258 652.877C251.762 652.877 251.331 652.507 251.267 652.004C251.262 651.961 250.684 647.932 248.399 647.794C247.848 647.761 247.428 647.288 247.462 646.737C247.495 646.185 247.987 645.78 248.519 645.797C252.499 646.038 253.223 651.522 253.251 651.756C253.319 652.302 252.931 652.801 252.383 652.869C252.342 652.874 252.299 652.877 252.258 652.877Z" fill="#473220"/>
<path id="path338" d="M304.535 653.638C304.443 653.638 304.35 653.627 304.259 653.599C303.729 653.449 303.422 652.897 303.571 652.366C303.665 652.029 304.367 649.09 301.334 647.706C300.831 647.477 300.61 646.883 300.839 646.381C301.069 645.88 301.663 645.658 302.165 645.886C305.902 647.593 305.978 651.23 305.495 652.914C305.37 653.353 304.97 653.638 304.535 653.638Z" fill="#473220"/>
<path id="path340" d="M310.832 652.116C310.796 652.116 310.759 652.114 310.723 652.109C310.174 652.049 309.778 651.556 309.838 651.006C310.144 648.21 307.618 647.823 307.328 647.789C306.78 647.723 306.388 647.225 306.455 646.677C306.52 646.128 307.031 645.73 307.567 645.804C309.224 646.004 312.246 647.394 311.826 651.225C311.77 651.737 311.336 652.116 310.832 652.116Z" fill="#473220"/>
</g>
<g id="manHand">
<path id="manHand_2" d="M299.307 194.358C299.013 196.825 298.293 198.158 298.293 198.158C298.293 198.158 299.107 202.412 299.307 204.185C299.36 204.705 299.147 205.452 298.68 206.332C297.88 207.878 296.333 209.825 294.213 211.745C293.467 212.425 292.667 213.078 291.787 213.718C286.987 217.238 274.427 227.772 271.88 230.105C270.987 230.945 261.733 240.505 250.107 252.372C248.453 254.065 246.733 255.798 245 257.572C241.32 261.345 237.48 265.225 233.68 269.065C225.347 277.465 217.147 285.625 210.827 291.665C204.507 297.692 200.053 301.625 199.173 301.598C195.96 301.505 185.84 301.425 181.507 297.945C180.907 297.478 180.427 296.932 180.093 296.318C177.707 292.065 168.067 268.292 165 260.678C171.973 260.185 189.213 258.385 200.093 252.545C200.093 252.545 221.987 237.958 237.667 227.252C246.08 221.478 252.72 216.852 253.213 216.158C254.627 214.185 259.773 199.652 260.387 195.652C260.493 194.998 260.813 194.332 261.293 193.665C263.76 190.225 270.547 186.772 273.373 185.825C276.76 184.718 279 185.158 279 185.158C279 185.158 284.92 180.625 285.893 179.198C286.547 178.292 289.067 177.892 291.173 178.025C292.36 178.092 293.413 178.358 293.893 178.785C295.253 179.985 293.627 183.198 293.627 183.198C293.627 183.198 297.853 184.985 298.56 187.118C299.267 189.252 298.027 189.825 298.027 189.825C298.027 189.825 299.613 191.892 299.307 194.358Z" fill="#E1977C"/>
<path id="path272" d="M186.724 262.722C186.423 262.722 186.124 262.586 185.927 262.328C185.593 261.886 185.68 261.26 186.119 260.925L196.1 253.35C196.54 253.018 197.167 253.102 197.501 253.542C197.835 253.982 197.749 254.61 197.309 254.944L187.329 262.52C187.148 262.656 186.936 262.722 186.724 262.722Z" fill="#473220"/>
<path id="path274" d="M292.197 187.441C292.064 187.441 291.927 187.414 291.796 187.357C291.291 187.134 291.06 186.544 291.283 186.038L292.711 182.794C292.933 182.289 293.519 182.06 294.029 182.281C294.535 182.504 294.764 183.094 294.541 183.6L293.113 186.844C292.949 187.218 292.583 187.441 292.197 187.441Z" fill="#473220"/>
<path id="path276" d="M296.463 193.941C296.312 193.941 296.159 193.906 296.015 193.834C295.521 193.586 295.323 192.985 295.569 192.492L297.131 189.382C297.38 188.888 297.981 188.689 298.473 188.937C298.967 189.185 299.167 189.785 298.919 190.278L297.357 193.389C297.181 193.738 296.829 193.941 296.463 193.941Z" fill="#473220"/>
<path id="path278" d="M295.651 202.877C295.449 202.877 295.248 202.817 295.072 202.692C294.621 202.373 294.516 201.748 294.835 201.298L297.472 197.581C297.793 197.13 298.416 197.025 298.867 197.344C299.317 197.664 299.423 198.288 299.104 198.738L296.467 202.456C296.272 202.73 295.964 202.877 295.651 202.877Z" fill="#473220"/>
<path id="path308" d="M212.476 289.865C212.212 289.865 211.947 289.761 211.751 289.553C211.371 289.153 211.387 288.52 211.787 288.14L238.097 263.154C238.497 262.773 239.129 262.789 239.511 263.19C239.891 263.59 239.875 264.224 239.475 264.605L213.165 289.59C212.971 289.774 212.723 289.865 212.476 289.865Z" fill="#473220"/>
</g>
<path id="girl_hand" d="M260.616 503.35C262.36 503.294 276.658 504.351 276.658 504.351C276.658 504.351 259.674 501.178 257.943 499.677C256.199 498.175 257.2 496.731 258.33 496.402C259.472 496.074 275.756 498.018 275.756 498.018C275.756 498.018 261.318 495.687 259.402 494.215C257.471 492.743 257.958 490.555 259.559 490.07C261.174 489.598 270.924 492.027 275.156 491.899C279.402 491.757 286.951 491.442 286.951 491.442C286.951 491.442 281.56 486.681 280.688 484.737C279.816 482.807 279.344 479.719 280.988 478.433C282.632 477.146 284.091 478.905 286.45 481.406C288.808 483.922 294.37 484.894 296.143 486.523C297.902 488.167 306.422 496.961 306.422 496.961C308.51 499.047 353.314 513.158 353.314 513.158L384.551 481.921C385.923 485.766 388.354 491.514 391.571 495.373C395.659 500.291 405.266 504.637 409.226 506.282C400.176 512.901 358.79 543.037 355.702 542.766C352.227 542.465 341.204 535.517 335.63 532.429C330.068 529.355 309.41 518.319 309.41 518.319C309.41 518.319 307.294 516.689 304.592 516.389C301.876 516.089 291.896 517.933 283.819 515.989C275.742 514.045 265.806 514.13 264.863 513.887C263.919 513.643 259.53 510.657 266.807 510.142C274.098 509.627 277.015 509.283 277.015 509.283C265.62 508.269 259.244 507.239 258.872 505.91C258.487 504.566 258.887 503.422 260.616 503.35Z" fill="#D5826D"/>
<g id="dogBody">
<path id="dogBody_2" d="M352.566 466.265C352.566 466.265 353.583 472.353 347.48 473.534C341.404 474.726 326.84 474.475 322.108 477.438C317.375 480.389 309.34 500.187 308.912 507.883C308.675 512.114 310.658 530.218 307.834 547.618C305.75 560.587 300.991 573.167 290.659 579.331C289.628 579.934 288.536 580.486 287.394 580.977L278.882 585.709L265.072 593.381C262.724 594.661 258.38 597.159 253.71 600.511C253.76 600.901 253.786 601.302 253.798 601.717C254.363 615.301 246.604 622.306 239.498 626.637C237.188 630.58 233.962 633.505 230.672 635.753V635.765C238.494 638.363 262.624 639.029 262.624 645.946C262.624 646.085 262.624 646.223 262.599 646.361C262.599 646.361 262.511 650.768 253.459 649.085C253.459 649.085 251.162 650.102 246.34 649.474C244.91 649.274 240.628 649.21 235.13 649.161C243.754 650.617 252.154 652.613 251.563 656.92C251.563 656.92 251.488 661.326 242.423 659.632C242.423 659.632 240.151 660.661 235.33 660.021C230.51 659.38 193.623 660.221 186.103 657.937C178.571 655.651 189.216 649.474 190.548 644.803C184.17 642.895 175.607 639.82 173.75 636.618C173.21 635.702 172.871 633.493 172.683 630.403C163.668 620.749 157.466 608.495 155.106 595.502C152.482 581.127 154.566 565.923 160.956 552.791C162.739 549.138 164.886 545.585 167.762 542.697C170.648 539.822 174.339 537.625 178.37 537.047C170.648 544.279 164.936 553.657 162.074 563.865C159.224 574.046 159.224 585.019 162.099 595.226C163.191 599.156 164.735 602.997 167.108 606.323C168.69 608.559 170.686 610.556 173.008 612.037C173.184 609.225 173.423 606.323 173.699 603.449C174.93 590.97 177.064 578.754 179.839 574.359C180.767 572.891 182.487 570.706 184.81 568.007C187.12 565.295 190.032 562.082 193.372 558.541C208.463 542.497 232.04 519.81 246.83 508.523C252.267 504.381 256.962 499.095 260.954 493.533C272.643 477.225 278.292 458.418 278.292 458.418C276.132 453.571 274.4 448.663 274.35 446.817C274.236 442.586 289.014 433.158 292.855 435.317C292.855 435.317 295.504 436.309 297.79 438.355C298.166 438.355 301.054 438.33 304.732 438.305C310.407 438.267 317.964 438.255 321.103 438.355C324.694 438.469 327.607 441.117 330.771 443.439C332.315 444.57 333.91 445.65 335.642 446.302C339.056 447.609 347.318 446.126 352.967 445.625C352.666 445.775 348.51 448.098 350.255 449.29C352.051 450.534 359.232 451.538 359.232 451.538C359.471 456.999 358.655 464.682 352.566 466.265Z" fill="#AC5F43"/>
<path id="path328" d="M349.517 445.32C349.225 445.477 345.063 447.803 346.803 448.995C348.605 450.236 355.785 451.235 355.785 451.235C355.675 448.812 355.359 446.829 355.213 446.001C355.031 445.028 352.682 445.015 349.517 445.32Z" fill="#473220"/>
<path id="path332" d="M214.627 647.472C214.382 647.472 214.137 647.383 213.943 647.202C213.045 646.362 212.247 645.523 212.366 644.474C212.509 643.204 213.73 642.492 216.681 640.774C218.25 639.861 220.402 638.608 223.101 636.855C233.667 629.986 243.531 620.524 236.581 602.405C229.467 583.868 214.507 579.471 214.358 579.429C213.827 579.279 213.517 578.727 213.665 578.196C213.814 577.664 214.366 577.356 214.895 577.501C215.547 577.683 230.958 582.169 238.447 601.69C245.954 621.253 234.771 631.655 224.191 638.532C221.45 640.313 219.274 641.579 217.686 642.502C216.051 643.455 214.507 644.353 214.345 644.733C214.386 644.726 214.497 644.981 215.31 645.741C215.713 646.117 215.735 646.75 215.358 647.153C215.161 647.365 214.894 647.472 214.627 647.472Z" fill="#473220"/>
<path id="path342" d="M187.098 645.514C186.994 645.514 186.889 645.498 186.785 645.464C186.259 645.292 185.976 644.725 186.148 644.201C188.349 637.529 187.105 634.6 184.098 627.526C183.192 625.395 182.165 622.98 181.039 620C176.046 606.792 180.441 598.36 180.63 598.007C180.892 597.52 181.501 597.337 181.984 597.6C182.469 597.861 182.653 598.465 182.393 598.952C182.351 599.031 178.259 606.989 182.91 619.292C184.022 622.235 185.041 624.631 185.939 626.744C188.965 633.867 190.484 637.44 188.048 644.828C187.909 645.248 187.518 645.514 187.098 645.514Z" fill="#473220"/>
<path id="path344" d="M282.579 471.02C279.099 471.021 274.826 461.241 272.509 455.168C272.312 454.652 272.57 454.075 273.086 453.876C273.602 453.683 274.179 453.939 274.377 454.455C277.333 462.199 281.201 469.163 282.521 469.031C284.471 468.316 284.942 466.961 286.134 462.792C286.436 461.736 286.777 460.54 287.206 459.181C288.268 455.819 290.317 454.067 292.125 452.521C294.107 450.824 295.821 449.361 296.441 446.023C297.568 439.944 292.621 437.852 292.41 437.765C291.901 437.559 291.653 436.977 291.858 436.467C292.063 435.955 292.642 435.703 293.154 435.911C293.221 435.936 299.838 438.667 298.406 446.387C297.658 450.421 295.506 452.261 293.423 454.04C291.663 455.545 290.002 456.967 289.113 459.783C288.691 461.121 288.354 462.301 288.057 463.341C286.865 467.512 286.209 469.809 283.202 470.909C282.998 470.985 282.79 471.02 282.579 471.02Z" fill="#473220"/>
<path id="path346" d="M311.618 449.225C311.618 451.551 312.956 453.435 314.606 453.435C316.257 453.435 317.596 451.551 317.596 449.225C317.596 446.9 316.257 445.015 314.606 445.015C312.956 445.015 311.618 446.9 311.618 449.225Z" fill="#473220"/>
<path id="path348" d="M342.543 468.48C341.53 468.48 340.445 468.38 339.31 468.135C337.859 468.297 328.767 469.092 327.747 463.364C327.651 462.819 328.013 462.3 328.557 462.204C329.095 462.109 329.621 462.468 329.717 463.012C330.457 467.167 339.143 466.143 339.23 466.131C339.35 466.113 339.469 466.12 339.583 466.147C344.538 467.283 348.593 465.107 348.634 465.085C349.121 464.82 349.725 464.997 349.99 465.48C350.255 465.963 350.081 466.569 349.599 466.836C349.449 466.92 346.571 468.48 342.543 468.48Z" fill="#473220"/>
</g>
<g id="Group 1">
<path id="path318" d="M257.033 590.166C257.351 594.274 257.821 598.377 258.247 602.44C258.749 607.261 259.327 612.081 260.168 616.852C260.607 619.313 261.059 621.837 261.787 624.246C262.051 625.855 262.389 627.449 262.905 628.98C263.984 632.194 266.131 635.144 269.584 636.01C273.099 636.889 276.891 635.521 279.577 633.224C282.679 630.588 284.36 626.645 285.565 622.853C286.984 618.384 288.089 613.789 289.169 609.218C290.287 604.461 291.303 599.677 292.257 594.881C292.881 591.761 293.475 588.634 294.057 585.508C281.523 583.764 268.757 586.168 257.033 590.166Z" fill="#F5DED0"/>
<path id="path320" d="M294.057 585.508C294.389 583.728 294.721 581.948 295.044 580.168C295.836 575.886 297.116 571.442 295.208 567.286C293.513 563.596 290.085 561.109 286.407 559.616C282.164 557.908 277.393 557.268 272.836 557.557C270.613 557.708 268.379 558.046 266.232 558.661C264.361 559.201 262.516 560.03 261.172 561.474C259.816 562.942 259.037 564.826 258.497 566.721C257.871 568.932 257.456 571.192 257.167 573.464C256.459 578.994 256.601 584.586 257.033 590.166C268.757 586.168 281.523 583.764 294.057 585.508Z" fill="#AC5F43"/>
<path id="path330" d="M290.463 604.23C290.344 604.23 290.223 604.209 290.107 604.165C289.589 603.968 289.331 603.39 289.528 602.873C292.735 594.458 293.744 587.216 295.02 578.045L295.381 575.456C297.929 557.385 280.943 552.73 280.219 552.54C280.127 552.514 273.479 550.661 267.791 554.086C263.956 556.396 261.379 560.569 260.133 566.496C260.019 567.037 259.488 567.381 258.948 567.269C258.408 567.154 258.061 566.625 258.176 566.084C259.543 559.582 262.437 554.965 266.779 552.36C273.228 548.492 280.444 550.522 280.749 550.613C280.915 550.654 300.161 555.878 297.361 575.734L297 578.321C295.707 587.617 294.685 594.958 291.396 603.586C291.245 603.985 290.865 604.23 290.463 604.23Z" fill="#473220"/>
<path id="path350" d="M258.588 605.509C258.172 605.509 257.784 605.248 257.641 604.834C257.463 604.312 257.74 603.742 258.263 603.564C265.747 600.99 273.517 599.181 281.361 598.181C284.512 597.781 288.169 597.429 291.725 598.348C292.261 598.486 292.581 599.032 292.444 599.566C292.305 600.1 291.757 600.417 291.225 600.285C288.336 599.536 285.295 599.697 281.615 600.165C273.905 601.146 266.268 602.926 258.913 605.454C258.805 605.492 258.695 605.509 258.588 605.509Z" fill="#473220"/>
<path id="path352" d="M286.437 620.57C286.283 620.57 286.127 620.536 285.98 620.46C279.679 617.21 271.017 616.252 263.376 615.405C261.883 615.24 260.425 615.079 259.031 614.905C258.483 614.838 258.093 614.338 258.163 613.791C258.229 613.243 258.725 612.848 259.277 612.921C260.664 613.093 262.111 613.253 263.596 613.417C271.411 614.284 280.267 615.264 286.896 618.681C287.387 618.936 287.58 619.538 287.327 620.029C287.149 620.373 286.8 620.57 286.437 620.57Z" fill="#473220"/>
<path id="path354" d="M262.651 629.196C262.131 629.196 261.691 628.791 261.655 628.265C261.617 627.713 262.033 627.236 262.584 627.198C269.473 626.726 276.485 626.486 283.421 626.486C284.019 626.496 284.479 626.915 284.479 627.486C284.479 628.038 284.031 628.486 283.479 628.486C283.46 628.486 283.441 628.486 283.423 628.486C276.529 628.486 269.565 628.725 262.72 629.193C262.697 629.194 262.675 629.196 262.651 629.196Z" fill="#473220"/>
<path id="path356" d="M257.576 591.536C257.06 591.536 256.621 591.138 256.58 590.614C256.26 586.549 256.065 582.414 256 578.329C255.992 577.777 256.433 577.322 256.985 577.313C257.504 577.328 257.992 577.744 258 578.297C258.064 582.342 258.257 586.433 258.575 590.458C258.617 591.009 258.207 591.489 257.656 591.533C257.629 591.534 257.603 591.536 257.576 591.536Z" fill="#473220"/>
</g>
<path id="dogTail" d="M157.957 554.749C151.566 567.883 149.485 583.084 152.102 597.457C154.463 610.444 160.67 622.7 169.689 632.351C169.421 627.715 169.555 621.093 170.005 613.985C167.693 612.513 165.697 610.517 164.114 608.277C161.741 604.955 160.195 601.108 159.101 597.177C156.227 586.979 156.227 576 159.075 565.813C161.935 555.613 167.645 546.231 175.373 539C171.345 539.572 167.645 541.776 164.759 544.648C161.887 547.532 159.745 551.087 157.957 554.749Z" fill="#AC5F43"/>
<g id="leftpaws">
<g id="paw6">
<path id="path98" d="M114.837 315.631C115.226 318.763 112.839 321.059 112.149 321.505C111.466 321.95 108.242 322.282 106.109 324.023C103.98 325.761 103.011 328.854 102.437 329.434C101.863 330.021 99.1357 331.899 96.1455 330.893C93.1601 329.882 90.2939 327.769 91.7319 323.289C93.1695 318.81 92.6341 318.186 91.4455 314.158C90.257 310.129 92.9893 307.954 92.9893 307.954C92.9893 307.954 95.671 305.709 99.3805 307.679C103.09 309.649 103.589 310.302 108.27 309.786C112.947 309.274 114.444 312.505 114.837 315.631Z" fill="#473220"/>
<path id="path100" d="M86.9835 315.511C90.0778 316.997 91.0122 319.493 90.0267 321.545C89.0414 323.595 86.5095 324.427 83.4152 322.941C80.321 321.455 78.6116 318.587 79.5971 316.535C80.5824 314.483 83.8898 314.025 86.9835 315.511Z" fill="#473220"/>
<path id="path102" d="M87.1428 302.797C90.3241 305.058 90.8897 308.035 89.3897 310.145C87.8897 312.254 84.8924 312.697 81.7116 310.434C78.5304 308.173 77.1679 304.629 78.6679 302.519C80.1674 300.41 83.9621 300.534 87.1428 302.797Z" fill="#473220"/>
<path id="path104" d="M101.253 303.861C102.091 307.189 104.349 308.603 106.556 308.049C108.764 307.494 110.084 305.179 109.247 301.85C108.41 298.522 105.942 296.273 103.735 296.827C101.527 297.383 100.416 300.531 101.253 303.861Z" fill="#473220"/>
<path id="path106" d="M88.7643 301.473C90.3439 305.042 93.1476 306.191 95.5143 305.145C97.881 304.097 98.9143 301.249 97.3346 297.679C95.7548 294.11 92.5554 292.066 90.1887 293.114C87.822 294.161 87.184 297.903 88.7643 301.473Z" fill="#473220"/>
</g>
<g id="paw5">
<path id="path108" d="M152.154 296.641C149.831 297.878 147.33 296.705 146.778 296.299C146.226 295.901 145.006 293.489 143.012 292.347C141.022 291.207 138.324 291.377 137.701 291.102C137.072 290.83 134.793 289.267 134.686 286.637C134.581 284.01 135.372 281.146 139.291 280.929C143.21 280.711 143.535 280.107 146.318 277.979C149.102 275.85 151.611 277.329 151.611 277.329C151.611 277.329 154.162 278.747 153.734 282.226C153.307 285.703 152.947 286.287 154.747 289.779C156.543 293.269 154.474 295.401 152.154 296.641Z" fill="#473220"/>
<path id="path110" d="M143.931 274.907C143.697 277.762 142.032 279.234 140.14 279.079C138.248 278.925 136.844 277.201 137.078 274.346C137.312 271.493 139.035 269.305 140.928 269.459C142.82 269.614 144.165 272.054 143.931 274.907Z" fill="#473220"/>
<path id="path112" d="M153.883 271.235C153.071 274.389 150.922 275.718 148.83 275.179C146.739 274.641 145.499 272.438 146.311 269.285C147.123 266.131 149.476 264.013 151.568 264.55C153.659 265.089 154.695 268.082 153.883 271.235Z" fill="#473220"/>
<path id="path114" d="M157.268 282.545C154.924 284.19 154.497 286.371 155.588 287.926C156.68 289.479 158.877 289.817 161.22 288.171C163.563 286.525 164.577 283.931 163.487 282.377C162.395 280.823 159.611 280.898 157.268 282.545Z" fill="#473220"/>
<path id="path116" d="M155.397 272.103C153.089 274.399 153.031 276.926 154.554 278.457C156.076 279.987 158.604 279.942 160.912 277.646C163.22 275.35 163.858 272.247 162.335 270.717C160.812 269.186 157.707 269.806 155.397 272.103Z" fill="#473220"/>
</g>
<g id="paw4">
<path id="path118" d="M99.0476 256.987C98.1919 259.237 95.7627 259.933 95.1382 259.986C94.519 260.043 92.2272 259.115 90.1679 259.527C88.1116 259.939 86.3539 261.677 85.76 261.863C85.1632 262.054 82.6539 262.347 80.9982 260.601C79.346 258.853 78.169 256.405 80.7376 253.898C83.3064 251.393 83.1679 250.781 83.8054 247.641C84.4428 244.501 87.0616 244.01 87.0616 244.01C87.0616 244.01 89.671 243.454 91.4684 246.107C93.2652 248.759 93.369 249.378 96.7086 250.702C100.044 252.026 99.8996 254.739 99.0476 256.987Z" fill="#473220"/>
<path id="path120" d="M80.3149 246.959C81.8695 249.066 81.608 251.082 80.2111 252.114C78.8143 253.145 76.8111 252.801 75.2559 250.694C73.7007 248.587 73.572 246.043 74.9695 245.013C76.3663 243.981 78.7595 244.853 80.3149 246.959Z" fill="#473220"/>
<path id="path122" d="M84.9621 238.446C86.2985 241.106 85.6168 243.315 83.8528 244.201C82.0881 245.087 79.9095 244.315 78.5731 241.655C77.2367 238.994 77.5829 236.119 79.3476 235.233C81.1116 234.346 83.6257 235.785 84.9621 238.446Z" fill="#473220"/>
<path id="path124" d="M94.0945 244.202C93.4701 246.745 94.4872 248.505 96.1731 248.918C97.8595 249.333 99.5762 248.243 100.201 245.701C100.825 243.158 99.9643 240.761 98.2783 240.347C96.5919 239.933 94.719 241.658 94.0945 244.202Z" fill="#473220"/>
<path id="path126" d="M86.5278 238.133C86.3179 241.102 87.7976 242.878 89.7668 243.017C91.7367 243.157 93.4502 241.606 93.6595 238.635C93.8695 235.665 92.4424 233.145 90.4731 233.006C88.5034 232.866 86.7372 235.162 86.5278 238.133Z" fill="#473220"/>
</g>
</g>
<path id="catTail" d="M286.775 290.983C284.333 286.427 277.761 290.538 280.21 295.107C286.32 306.506 288.802 319.894 286.614 332.912C285.617 338.849 283.876 345.427 280.025 350.002C275.59 355.272 267.315 357.273 263.972 349.718C261.871 344.972 255.314 349.114 257.407 353.842C260.605 361.069 268.296 364.444 275.427 362.42C283.11 360.239 288.204 353.277 291.087 345.691C297.812 327.993 295.544 307.343 286.775 290.983Z" fill="#F0C8B2"/>
<g id="rightpaws">
<g id="paw2">
<path id="path358" d="M446.957 285.113C446.561 288.302 448.992 290.641 449.694 291.094C450.39 291.548 453.674 291.886 455.846 293.66C458.014 295.429 459.002 298.58 459.586 299.17C460.172 299.768 462.949 301.682 465.994 300.656C469.036 299.626 471.954 297.474 470.49 292.912C469.025 288.349 469.57 287.714 470.781 283.612C471.992 279.508 469.209 277.293 469.209 277.293C469.209 277.293 466.477 275.005 462.7 277.013C458.921 279.02 458.412 279.684 453.645 279.158C448.882 278.637 447.357 281.928 446.957 285.113Z" fill="#473220"/>
<path id="path360" d="M475.325 284.989C472.174 286.504 471.222 289.045 472.226 291.134C473.23 293.225 475.809 294.07 478.96 292.557C482.112 291.044 483.853 288.122 482.849 286.033C481.845 283.944 478.477 283.476 475.325 284.989Z" fill="#473220"/>
<path id="path362" d="M475.163 272.04C471.923 274.344 471.347 277.376 472.875 279.524C474.402 281.672 477.455 282.124 480.695 279.82C483.935 277.516 485.323 273.906 483.795 271.758C482.267 269.609 478.403 269.736 475.163 272.04Z" fill="#473220"/>
<path id="path364" d="M460.791 273.124C459.939 276.514 457.639 277.954 455.39 277.389C453.142 276.824 451.797 274.466 452.65 271.076C453.502 267.685 456.015 265.396 458.265 265.961C460.513 266.526 461.643 269.733 460.791 273.124Z" fill="#473220"/>
<path id="path366" d="M473.513 270.692C471.904 274.326 469.048 275.498 466.637 274.43C464.226 273.364 463.174 270.462 464.784 266.828C466.392 263.192 469.65 261.11 472.061 262.177C474.472 263.244 475.121 267.056 473.513 270.692Z" fill="#473220"/>
</g>
<g id="paw1">
<path id="path368" d="M408.947 265.769C411.314 267.03 413.861 265.834 414.425 265.422C414.986 265.017 416.23 262.56 418.259 261.397C420.286 260.237 423.034 260.408 423.669 260.129C424.31 259.852 426.63 258.26 426.739 255.581C426.846 252.905 426.041 249.989 422.05 249.766C418.058 249.545 417.727 248.93 414.893 246.762C412.057 244.594 409.501 246.101 409.501 246.101C409.501 246.101 406.903 247.545 407.339 251.088C407.774 254.63 408.139 255.225 406.307 258.781C404.478 262.336 406.586 264.506 408.947 265.769Z" fill="#473220"/>
<path id="path370" d="M417.323 243.634C417.561 246.541 419.257 248.041 421.185 247.884C423.111 247.725 424.541 245.969 424.303 243.062C424.065 240.156 422.31 237.928 420.382 238.085C418.454 238.242 417.085 240.728 417.323 243.634Z" fill="#473220"/>
<path id="path372" d="M407.187 239.893C408.014 243.105 410.203 244.46 412.333 243.91C414.463 243.362 415.726 241.118 414.899 237.908C414.071 234.696 411.674 232.537 409.545 233.085C407.415 233.634 406.359 236.682 407.187 239.893Z" fill="#473220"/>
<path id="path374" d="M403.739 251.412C406.126 253.089 406.562 255.31 405.45 256.893C404.338 258.476 402.101 258.82 399.714 257.144C397.327 255.466 396.294 252.825 397.406 251.242C398.517 249.66 401.353 249.736 403.739 251.412Z" fill="#473220"/>
<path id="path376" d="M405.643 240.777C407.995 243.116 408.054 245.69 406.503 247.249C404.953 248.808 402.378 248.762 400.027 246.424C397.677 244.084 397.027 240.924 398.578 239.365C400.129 237.806 403.293 238.438 405.643 240.777Z" fill="#473220"/>
</g>
<g id="paw3">
<path id="path378" d="M397.382 320C398.254 322.291 400.727 322.999 401.363 323.054C401.994 323.112 404.329 322.167 406.426 322.587C408.521 323.006 410.311 324.776 410.915 324.966C411.523 325.16 414.079 325.459 415.766 323.679C417.449 321.9 418.647 319.407 416.031 316.854C413.415 314.3 413.555 313.678 412.906 310.48C412.257 307.282 409.59 306.782 409.59 306.782C409.59 306.782 406.933 306.216 405.102 308.918C403.271 311.619 403.166 312.25 399.765 313.598C396.367 314.947 396.514 317.71 397.382 320Z" fill="#473220"/>
<path id="path380" d="M416.462 309.787C414.878 311.932 415.145 313.986 416.567 315.035C417.99 316.086 420.03 315.735 421.614 313.59C423.198 311.444 423.329 308.854 421.906 307.803C420.483 306.752 418.046 307.64 416.462 309.787Z" fill="#473220"/>
<path id="path382" d="M411.729 301.115C410.367 303.824 411.061 306.074 412.858 306.976C414.655 307.879 416.874 307.094 418.235 304.383C419.597 301.674 419.243 298.744 417.447 297.842C415.65 296.939 413.09 298.404 411.729 301.115Z" fill="#473220"/>
<path id="path384" d="M402.427 306.978C403.063 309.567 402.027 311.36 400.31 311.782C398.593 312.203 396.843 311.095 396.207 308.504C395.571 305.915 396.449 303.472 398.166 303.051C399.883 302.63 401.791 304.387 402.427 306.978Z" fill="#473220"/>
<path id="path386" d="M410.134 300.795C410.347 303.82 408.841 305.63 406.834 305.771C404.829 305.912 403.083 304.332 402.87 301.307C402.657 298.283 404.11 295.715 406.115 295.574C408.122 295.432 409.921 297.77 410.134 300.795Z" fill="#473220"/>
</g>
</g>
</g>
<defs>
<filter id="filter0_d_14_407" x="24.9509" y="76.2734" width="597.659" height="555.933" filterUnits="userSpaceOnUse" color-interpolation-filters="sRGB">
<feFlood flood-opacity="0" result="BackgroundImageFix"/>
<feColorMatrix in="SourceAlpha" type="matrix" values="0 0 0 0 0 0 0 0 0 0 0 0 0 0 0 0 0 0 127 0" result="hardAlpha"/>
<feOffset dx="-13" dy="-5"/>
<feGaussianBlur stdDeviation="4.5"/>
<feComposite in2="hardAlpha" operator="out"/>
<feColorMatrix type="matrix" values="0 0 0 0 0.841667 0 0 0 0 0.653133 0 0 0 0 0.547083 0 0 0 1 0"/>
<feBlend mode="normal" in2="BackgroundImageFix" result="effect1_dropShadow_14_407"/>
<feBlend mode="normal" in="SourceGraphic" in2="effect1_dropShadow_14_407" result="shape"/>
</filter>
<linearGradient id="paint0_linear_14_407" x1="626.262" y1="388.309" x2="58.7623" y2="159.309" gradientUnits="userSpaceOnUse">
<stop stop-color="#F0C8B2"/>
<stop offset="0.715" stop-color="#EA9261"/>
<stop offset="0.7151" stop-color="#EA9261"/>
<stop offset="0.805" stop-color="#ED9463"/>
<stop offset="1" stop-color="#C2784F"/>
</linearGradient>
</defs>
</svg>
